{
.appVersion = "983";
DisplayStrings = (
C,
"\U00D0",
W,
/uni3071
);
copyright = "Copyright (c) 1996 Game Freak and Nintendo / Copyright (c) 2016-2017 Superpencil All Rights Reserved.";
customParameters = (
{
name = panose;
value = (
0,
0,
5,
0,
0,
0,
0,
0,
0,
0
);
},
{
name = unicodeRanges;
value = (
0,
1,
49,
50
);
},
{
name = codePageRanges;
value = (
1252,
932
);
},
{
name = glyphOrder;
value = (
.notdef,
A,
Aacute,
Acircumflex,
Adieresis,
Agrave,
Aring,
Atilde,
AE,
B,
C,
Ccedilla,
D,
Eth,
E,
Eacute,
Ecircumflex,
Edieresis,
Egrave,
F,
G,
H,
I,
Iacute,
Icircumflex,
Idieresis,
Igrave,
J,
K,
L,
M,
N,
Ntilde,
O,
Oacute,
Ocircumflex,
Odieresis,
Ograve,
Oslash,
Otilde,
OE,
P,
Thorn,
Q,
R,
S,
T,
U,
Uacute,
Ucircumflex,
Udieresis,
Ugrave,
V,
W,
Wacute,
Wcircumflex,
Wdieresis,
Wgrave,
X,
Y,
Yacute,
Ycircumflex,
Ydieresis,
Ygrave,
Z,
a,
aacute,
acircumflex,
adieresis,
agrave,
aring,
atilde,
ae,
b,
c,
ccedilla,
d,
eth,
e,
eacute,
ecircumflex,
edieresis,
egrave,
f,
g,
h,
i,
iacute,
icircumflex,
idieresis,
igrave,
j,
k,
l,
m,
n,
ntilde,
o,
oacute,
ocircumflex,
odieresis,
ograve,
oslash,
otilde,
oe,
p,
thorn,
q,
r,
s,
germandbls,
t,
u,
uacute,
ucircumflex,
udieresis,
ugrave,
v,
w,
wacute,
wcircumflex,
wdieresis,
wgrave,
x,
y,
yacute,
ycircumflex,
ydieresis,
ygrave,
z,
P_K_M_N.liga,
u_n_o_w_n_a.liga,
u_n_o_w_n_b.liga,
u_n_o_w_n_c.liga,
u_n_o_w_n_d.liga,
u_n_o_w_n_e.liga,
u_n_o_w_n_f.liga,
u_n_o_w_n_g.liga,
u_n_o_w_n_h.liga,
u_n_o_w_n_i.liga,
u_n_o_w_n_j.liga,
u_n_o_w_n_k.liga,
u_n_o_w_n_l.liga,
u_n_o_w_n_m.liga,
u_n_o_w_n_n.liga,
u_n_o_w_n_o.liga,
u_n_o_w_n_p.liga,
u_n_o_w_n_q.liga,
u_n_o_w_n_r.liga,
u_n_o_w_n_s.liga,
u_n_o_w_n_t.liga,
u_n_o_w_n_u.liga,
u_n_o_w_n_v.liga,
u_n_o_w_n_w.liga,
u_n_o_w_n_x.liga,
u_n_o_w_n_y.liga,
u_n_o_w_n_z.liga,
uni5186,
uni3042,
uni3041,
uni3044,
uni3043,
uni3046,
uni3045,
uni3048,
uni3047,
uni304A,
uni3049,
uni304B,
uni3095,
uni304C,
uni304D,
uni304E,
uni304F,
uni3050,
uni3051,
uni3052,
uni3096,
uni3053,
uni3054,
uni3055,
uni3056,
uni3057,

glyphs = (
{
glyphname = .notdef;
lastChange = "2017-07-22 05:54:05 +0000";
layers = (
{
layerId = "364DB8B9-29FE-4011-8AFD-DD56313284DA";
paths = (
{
closed = 1;
nodes = (
"200 240 LINE",
"240 240 LINE",
"240 280 LINE",
"200 280 LINE"
);
},
{
closed = 1;
nodes = (
"40 0 LINE",
"80 0 LINE",
"80 40 LINE",
"40 40 LINE"
);
},
{
closed = 1;
nodes = (
"80 -40 LINE",
"120 -40 LINE",
"120 0 LINE",
"80 0 LINE"
);
},
{
closed = 1;
nodes = (
"40 80 LINE",
"80 80 LINE",
"80 120 LINE",
"40 120 LINE"
);
},
{
closed = 1;
nodes = (
"80 40 LINE",
"120 40 LINE",
"120 80 LINE",
"80 80 LINE"
);
},
{
closed = 1;
nodes = (
"120 0 LINE",
"160 0 LINE",
"160 40 LINE",
"120 40 LINE"
);
},
{
closed = 1;
nodes = (
"160 -40 LINE",
"200 -40 LINE",
"200 0 LINE",
"160 0 LINE"
);
},
{
closed = 1;
nodes = (
"120 80 LINE",
"160 80 LINE",
"160 120 LINE",
"120 120 LINE"
);
},
{
closed = 1;
nodes = (
"160 40 LINE",
"200 40 LINE",
"200 80 LINE",
"160 80 LINE"
);
},
{
closed = 1;
nodes = (
"200 0 LINE",
"240 0 LINE",
"240 40 LINE",
"200 40 LINE"
);
},
{
closed = 1;
nodes = (
"120 160 LINE",
"160 160 LINE",
"160 200 LINE",
"120 200 LINE"
);
},
{
closed = 1;
nodes = (
"160 120 LINE",
"200 120 LINE",
"200 160 LINE",
"160 160 LINE"
);
},
{
closed = 1;
nodes = (
"200 80 LINE",
"240 80 LINE",
"240 120 LINE",
"200 120 LINE"
);
},
{
closed = 1;
nodes = (
"120 240 LINE",
"160 240 LINE",
"160 280 LINE",
"120 280 LINE"
);
},
{
closed = 1;
nodes = (
"160 200 LINE",
"200 200 LINE",
"200 240 LINE",
"160 240 LINE"
);
},
{
closed = 1;
nodes = (
"200 160 LINE",
"240 160 LINE",
"240 200 LINE",
"200 200 LINE"
);
}
);
width = 320;
}
);
note = .notdef;
},
{
glyphname = A;
lastChange = "2017-07-22 05:54:05 +0000";
layers = (
{
layerId = "364DB8B9-29FE-4011-8AFD-DD56313284DA";
paths = (
{
closed = 1;
nodes = (
"40 80 LINE",
"240 80 LINE",
"240 160 LINE",
"200 160 LINE",
"200 120 LINE",
"80 120 LINE",
"80 160 LINE",
"40 160 LINE"
);
},
{
closed = 1;
nodes = (
"0 0 LINE",
"40 0 LINE",
"40 80 LINE",
"0 80 LINE"
);
},
{
closed = 1;
nodes = (
"80 160 LINE",
"120 160 LINE",
"120 240 LINE",
"80 240 LINE"
);
},
{
closed = 1;
nodes = (
"240 0 LINE",
"280 0 LINE",
"280 80 LINE",
"240 80 LINE"
);
},
{
closed = 1;
nodes = (
"160 160 LINE",
"200 160 LINE",
"200 240 LINE",
"160 240 LINE"
);
},
{
closed = 1;
nodes = (
"120 240 LINE",
"160 240 LINE",
"160 280 LINE",
"120 280 LINE"
);
}
);
width = 320;
}
);
note = A;
unicode = 0041;
},
{
glyphname = Aacute;
lastChange = "2017-07-22 05:54:05 +0000";
layers = (
{
layerId = "364DB8B9-29FE-4011-8AFD-DD56313284DA";
paths = (
{
closed = 1;
nodes = (
"0 0 LINE",
"40 0 LINE",
"40 40 LINE",
"240 40 LINE",
"240 0 LINE",
"280 0 LINE",
"280 80 LINE",
"240 80 LINE",
"240 120 LINE",
"200 120 LINE",
"200 80 LINE",
"80 80 LINE",
"80 120 LINE",
"40 120 LINE",
"40 80 LINE",
"0 80 LINE"
);
},
{
closed = 1;
nodes = (
"80 120 LINE",
"120 120 LINE",
"120 160 LINE",
"80 160 LINE"
);
},
{
closed = 1;
nodes = (
"80 200 LINE",
"120 200 LINE",
"120 240 LINE",
"80 240 LINE"
);
},
{
closed = 1;
nodes = (
"120 160 LINE",
"160 160 LINE",
"160 200 LINE",
"120 200 LINE"
);
},
{
closed = 1;
nodes = (
"160 120 LINE",
"200 120 LINE",
"200 160 LINE",
"160 160 LINE"
);
},
{
closed = 1;
nodes = (
"120 240 LINE",
"160 240 LINE",
"160 280 LINE",
"120 280 LINE"
);
}
);
width = 320;
}
);
note = Aacute;
unicode = 00C1;
},
{
glyphname = Acircumflex;
lastChange = "2017-07-22 05:54:05 +0000";
layers = (
{
layerId = "364DB8B9-29FE-4011-8AFD-DD56313284DA";
paths = (
{
closed = 1;
nodes = (
"0 0 LINE",
"40 0 LINE",
"40 40 LINE",
"240 40 LINE",
"240 0 LINE",
"280 0 LINE",
"280 80 LINE",
"240 80 LINE",
"240 120 LINE",
"200 120 LINE",
"200 80 LINE",
"80 80 LINE",
"80 120 LINE",
"40 120 LINE",
"40 80 LINE",
"0 80 LINE"
);
},
{
closed = 1;
nodes = (
"80 120 LINE",
"120 120 LINE",
"120 160 LINE",
"80 160 LINE"
);
},
{
closed = 1;
nodes = (
"120 160 LINE",
"160 160 LINE",
"160 200 LINE",
"120 200 LINE"
);
},
{
closed = 1;
nodes = (
"160 120 LINE",
"200 120 LINE",
"200 160 LINE",
"160 160 LINE"
);
},
{
closed = 1;
nodes = (
"120 240 LINE",
"160 240 LINE",
"160 280 LINE",
"120 280 LINE"
);
},
{
closed = 1;
nodes = (
"80 200 LINE",
"120 200 LINE",
"120 240 LINE",
"80 240 LINE"
);
},
{
closed = 1;
nodes = (
"160 200 LINE",
"200 200 LINE",
"200 240 LINE",
"160 240 LINE"
);
}
);
width = 320;
}
);
note = Acircumflex;
unicode = 00C2;
},
{
glyphname = Adieresis;
lastChange = "2017-07-22 05:54:05 +0000";
layers = (
{
layerId = "364DB8B9-29FE-4011-8AFD-DD56313284DA";
paths = (
{
closed = 1;
nodes = (
"40 80 LINE",
"240 80 LINE",
"240 160 LINE",
"200 160 LINE",
"200 120 LINE",
"80 120 LINE",
"80 160 LINE",
"40 160 LINE"
);
},
{
closed = 1;
nodes = (
"0 0 LINE",
"40 0 LINE",
"40 80 LINE",
"0 80 LINE"
);
},
{
closed = 1;
nodes = (
"80 160 LINE",
"120 160 LINE",
"120 200 LINE",
"80 200 LINE"
);
},
{
closed = 1;
nodes = (
"240 0 LINE",
"280 0 LINE",
"280 80 LINE",
"240 80 LINE"
);
},
{
closed = 1;
nodes = (
"80 240 LINE",
"120 240 LINE",
"120 280 LINE",
"80 280 LINE"
);
},
{
closed = 1;
nodes = (
"120 200 LINE",
"160 200 LINE",
"160 240 LINE",
"120 240 LINE"
);
},
{
closed = 1;
nodes = (
"160 160 LINE",
"200 160 LINE",
"200 200 LINE",
"160 200 LINE"
);
},
{
closed = 1;
nodes = (
"160 240 LINE",
"200 240 LINE",
"200 280 LINE",
"160 280 LINE"
);
}
);
width = 320;
}
);
note = Adieresis;
unicode = 00C4;
},
{
glyphname = Agrave;
lastChange = "2017-07-22 05:54:05 +0000";
layers = (
{
layerId = "364DB8B9-29FE-4011-8AFD-DD56313284DA";
paths = (
{
closed = 1;
nodes = (
"0 0 LINE",
"40 0 LINE",
"40 40 LINE",
"240 40 LINE",
"240 0 LINE",
"280 0 LINE",
"280 80 LINE",
"240 80 LINE",
"240 120 LINE",
"200 120 LINE",
"200 80 LINE",
"80 80 LINE",
"80 120 LINE",
"40 120 LINE",
"40 80 LINE",
"0 80 LINE"
);
},
{
closed = 1;
nodes = (
"80 120 LINE",
"120 120 LINE",
"120 160 LINE",
"80 160 LINE"
);
},
{
closed = 1;
nodes = (
"120 160 LINE",
"160 160 LINE",
"160 200 LINE",
"120 200 LINE"
);
},
{
closed = 1;
nodes = (
"160 120 LINE",
"200 120 LINE",
"200 160 LINE",
"160 160 LINE"
);
},
{
closed = 1;
nodes = (
"120 240 LINE",
"160 240 LINE",
"160 280 LINE",
"120 280 LINE"
);
},
{
closed = 1;
nodes = (
"160 200 LINE",
"200 200 LINE",
"200 240 LINE",
"160 240 LINE"
);
}
);
width = 320;
}
);
note = Agrave;
unicode = 00C0;
},
{
glyphname = Aring;
lastChange = "2017-07-22 05:54:05 +0000";
layers = (
{
layerId = "364DB8B9-29FE-4011-8AFD-DD56313284DA";
paths = (
{
closed = 1;
nodes = (
"0 0 LINE",
"40 0 LINE",
"40 40 LINE",
"240 40 LINE",
"240 0 LINE",
"280 0 LINE",
"280 80 LINE",
"240 80 LINE",
"240 120 LINE",
"200 120 LINE",
"200 80 LINE",
"80 80 LINE",
"80 120 LINE",
"40 120 LINE",
"40 80 LINE",
"0 80 LINE"
);
},
{
closed = 1;
nodes = (
"80 120 LINE",
"120 120 LINE",
"120 160 LINE",
"80 160 LINE"
);
},
{
closed = 1;
nodes = (
"120 160 LINE",
"160 160 LINE",
"160 200 LINE",
"120 200 LINE"
);
},
{
closed = 1;
nodes = (
"160 120 LINE",
"200 120 LINE",
"200 160 LINE",
"160 160 LINE"
);
},
{
closed = 1;
nodes = (
"120 240 LINE",
"160 240 LINE",
"160 280 LINE",
"120 280 LINE"
);
},
{
closed = 1;
nodes = (
"80 200 LINE",
"120 200 LINE",
"120 240 LINE",
"80 240 LINE"
);
},
{
closed = 1;
nodes = (
"120 160 LINE",
"160 160 LINE",
"160 200 LINE",
"120 200 LINE"
);
},
{
closed = 1;
nodes = (
"160 200 LINE",
"200 200 LINE",
"200 240 LINE",
"160 240 LINE"
);
}
);
width = 320;
}
);
note = Aring;
unicode = 00C5;
},
{
glyphname = Atilde;
lastChange = "2017-07-22 05:54:05 +0000";
layers = (
{
layerId = "364DB8B9-29FE-4011-8AFD-DD56313284DA";
paths = (
{
closed = 1;
nodes = (
"0 0 LINE",
"40 0 LINE",
"40 40 LINE",
"240 40 LINE",
"240 0 LINE",
"280 0 LINE",
"280 80 LINE",
"240 80 LINE",
"240 120 LINE",
"200 120 LINE",
"200 80 LINE",
"80 80 LINE",
"80 120 LINE",
"40 120 LINE",
"40 80 LINE",
"0 80 LINE"
);
},
{
closed = 1;
nodes = (
"80 120 LINE",
"120 120 LINE",
"120 160 LINE",
"80 160 LINE"
);
},
{
closed = 1;
nodes = (
"120 160 LINE",
"160 160 LINE",
"160 200 LINE",
"120 200 LINE"
);
},
{
closed = 1;
nodes = (
"160 120 LINE",
"200 120 LINE",
"200 160 LINE",
"160 160 LINE"
);
},
{
closed = 1;
nodes = (
"160 200 LINE",
"240 200 LINE",
"240 240 LINE",
"160 240 LINE"
);
},
{
closed = 1;
nodes = (
"40 200 LINE",
"80 200 LINE",
"80 240 LINE",
"40 240 LINE"
);
},
{
closed = 1;
nodes = (
"80 240 LINE",
"160 240 LINE",
"160 280 LINE",
"80 280 LINE"
);
},
{
closed = 1;
nodes = (
"240 240 LINE",
"280 240 LINE",
"280 280 LINE",
"240 280 LINE"
);
}
);
width = 320;
}
);
note = Atilde;
unicode = 00C3;
},
{
glyphname = AE;
lastChange = "2017-07-22 05:54:05 +0000";
layers = (
{
layerId = "364DB8B9-29FE-4011-8AFD-DD56313284DA";
paths = (
{
closed = 1;
nodes = (
"160 0 LINE",
"280 0 LINE",
"280 40 LINE",
"200 40 LINE",
"200 120 LINE",
"240 120 LINE",
"240 160 LINE",
"200 160 LINE",
"200 240 LINE",
"280 240 LINE",
"280 280 LINE",
"120 280 LINE",
"120 240 LINE",
"160 240 LINE",
"160 120 LINE",
"80 120 LINE",
"80 160 LINE",
"40 160 LINE",
"40 80 LINE",
"160 80 LINE"
);
},
{
closed = 1;
nodes = (
"0 0 LINE",
"40 0 LINE",
"40 80 LINE",
"0 80 LINE"
);
},
{
closed = 1;
nodes = (
"80 160 LINE",
"120 160 LINE",
"120 240 LINE",
"80 240 LINE"
);
}
);
width = 320;
}
);
note = AE;
unicode = 00C6;
},
{
glyphname = B;
lastChange = "2017-07-22 05:54:05 +0000";
layers = (
{
layerId = "364DB8B9-29FE-4011-8AFD-DD56313284DA";
paths = (
{
closed = 1;
nodes = (
"0 0 LINE",
"240 0 LINE",
"240 40 LINE",
"40 40 LINE",
"40 120 LINE",
"240 120 LINE",
"240 240 LINE",
"200 240 LINE",
"200 160 LINE",
"40 160 LINE",
"40 240 LINE",
"200 240 LINE",
"200 280 LINE",
"0 280 LINE"
);
},
{
closed = 1;
nodes = (
"240 40 LINE",
"280 40 LINE",
"280 120 LINE",
"240 120 LINE"
);
}
);
width = 320;
}
);
note = B;
unicode = 0042;
},
{
glyphname = C;
lastChange = "2017-07-22 05:54:05 +0000";
layers = (
{
layerId = "364DB8B9-29FE-4011-8AFD-DD56313284DA";
paths = (
{
closed = 1;
nodes = (
"80 240 LINE",
"240 240 LINE",
"240 280 LINE",
"80 280 LINE"
);
},
{
closed = 1;
nodes = (
"40 40 LINE",
"80 40 LINE",
"80 80 LINE",
"40 80 LINE"
);
},
{
closed = 1;
nodes = (
"0 80 LINE",
"40 80 LINE",
"40 200 LINE",
"0 200 LINE"
);
},
{
closed = 1;
nodes = (
"80 0 LINE",
"240 0 LINE",
"240 40 LINE",
"80 40 LINE"
);
},
{
closed = 1;
nodes = (
"40 200 LINE",
"80 200 LINE",
"80 240 LINE",
"40 240 LINE"
);
},
{
closed = 1;
nodes = (
"240 40 LINE",
"280 40 LINE",
"280 80 LINE",
"240 80 LINE"
);
},
{
closed = 1;
nodes = (
"240 200 LINE",
"280 200 LINE",
"280 240 LINE",
"240 240 LINE"
);
}
);
width = 320;
}
);
note = C;
unicode = 0043;
},
{
glyphname = Ccedilla;
lastChange = "2017-07-22 05:54:05 +0000";
layers = (
{
layerId = "364DB8B9-29FE-4011-8AFD-DD56313284DA";
paths = (
{
closed = 1;
nodes = (
"80 240 LINE",
"240 240 LINE",
"240 280 LINE",
"80 280 LINE"
);
},
{
closed = 1;
nodes = (
"40 80 LINE",
"80 80 LINE",
"80 120 LINE",
"40 120 LINE"
);
},
{
closed = 1;
nodes = (
"0 120 LINE",
"40 120 LINE",
"40 200 LINE",
"0 200 LINE"
);
},
{
closed = 1;
nodes = (
"80 40 LINE",
"240 40 LINE",
"240 80 LINE",
"80 80 LINE"
);
},
{
closed = 1;
nodes = (
"40 200 LINE",
"80 200 LINE",
"80 240 LINE",
"40 240 LINE"
);
},
{
closed = 1;
nodes = (
"240 80 LINE",
"280 80 LINE",
"280 120 LINE",
"240 120 LINE"
);
},
{
closed = 1;
nodes = (
"240 200 LINE",
"280 200 LINE",
"280 240 LINE",
"240 240 LINE"
);
},
{
closed = 1;
nodes = (
"120 -40 LINE",
"200 -40 LINE",
"200 40 LINE",
"160 40 LINE",
"160 0 LINE",
"120 0 LINE"
);
},
{
closed = 1;
nodes = (
"120 -40 LINE",
"200 -40 LINE",
"200 40 LINE",
"160 40 LINE",
"160 0 LINE",
"120 0 LINE"
);
}
);
width = 320;
}
);
note = Ccedilla;
unicode = 00C7;
},
{
glyphname = D;
lastChange = "2017-07-22 05:54:05 +0000";
layers = (
{
layerId = "364DB8B9-29FE-4011-8AFD-DD56313284DA";
paths = (
{
closed = 1;
nodes = (
"0 0 LINE",
"200 0 LINE",
"200 40 LINE",
"40 40 LINE",
"40 240 LINE",
"200 240 LINE",
"200 280 LINE",
"0 280 LINE"
);
},
{
closed = 1;
nodes = (
"200 40 LINE",
"240 40 LINE",
"240 80 LINE",
"200 80 LINE"
);
},
{
closed = 1;
nodes = (
"240 80 LINE",
"280 80 LINE",
"280 200 LINE",
"240 200 LINE"
);
},
{
closed = 1;
nodes = (
"200 200 LINE",
"240 200 LINE",
"240 240 LINE",
"200 240 LINE"
);
}
);
width = 320;
}
);
note = D;
unicode = 0044;
},
{
glyphname = Eth;
lastChange = "2017-07-22 05:54:05 +0000";
layers = (
{
layerId = "364DB8B9-29FE-4011-8AFD-DD56313284DA";
paths = (
{
closed = 1;
nodes = (
"0 0 LINE",
"200 0 LINE",
"200 40 LINE",
"40 40 LINE",
"40 240 LINE",
"200 240 LINE",
"200 280 LINE",
"0 280 LINE"
);
},
{
closed = 1;
nodes = (
"200 40 LINE",
"240 40 LINE",
"240 80 LINE",
"200 80 LINE"
);
},
{
closed = 1;
nodes = (
"240 80 LINE",
"280 80 LINE",
"280 200 LINE",
"240 200 LINE"
);
},
{
closed = 1;
nodes = (
"200 200 LINE",
"240 200 LINE",
"240 240 LINE",
"200 240 LINE"
);
},
{
closed = 1;
nodes = (
"0 120 LINE",
"160 120 LINE",
"160 160 LINE",
"0 160 LINE"
);
}
);
width = 320;
}
);
note = Eth;
unicode = 00D0;
},
{
glyphname = E;
lastChange = "2017-07-22 05:54:05 +0000";
layers = (
{
layerId = "364DB8B9-29FE-4011-8AFD-DD56313284DA";
paths = (
{
closed = 1;
nodes = (
"0 0 LINE",
"280 0 LINE",
"280 40 LINE",
"40 40 LINE",
"40 120 LINE",
"240 120 LINE",
"240 160 LINE",
"40 160 LINE",
"40 240 LINE",
"280 240 LINE",
"280 280 LINE",
"0 280 LINE"
);
}
);
width = 320;
}
);
note = E;
unicode = 0045;
},
{
glyphname = Eacute;
lastChange = "2017-07-22 05:54:05 +0000";
layers = (
{
layerId = "364DB8B9-29FE-4011-8AFD-DD56313284DA";
paths = (
{
closed = 1;
nodes = (
"0 0 LINE",
"280 0 LINE",
"280 40 LINE",
"40 40 LINE",
"40 80 LINE",
"240 80 LINE",
"240 120 LINE",
"40 120 LINE",
"40 160 LINE",
"280 160 LINE",
"280 200 LINE",
"120 200 LINE",
"120 240 LINE",
"80 240 LINE",
"80 200 LINE",
"0 200 LINE"
);
},
{
closed = 1;
nodes = (
"120 240 LINE",
"160 240 LINE",
"160 280 LINE",
"120 280 LINE"
);
}
);
width = 320;
}
);
note = Eacute;
unicode = 00C9;
},
{
glyphname = Ecircumflex;
lastChange = "2017-07-22 05:54:05 +0000";
layers = (
{
layerId = "364DB8B9-29FE-4011-8AFD-DD56313284DA";
paths = (
{
closed = 1;
nodes = (
"0 0 LINE",
"280 0 LINE",
"280 40 LINE",
"40 40 LINE",
"40 80 LINE",
"240 80 LINE",
"240 120 LINE",
"40 120 LINE",
"40 160 LINE",
"280 160 LINE",
"280 200 LINE",
"0 200 LINE"
);
},
{
closed = 1;
nodes = (
"120 240 LINE",
"160 240 LINE",
"160 280 LINE",
"120 280 LINE"
);
},
{
closed = 1;
nodes = (
"80 200 LINE",
"120 200 LINE",
"120 240 LINE",
"80 240 LINE"
);
},
{
closed = 1;
nodes = (
"160 200 LINE",
"200 200 LINE",
"200 240 LINE",
"160 240 LINE"
);
}
);
width = 320;
}
);
note = Ecircumflex;
unicode = 00CA;
},
{
glyphname = Edieresis;
lastChange = "2017-07-22 05:54:05 +0000";
layers = (
{
layerId = "364DB8B9-29FE-4011-8AFD-DD56313284DA";
paths = (
{
closed = 1;
nodes = (
"0 0 LINE",
"280 0 LINE",
"280 40 LINE",
"40 40 LINE",
"40 80 LINE",
"240 80 LINE",
"240 120 LINE",
"40 120 LINE",
"40 160 LINE",
"280 160 LINE",
"280 200 LINE",
"0 200 LINE"
);
},
{
closed = 1;
nodes = (
"160 240 LINE",
"200 240 LINE",
"200 280 LINE",
"160 280 LINE"
);
},
{
closed = 1;
nodes = (
"80 240 LINE",
"120 240 LINE",
"120 280 LINE",
"80 280 LINE"
);
}
);
width = 320;
}
);
note = Edieresis;
unicode = 00CB;
},
{
glyphname = Egrave;
lastChange = "2017-07-22 05:54:05 +0000";
layers = (
{
layerId = "364DB8B9-29FE-4011-8AFD-DD56313284DA";
paths = (
{
closed = 1;
nodes = (
"0 0 LINE",
"280 0 LINE",
"280 40 LINE",
"40 40 LINE",
"40 80 LINE",
"240 80 LINE",
"240 120 LINE",
"40 120 LINE",
"40 160 LINE",
"280 160 LINE",
"280 200 LINE",
"200 200 LINE",
"200 240 LINE",
"160 240 LINE",
"160 200 LINE",
"0 200 LINE"
);
},
{
closed = 1;
nodes = (
"120 240 LINE",
"160 240 LINE",
"160 280 LINE",
"120 280 LINE"
);
}
);
width = 320;
}
);
note = Egrave;
unicode = 00C8;
},
{
glyphname = F;
lastChange = "2017-07-22 05:54:05 +0000";
layers = (
{
layerId = "364DB8B9-29FE-4011-8AFD-DD56313284DA";
paths = (
{
closed = 1;
nodes = (
"0 0 LINE",
"40 0 LINE",
"40 120 LINE",
"240 120 LINE",
"240 160 LINE",
"40 160 LINE",
"40 240 LINE",
"280 240 LINE",
"280 280 LINE",
"0 280 LINE"
);
}
);
width = 320;
}
);
note = F;
unicode = 0046;
},
{
glyphname = G;
lastChange = "2017-07-22 05:54:05 +0000";
layers = (
{
layerId = "364DB8B9-29FE-4011-8AFD-DD56313284DA";
paths = (
{
closed = 1;
nodes = (
"240 40 LINE",
"280 40 LINE",
"280 160 LINE",
"120 160 LINE",
"120 120 LINE",
"240 120 LINE"
);
},
{
closed = 1;
nodes = (
"40 40 LINE",
"80 40 LINE",
"80 80 LINE",
"40 80 LINE"
);
},
{
closed = 1;
nodes = (
"0 80 LINE",
"40 80 LINE",
"40 200 LINE",
"0 200 LINE"
);
},
{
closed = 1;
nodes = (
"80 0 LINE",
"240 0 LINE",
"240 40 LINE",
"80 40 LINE"
);
},
{
closed = 1;
nodes = (
"40 200 LINE",
"80 200 LINE",
"80 240 LINE",
"40 240 LINE"
);
},
{
closed = 1;
nodes = (
"80 240 LINE",
"240 240 LINE",
"240 280 LINE",
"80 280 LINE"
);
},
{
closed = 1;
nodes = (
"240 200 LINE",
"280 200 LINE",
"280 240 LINE",
"240 240 LINE"
);
}
);
width = 320;
}
);
note = G;
unicode = 0047;
},
{
glyphname = H;
lastChange = "2017-07-22 05:54:05 +0000";
layers = (
{
layerId = "364DB8B9-29FE-4011-8AFD-DD56313284DA";
paths = (
{
closed = 1;
nodes = (
"0 0 LINE",
"40 0 LINE",
"40 120 LINE",
"240 120 LINE",
"240 0 LINE",
"280 0 LINE",
"280 280 LINE",
"240 280 LINE",
"240 160 LINE",
"40 160 LINE",
"40 280 LINE",
"0 280 LINE"
);
}
);
width = 320;
}
);
note = H;
unicode = 0048;
},
{
glyphname = I;
lastChange = "2017-07-22 05:54:05 +0000";
layers = (
{
layerId = "364DB8B9-29FE-4011-8AFD-DD56313284DA";
paths = (
{
closed = 1;
nodes = (
"0 0 LINE",
"200 0 LINE",
"200 40 LINE",
"120 40 LINE",
"120 240 LINE",
"200 240 LINE",
"200 280 LINE",
"0 280 LINE",
"0 240 LINE",
"80 240 LINE",
"80 40 LINE",
"0 40 LINE"
);
}
);
width = 320;
}
);
note = I;
unicode = 0049;
},
{
glyphname = Iacute;
lastChange = "2017-07-22 05:54:05 +0000";
layers = (
{
layerId = "364DB8B9-29FE-4011-8AFD-DD56313284DA";
paths = (
{
closed = 1;
nodes = (
"0 0 LINE",
"200 0 LINE",
"200 40 LINE",
"120 40 LINE",
"120 160 LINE",
"200 160 LINE",
"200 200 LINE",
"80 200 LINE",
"80 240 LINE",
"40 240 LINE",
"40 200 LINE",
"0 200 LINE",
"0 160 LINE",
"80 160 LINE",
"80 40 LINE",
"0 40 LINE"
);
},
{
closed = 1;
nodes = (
"80 240 LINE",
"120 240 LINE",
"120 280 LINE",
"80 280 LINE"
);
}
);
width = 320;
}
);
note = Iacute;
unicode = 00CD;
},
{
glyphname = Icircumflex;
lastChange = "2017-07-22 05:54:05 +0000";
layers = (
{
layerId = "364DB8B9-29FE-4011-8AFD-DD56313284DA";
paths = (
{
closed = 1;
nodes = (
"0 0 LINE",
"200 0 LINE",
"200 40 LINE",
"120 40 LINE",
"120 160 LINE",
"200 160 LINE",
"200 200 LINE",
"0 200 LINE",
"0 160 LINE",
"80 160 LINE",
"80 40 LINE",
"0 40 LINE"
);
},
{
closed = 1;
nodes = (
"80 240 LINE",
"120 240 LINE",
"120 280 LINE",
"80 280 LINE"
);
},
{
closed = 1;
nodes = (
"40 200 LINE",
"80 200 LINE",
"80 240 LINE",
"40 240 LINE"
);
},
{
closed = 1;
nodes = (
"120 200 LINE",
"160 200 LINE",
"160 240 LINE",
"120 240 LINE"
);
}
);
width = 320;
}
);
note = Icircumflex;
unicode = 00CE;
},
{
glyphname = Idieresis;
lastChange = "2017-07-22 05:54:05 +0000";
layers = (
{
layerId = "364DB8B9-29FE-4011-8AFD-DD56313284DA";
paths = (
{
closed = 1;
nodes = (
"0 0 LINE",
"200 0 LINE",
"200 40 LINE",
"120 40 LINE",
"120 160 LINE",
"200 160 LINE",
"200 200 LINE",
"0 200 LINE",
"0 160 LINE",
"80 160 LINE",
"80 40 LINE",
"0 40 LINE"
);
},
{
closed = 1;
nodes = (
"120 240 LINE",
"160 240 LINE",
"160 280 LINE",
"120 280 LINE"
);
},
{
closed = 1;
nodes = (
"40 240 LINE",
"80 240 LINE",
"80 280 LINE",
"40 280 LINE"
);
}
);
width = 320;
}
);
note = Idieresis;
unicode = 00CF;
},
{
glyphname = Igrave;
lastChange = "2017-07-22 05:54:05 +0000";
layers = (
{
layerId = "364DB8B9-29FE-4011-8AFD-DD56313284DA";
paths = (
{
closed = 1;
nodes = (
"0 0 LINE",
"200 0 LINE",
"200 40 LINE",
"120 40 LINE",
"120 160 LINE",
"200 160 LINE",
"200 200 LINE",
"160 200 LINE",
"160 240 LINE",
"120 240 LINE",
"120 200 LINE",
"0 200 LINE",
"0 160 LINE",
"80 160 LINE",
"80 40 LINE",
"0 40 LINE"
);
},
{
closed = 1;
nodes = (
"80 240 LINE",
"120 240 LINE",
"120 280 LINE",
"80 280 LINE"
);
}
);
width = 320;
}
);
note = Igrave;
unicode = 00CC;
},
{
glyphname = J;
lastChange = "2017-07-22 05:54:05 +0000";
layers = (
{
layerId = "364DB8B9-29FE-4011-8AFD-DD56313284DA";
paths = (
{
closed = 1;
nodes = (
"160 40 LINE",
"200 40 LINE",
"200 240 LINE",
"280 240 LINE",
"280 280 LINE",
"40 280 LINE",
"40 240 LINE",
"160 240 LINE"
);
},
{
closed = 1;
nodes = (
"0 40 LINE",
"40 40 LINE",
"40 120 LINE",
"0 120 LINE"
);
},
{
closed = 1;
nodes = (
"40 0 LINE",
"160 0 LINE",
"160 40 LINE",
"40 40 LINE"
);
}
);
width = 320;
}
);
note = J;
unicode = 004A;
},
{
glyphname = K;
lastChange = "2017-07-22 05:54:05 +0000";
layers = (
{
layerId = "364DB8B9-29FE-4011-8AFD-DD56313284DA";
paths = (
{
closed = 1;
nodes = (
"0 0 LINE",
"40 0 LINE",
"40 80 LINE",
"80 80 LINE",
"80 120 LINE",
"40 120 LINE",
"40 280 LINE",
"0 280 LINE"
);
},
{
closed = 1;
nodes = (
"80 120 LINE",
"160 120 LINE",
"160 200 LINE",
"120 200 LINE",
"120 160 LINE",
"80 160 LINE"
);
},
{
closed = 1;
nodes = (
"160 80 LINE",
"200 80 LINE",
"200 120 LINE",
"160 120 LINE"
);
},
{
closed = 1;
nodes = (
"200 40 LINE",
"240 40 LINE",
"240 80 LINE",
"200 80 LINE"
);
},
{
closed = 1;
nodes = (
"240 0 LINE",
"280 0 LINE",
"280 40 LINE",
"240 40 LINE"
);
},
{
closed = 1;
nodes = (
"160 200 LINE",
"200 200 LINE",
"200 240 LINE",
"160 240 LINE"
);
},
{
closed = 1;
nodes = (
"200 240 LINE",
"240 240 LINE",
"240 280 LINE",
"200 280 LINE"
);
}
);
width = 320;
}
);
note = K;
unicode = 004B;
},
{
glyphname = L;
lastChange = "2017-07-22 05:54:05 +0000";
layers = (
{
layerId = "364DB8B9-29FE-4011-8AFD-DD56313284DA";
paths = (
{
closed = 1;
nodes = (
"0 0 LINE",
"280 0 LINE",
"280 40 LINE",
"40 40 LINE",
"40 280 LINE",
"0 280 LINE"
);
}
);
width = 320;
}
);
note = L;
unicode = 004C;
},
{
glyphname = M;
lastChange = "2017-07-22 05:54:05 +0000";
layers = (
{
layerId = "364DB8B9-29FE-4011-8AFD-DD56313284DA";
paths = (
{
closed = 1;
nodes = (
"240 0 LINE",
"280 0 LINE",
"280 280 LINE",
"240 280 LINE",
"240 240 LINE",
"200 240 LINE",
"200 200 LINE",
"240 200 LINE"
);
},
{
closed = 1;
nodes = (
"0 0 LINE",
"40 0 LINE",
"40 200 LINE",
"80 200 LINE",
"80 240 LINE",
"40 240 LINE",
"40 280 LINE",
"0 280 LINE"
);
},
{
closed = 1;
nodes = (
"80 160 LINE",
"120 160 LINE",
"120 200 LINE",
"80 200 LINE"
);
},
{
closed = 1;
nodes = (
"120 120 LINE",
"160 120 LINE",
"160 160 LINE",
"120 160 LINE"
);
},
{
closed = 1;
nodes = (
"160 160 LINE",
"200 160 LINE",
"200 200 LINE",
"160 200 LINE"
);
}
);
width = 320;
}
);
note = M;
unicode = 004D;
},
{
glyphname = N;
lastChange = "2017-07-22 05:54:05 +0000";
layers = (
{
layerId = "364DB8B9-29FE-4011-8AFD-DD56313284DA";
paths = (
{
closed = 1;
nodes = (
"240 0 LINE",
"280 0 LINE",
"280 280 LINE",
"240 280 LINE",
"240 80 LINE",
"200 80 LINE",
"200 40 LINE",
"240 40 LINE"
);
},
{
closed = 1;
nodes = (
"0 0 LINE",
"40 0 LINE",
"40 200 LINE",
"80 200 LINE",
"80 240 LINE",
"40 240 LINE",
"40 280 LINE",
"0 280 LINE"
);
},
{
closed = 1;
nodes = (
"80 160 LINE",
"120 160 LINE",
"120 200 LINE",
"80 200 LINE"
);
},
{
closed = 1;
nodes = (
"120 120 LINE",
"160 120 LINE",
"160 160 LINE",
"120 160 LINE"
);
},
{
closed = 1;
nodes = (
"160 80 LINE",
"200 80 LINE",
"200 120 LINE",
"160 120 LINE"
);
}
);
width = 320;
}
);
note = N;
unicode = 004E;
},
{
glyphname = Ntilde;
lastChange = "2017-07-22 05:54:05 +0000";
layers = (
{
layerId = "364DB8B9-29FE-4011-8AFD-DD56313284DA";
paths = (
{
closed = 1;
nodes = (
"0 0 LINE",
"40 0 LINE",
"40 160 LINE",
"80 160 LINE",
"80 240 LINE",
"40 240 LINE",
"40 200 LINE",
"0 200 LINE"
);
},
{
closed = 1;
nodes = (
"80 120 LINE",
"120 120 LINE",
"120 160 LINE",
"80 160 LINE"
);
},
{
closed = 1;
nodes = (
"120 80 LINE",
"160 80 LINE",
"160 120 LINE",
"120 120 LINE"
);
},
{
closed = 1;
nodes = (
"160 40 LINE",
"200 40 LINE",
"200 80 LINE",
"160 80 LINE"
);
},
{
closed = 1;
nodes = (
"200 0 LINE",
"280 0 LINE",
"280 200 LINE",
"240 200 LINE",
"240 40 LINE",
"200 40 LINE"
);
},
{
closed = 1;
nodes = (
"80 240 LINE",
"160 240 LINE",
"160 280 LINE",
"80 280 LINE"
);
},
{
closed = 1;
nodes = (
"160 200 LINE",
"240 200 LINE",
"240 240 LINE",
"160 240 LINE"
);
},
{
closed = 1;
nodes = (
"240 240 LINE",
"280 240 LINE",
"280 280 LINE",
"240 280 LINE"
);
}
);
width = 320;
}
);
note = Ntilde;
unicode = 00D1;
},
{
glyphname = O;
lastChange = "2017-07-22 05:54:05 +0000";
layers = (
{
layerId = "364DB8B9-29FE-4011-8AFD-DD56313284DA";
paths = (
{
closed = 1;
nodes = (
"80 240 LINE",
"200 240 LINE",
"200 280 LINE",
"80 280 LINE"
);
},
{
closed = 1;
nodes = (
"40 40 LINE",
"80 40 LINE",
"80 80 LINE",
"40 80 LINE"
);
},
{
closed = 1;
nodes = (
"0 80 LINE",
"40 80 LINE",
"40 200 LINE",
"0 200 LINE"
);
},
{
closed = 1;
nodes = (
"80 0 LINE",
"200 0 LINE",
"200 40 LINE",
"80 40 LINE"
);
},
{
closed = 1;
nodes = (
"40 200 LINE",
"80 200 LINE",
"80 240 LINE",
"40 240 LINE"
);
},
{
closed = 1;
nodes = (
"200 40 LINE",
"240 40 LINE",
"240 80 LINE",
"200 80 LINE"
);
},
{
closed = 1;
nodes = (
"240 80 LINE",
"280 80 LINE",
"280 200 LINE",
"240 200 LINE"
);
},
{
closed = 1;
nodes = (
"200 200 LINE",
"240 200 LINE",
"240 240 LINE",
"200 240 LINE"
);
}
);
width = 320;
}
);
note = O;
unicode = 004F;
},
{
glyphname = Oacute;
lastChange = "2017-07-22 05:54:05 +0000";
layers = (
{
layerId = "364DB8B9-29FE-4011-8AFD-DD56313284DA";
paths = (
{
closed = 1;
nodes = (
"40 160 LINE",
"240 160 LINE",
"240 200 LINE",
"120 200 LINE",
"120 240 LINE",
"80 240 LINE",
"80 200 LINE",
"40 200 LINE"
);
},
{
closed = 1;
nodes = (
"0 40 LINE",
"40 40 LINE",
"40 160 LINE",
"0 160 LINE"
);
},
{
closed = 1;
nodes = (
"40 0 LINE",
"240 0 LINE",
"240 40 LINE",
"40 40 LINE"
);
},
{
closed = 1;
nodes = (
"240 40 LINE",
"280 40 LINE",
"280 160 LINE",
"240 160 LINE"
);
},
{
closed = 1;
nodes = (
"120 240 LINE",
"160 240 LINE",
"160 280 LINE",
"120 280 LINE"
);
}
);
width = 320;
}
);
note = Oacute;
unicode = 00D3;
},
{
glyphname = Ocircumflex;
lastChange = "2017-07-22 05:54:05 +0000";
layers = (
{
layerId = "364DB8B9-29FE-4011-8AFD-DD56313284DA";
paths = (
{
closed = 1;
nodes = (
"40 160 LINE",
"240 160 LINE",
"240 200 LINE",
"40 200 LINE"
);
},
{
closed = 1;
nodes = (
"0 40 LINE",
"40 40 LINE",
"40 160 LINE",
"0 160 LINE"
);
},
{
closed = 1;
nodes = (
"40 0 LINE",
"240 0 LINE",
"240 40 LINE",
"40 40 LINE"
);
},
{
closed = 1;
nodes = (
"240 40 LINE",
"280 40 LINE",
"280 160 LINE",
"240 160 LINE"
);
},
{
closed = 1;
nodes = (
"120 240 LINE",
"160 240 LINE",
"160 280 LINE",
"120 280 LINE"
);
},
{
closed = 1;
nodes = (
"80 200 LINE",
"120 200 LINE",
"120 240 LINE",
"80 240 LINE"
);
},
{
closed = 1;
nodes = (
"160 200 LINE",
"200 200 LINE",
"200 240 LINE",
"160 240 LINE"
);
}
);
width = 320;
}
);
note = Ocircumflex;
unicode = 00D4;
},
{
glyphname = Odieresis;
lastChange = "2017-07-22 05:54:05 +0000";
layers = (
{
layerId = "364DB8B9-29FE-4011-8AFD-DD56313284DA";
paths = (
{
closed = 1;
nodes = (
"80 200 LINE",
"200 200 LINE",
"200 280 LINE",
"160 280 LINE",
"160 240 LINE",
"120 240 LINE",
"120 280 LINE",
"80 280 LINE"
);
},
{
closed = 1;
nodes = (
"40 40 LINE",
"80 40 LINE",
"80 80 LINE",
"40 80 LINE"
);
},
{
closed = 1;
nodes = (
"0 80 LINE",
"40 80 LINE",
"40 160 LINE",
"0 160 LINE"
);
},
{
closed = 1;
nodes = (
"80 0 LINE",
"200 0 LINE",
"200 40 LINE",
"80 40 LINE"
);
},
{
closed = 1;
nodes = (
"40 160 LINE",
"80 160 LINE",
"80 200 LINE",
"40 200 LINE"
);
},
{
closed = 1;
nodes = (
"200 40 LINE",
"240 40 LINE",
"240 80 LINE",
"200 80 LINE"
);
},
{
closed = 1;
nodes = (
"240 80 LINE",
"280 80 LINE",
"280 160 LINE",
"240 160 LINE"
);
},
{
closed = 1;
nodes = (
"200 160 LINE",
"240 160 LINE",
"240 200 LINE",
"200 200 LINE"
);
}
);
width = 320;
}
);
note = Odieresis;
unicode = 00D6;
},
{
glyphname = Ograve;
lastChange = "2017-07-22 05:54:05 +0000";
layers = (
{
layerId = "364DB8B9-29FE-4011-8AFD-DD56313284DA";
paths = (
{
closed = 1;
nodes = (
"40 160 LINE",
"240 160 LINE",
"240 200 LINE",
"200 200 LINE",
"200 240 LINE",
"160 240 LINE",
"160 200 LINE",
"40 200 LINE"
);
},
{
closed = 1;
nodes = (
"0 40 LINE",
"40 40 LINE",
"40 160 LINE",
"0 160 LINE"
);
},
{
closed = 1;
nodes = (
"40 0 LINE",
"240 0 LINE",
"240 40 LINE",
"40 40 LINE"
);
},
{
closed = 1;
nodes = (
"240 40 LINE",
"280 40 LINE",
"280 160 LINE",
"240 160 LINE"
);
},
{
closed = 1;
nodes = (
"120 240 LINE",
"160 240 LINE",
"160 280 LINE",
"120 280 LINE"
);
}
);
width = 320;
}
);
note = Ograve;
unicode = 00D2;
},
{
glyphname = Oslash;
lastChange = "2017-07-22 05:54:05 +0000";
layers = (
{
layerId = "364DB8B9-29FE-4011-8AFD-DD56313284DA";
paths = (
{
closed = 1;
nodes = (
"80 240 LINE",
"200 240 LINE",
"200 280 LINE",
"80 280 LINE"
);
},
{
closed = 1;
nodes = (
"40 40 LINE",
"80 40 LINE",
"80 80 LINE",
"40 80 LINE"
);
},
{
closed = 1;
nodes = (
"0 80 LINE",
"40 80 LINE",
"40 200 LINE",
"0 200 LINE"
);
},
{
closed = 1;
nodes = (
"80 0 LINE",
"200 0 LINE",
"200 40 LINE",
"80 40 LINE"
);
},
{
closed = 1;
nodes = (
"40 200 LINE",
"80 200 LINE",
"80 240 LINE",
"40 240 LINE"
);
},
{
closed = 1;
nodes = (
"200 40 LINE",
"240 40 LINE",
"240 80 LINE",
"200 80 LINE"
);
},
{
closed = 1;
nodes = (
"240 80 LINE",
"280 80 LINE",
"280 200 LINE",
"240 200 LINE"
);
},
{
closed = 1;
nodes = (
"200 200 LINE",
"240 200 LINE",
"240 240 LINE",
"200 240 LINE"
);
},
{
closed = 1;
nodes = (
"240 240 LINE",
"280 240 LINE",
"280 280 LINE",
"240 280 LINE"
);
},
{
closed = 1;
nodes = (
"0 0 LINE",
"40 0 LINE",
"40 40 LINE",
"0 40 LINE"
);
},
{
closed = 1;
nodes = (
"40 40 LINE",
"80 40 LINE",
"80 80 LINE",
"40 80 LINE"
);
},
{
closed = 1;
nodes = (
"80 80 LINE",
"120 80 LINE",
"120 120 LINE",
"80 120 LINE"
);
},
{
closed = 1;
nodes = (
"120 120 LINE",
"160 120 LINE",
"160 160 LINE",
"120 160 LINE"
);
},
{
closed = 1;
nodes = (
"160 160 LINE",
"200 160 LINE",
"200 200 LINE",
"160 200 LINE"
);
},
{
closed = 1;
nodes = (
"200 200 LINE",
"240 200 LINE",
"240 240 LINE",
"200 240 LINE"
);
}
);
width = 320;
}
);
note = Oslash;
unicode = 00D8;
},
{
glyphname = Otilde;
lastChange = "2017-07-22 05:54:05 +0000";
layers = (
{
layerId = "364DB8B9-29FE-4011-8AFD-DD56313284DA";
paths = (
{
closed = 1;
nodes = (
"40 160 LINE",
"240 160 LINE",
"240 200 LINE",
"40 200 LINE"
);
},
{
closed = 1;
nodes = (
"0 40 LINE",
"40 40 LINE",
"40 160 LINE",
"0 160 LINE"
);
},
{
closed = 1;
nodes = (
"40 0 LINE",
"240 0 LINE",
"240 40 LINE",
"40 40 LINE"
);
},
{
closed = 1;
nodes = (
"240 40 LINE",
"280 40 LINE",
"280 160 LINE",
"240 160 LINE"
);
},
{
closed = 1;
nodes = (
"160 200 LINE",
"240 200 LINE",
"240 240 LINE",
"160 240 LINE"
);
},
{
closed = 1;
nodes = (
"40 200 LINE",
"80 200 LINE",
"80 240 LINE",
"40 240 LINE"
);
},
{
closed = 1;
nodes = (
"80 240 LINE",
"160 240 LINE",
"160 280 LINE",
"80 280 LINE"
);
},
{
closed = 1;
nodes = (
"240 240 LINE",
"280 240 LINE",
"280 280 LINE",
"240 280 LINE"
);
}
);
width = 320;
}
);
note = Otilde;
unicode = 00D5;
},
{
glyphname = OE;
lastChange = "2017-07-22 05:54:05 +0000";
layers = (
{
layerId = "364DB8B9-29FE-4011-8AFD-DD56313284DA";
paths = (
{
closed = 1;
nodes = (
"160 0 LINE",
"280 0 LINE",
"280 40 LINE",
"200 40 LINE",
"200 120 LINE",
"240 120 LINE",
"240 160 LINE",
"200 160 LINE",
"200 240 LINE",
"280 240 LINE",
"280 280 LINE",
"160 280 LINE",
"160 240 LINE",
"120 240 LINE",
"120 200 LINE",
"160 200 LINE",
"160 80 LINE",
"120 80 LINE",
"120 40 LINE",
"160 40 LINE"
);
},
{
closed = 1;
nodes = (
"40 40 LINE",
"80 40 LINE",
"80 80 LINE",
"40 80 LINE"
);
},
{
closed = 1;
nodes = (
"80 0 LINE",
"120 0 LINE",
"120 40 LINE",
"80 40 LINE"
);
},
{
closed = 1;
nodes = (
"0 80 LINE",
"40 80 LINE",
"40 200 LINE",
"0 200 LINE"
);
},
{
closed = 1;
nodes = (
"40 200 LINE",
"80 200 LINE",
"80 240 LINE",
"40 240 LINE"
);
},
{
closed = 1;
nodes = (
"80 240 LINE",
"120 240 LINE",
"120 280 LINE",
"80 280 LINE"
);
}
);
width = 320;
}
);
note = OE;
unicode = 0152;
},
{
glyphname = P;
lastChange = "2017-07-22 05:54:05 +0000";
layers = (
{
layerId = "364DB8B9-29FE-4011-8AFD-DD56313284DA";
paths = (
{
closed = 1;
nodes = (
"0 0 LINE",
"40 0 LINE",
"40 120 LINE",
"240 120 LINE",
"240 160 LINE",
"40 160 LINE",
"40 240 LINE",
"240 240 LINE",
"240 280 LINE",
"0 280 LINE"
);
},
{
closed = 1;
nodes = (
"240 160 LINE",
"280 160 LINE",
"280 240 LINE",
"240 240 LINE"
);
}
);
width = 320;
}
);
note = P;
unicode = 0050;
},
{
glyphname = Thorn;
lastChange = "2017-07-22 05:54:05 +0000";
layers = (
{
layerId = "364DB8B9-29FE-4011-8AFD-DD56313284DA";
paths = (
{
closed = 1;
nodes = (
"0 0 LINE",
"40 0 LINE",
"40 80 LINE",
"240 80 LINE",
"240 120 LINE",
"40 120 LINE",
"40 200 LINE",
"240 200 LINE",
"240 240 LINE",
"40 240 LINE",
"40 280 LINE",
"0 280 LINE"
);
},
{
closed = 1;
nodes = (
"240 120 LINE",
"280 120 LINE",
"280 200 LINE",
"240 200 LINE"
);
}
);
width = 320;
}
);
note = Thorn;
unicode = 00DE;
},
{
glyphname = Q;
lastChange = "2017-07-22 05:54:05 +0000";
layers = (
{
layerId = "364DB8B9-29FE-4011-8AFD-DD56313284DA";
paths = (
{
closed = 1;
nodes = (
"80 240 LINE",
"200 240 LINE",
"200 280 LINE",
"80 280 LINE"
);
},
{
closed = 1;
nodes = (
"40 40 LINE",
"80 40 LINE",
"80 80 LINE",
"40 80 LINE"
);
},
{
closed = 1;
nodes = (
"0 80 LINE",
"40 80 LINE",
"40 200 LINE",
"0 200 LINE"
);
},
{
closed = 1;
nodes = (
"80 0 LINE",
"200 0 LINE",
"200 40 LINE",
"80 40 LINE"
);
},
{
closed = 1;
nodes = (
"40 200 LINE",
"80 200 LINE",
"80 240 LINE",
"40 240 LINE"
);
},
{
closed = 1;
nodes = (
"160 80 LINE",
"200 80 LINE",
"200 120 LINE",
"160 120 LINE"
);
},
{
closed = 1;
nodes = (
"200 40 LINE",
"240 40 LINE",
"240 80 LINE",
"200 80 LINE"
);
},
{
closed = 1;
nodes = (
"240 0 LINE",
"280 0 LINE",
"280 40 LINE",
"240 40 LINE"
);
},
{
closed = 1;
nodes = (
"240 80 LINE",
"280 80 LINE",
"280 200 LINE",
"240 200 LINE"
);
},
{
closed = 1;
nodes = (
"200 200 LINE",
"240 200 LINE",
"240 240 LINE",
"200 240 LINE"
);
}
);
width = 320;
}
);
note = Q;
unicode = 0051;
},
{
glyphname = R;
lastChange = "2017-07-22 05:54:05 +0000";
layers = (
{
layerId = "364DB8B9-29FE-4011-8AFD-DD56313284DA";
paths = (
{
closed = 1;
nodes = (
"0 0 LINE",
"40 0 LINE",
"40 120 LINE",
"160 120 LINE",
"160 80 LINE",
"200 80 LINE",
"200 120 LINE",
"240 120 LINE",
"240 160 LINE",
"40 160 LINE",
"40 240 LINE",
"240 240 LINE",
"240 280 LINE",
"0 280 LINE"
);
},
{
closed = 1;
nodes = (
"200 40 LINE",
"240 40 LINE",
"240 80 LINE",
"200 80 LINE"
);
},
{
closed = 1;
nodes = (
"240 0 LINE",
"280 0 LINE",
"280 40 LINE",
"240 40 LINE"
);
},
{
closed = 1;
nodes = (
"240 160 LINE",
"280 160 LINE",
"280 240 LINE",
"240 240 LINE"
);
}
);
width = 320;
}
);
note = R;
unicode = 0052;
},
{
glyphname = S;
lastChange = "2017-07-22 05:54:05 +0000";
layers = (
{
layerId = "364DB8B9-29FE-4011-8AFD-DD56313284DA";
paths = (
{
closed = 1;
nodes = (
"40 120 LINE",
"240 120 LINE",
"240 160 LINE",
"40 160 LINE"
);
},
{
closed = 1;
nodes = (
"0 40 LINE",
"40 40 LINE",
"40 80 LINE",
"0 80 LINE"
);
},
{
closed = 1;
nodes = (
"40 0 LINE",
"240 0 LINE",
"240 40 LINE",
"40 40 LINE"
);
},
{
closed = 1;
nodes = (
"0 160 LINE",
"40 160 LINE",
"40 240 LINE",
"0 240 LINE"
);
},
{
closed = 1;
nodes = (
"240 40 LINE",
"280 40 LINE",
"280 120 LINE",
"240 120 LINE"
);
},
{
closed = 1;
nodes = (
"40 240 LINE",
"200 240 LINE",
"200 280 LINE",
"40 280 LINE"
);
},
{
closed = 1;
nodes = (
"200 200 LINE",
"240 200 LINE",
"240 240 LINE",
"200 240 LINE"
);
}
);
width = 320;
}
);
note = S;
unicode = 0053;
},
{
glyphname = T;
lastChange = "2017-07-22 05:54:05 +0000";
layers = (
{
layerId = "364DB8B9-29FE-4011-8AFD-DD56313284DA";
paths = (
{
closed = 1;
nodes = (
"120 0 LINE",
"160 0 LINE",
"160 240 LINE",
"280 240 LINE",
"280 280 LINE",
"0 280 LINE",
"0 240 LINE",
"120 240 LINE"
);
}
);
width = 320;
}
);
note = T;
unicode = 0054;
},
{
glyphname = U;
lastChange = "2017-07-22 05:54:05 +0000";
layers = (
{
layerId = "364DB8B9-29FE-4011-8AFD-DD56313284DA";
paths = (
{
closed = 1;
nodes = (
"80 0 LINE",
"280 0 LINE",
"280 280 LINE",
"240 280 LINE",
"240 40 LINE",
"80 40 LINE"
);
},
{
closed = 1;
nodes = (
"40 40 LINE",
"80 40 LINE",
"80 80 LINE",
"40 80 LINE"
);
},
{
closed = 1;
nodes = (
"0 80 LINE",
"40 80 LINE",
"40 280 LINE",
"0 280 LINE"
);
}
);
width = 320;
}
);
note = U;
unicode = 0055;
},
{
glyphname = Uacute;
lastChange = "2017-07-22 05:54:05 +0000";
layers = (
{
layerId = "364DB8B9-29FE-4011-8AFD-DD56313284DA";
paths = (
{
closed = 1;
nodes = (
"80 0 LINE",
"280 0 LINE",
"280 200 LINE",
"240 200 LINE",
"240 40 LINE",
"80 40 LINE"
);
},
{
closed = 1;
nodes = (
"40 40 LINE",
"80 40 LINE",
"80 80 LINE",
"40 80 LINE"
);
},
{
closed = 1;
nodes = (
"0 80 LINE",
"40 80 LINE",
"40 200 LINE",
"0 200 LINE"
);
},
{
closed = 1;
nodes = (
"80 200 LINE",
"120 200 LINE",
"120 240 LINE",
"80 240 LINE"
);
},
{
closed = 1;
nodes = (
"120 240 LINE",
"160 240 LINE",
"160 280 LINE",
"120 280 LINE"
);
}
);
width = 320;
}
);
note = Uacute;
unicode = 00DA;
},
{
glyphname = Ucircumflex;
lastChange = "2017-07-22 05:54:05 +0000";
layers = (
{
layerId = "364DB8B9-29FE-4011-8AFD-DD56313284DA";
paths = (
{
closed = 1;
nodes = (
"80 0 LINE",
"280 0 LINE",
"280 200 LINE",
"240 200 LINE",
"240 40 LINE",
"80 40 LINE"
);
},
{
closed = 1;
nodes = (
"40 40 LINE",
"80 40 LINE",
"80 80 LINE",
"40 80 LINE"
);
},
{
closed = 1;
nodes = (
"0 80 LINE",
"40 80 LINE",
"40 200 LINE",
"0 200 LINE"
);
},
{
closed = 1;
nodes = (
"120 240 LINE",
"160 240 LINE",
"160 280 LINE",
"120 280 LINE"
);
},
{
closed = 1;
nodes = (
"80 200 LINE",
"120 200 LINE",
"120 240 LINE",
"80 240 LINE"
);
},
{
closed = 1;
nodes = (
"160 200 LINE",
"200 200 LINE",
"200 240 LINE",
"160 240 LINE"
);
}
);
width = 320;
}
);
note = Ucircumflex;
unicode = 00DB;
},
{
glyphname = Udieresis;
lastChange = "2017-07-22 05:54:05 +0000";
layers = (
{
layerId = "364DB8B9-29FE-4011-8AFD-DD56313284DA";
paths = (
{
closed = 1;
nodes = (
"80 0 LINE",
"280 0 LINE",
"280 200 LINE",
"240 200 LINE",
"240 40 LINE",
"80 40 LINE"
);
},
{
closed = 1;
nodes = (
"40 40 LINE",
"80 40 LINE",
"80 80 LINE",
"40 80 LINE"
);
},
{
closed = 1;
nodes = (
"0 80 LINE",
"40 80 LINE",
"40 200 LINE",
"0 200 LINE"
);
},
{
closed = 1;
nodes = (
"80 240 LINE",
"120 240 LINE",
"120 280 LINE",
"80 280 LINE"
);
},
{
closed = 1;
nodes = (
"160 240 LINE",
"200 240 LINE",
"200 280 LINE",
"160 280 LINE"
);
}
);
width = 320;
}
);
note = Udieresis;
unicode = 00DC;
},
{
glyphname = Ugrave;
lastChange = "2017-07-22 05:54:05 +0000";
layers = (
{
layerId = "364DB8B9-29FE-4011-8AFD-DD56313284DA";
paths = (
{
closed = 1;
nodes = (
"80 0 LINE",
"280 0 LINE",
"280 200 LINE",
"240 200 LINE",
"240 40 LINE",
"80 40 LINE"
);
},
{
closed = 1;
nodes = (
"40 40 LINE",
"80 40 LINE",
"80 80 LINE",
"40 80 LINE"
);
},
{
closed = 1;
nodes = (
"0 80 LINE",
"40 80 LINE",
"40 200 LINE",
"0 200 LINE"
);
},
{
closed = 1;
nodes = (
"120 240 LINE",
"160 240 LINE",
"160 280 LINE",
"120 280 LINE"
);
},
{
closed = 1;
nodes = (
"160 200 LINE",
"200 200 LINE",
"200 240 LINE",
"160 240 LINE"
);
}
);
width = 320;
}
);
note = Ugrave;
unicode = 00D9;
},
{
glyphname = V;
lastChange = "2017-07-22 05:54:05 +0000";
layers = (
{
layerId = "364DB8B9-29FE-4011-8AFD-DD56313284DA";
paths = (
{
closed = 1;
nodes = (
"240 200 LINE",
"280 200 LINE",
"280 280 LINE",
"240 280 LINE"
);
},
{
closed = 1;
nodes = (
"120 0 LINE",
"160 0 LINE",
"160 40 LINE",
"120 40 LINE"
);
},
{
closed = 1;
nodes = (
"80 40 LINE",
"120 40 LINE",
"120 120 LINE",
"80 120 LINE"
);
},
{
closed = 1;
nodes = (
"40 120 LINE",
"80 120 LINE",
"80 200 LINE",
"40 200 LINE"
);
},
{
closed = 1;
nodes = (
"0 200 LINE",
"40 200 LINE",
"40 280 LINE",
"0 280 LINE"
);
},
{
closed = 1;
nodes = (
"160 40 LINE",
"200 40 LINE",
"200 120 LINE",
"160 120 LINE"
);
},
{
closed = 1;
nodes = (
"200 120 LINE",
"240 120 LINE",
"240 200 LINE",
"200 200 LINE"
);
}
);
width = 320;
}
);
note = V;
unicode = 0056;
},
{
glyphname = W;
lastChange = "2017-07-22 05:54:05 +0000";
layers = (
{
layerId = "364DB8B9-29FE-4011-8AFD-DD56313284DA";
paths = (
{
closed = 1;
nodes = (
"240 0 LINE",
"280 0 LINE",
"280 280 LINE",
"240 280 LINE",
"240 120 LINE",
"200 120 LINE",
"200 40 LINE",
"240 40 LINE"
);
},
{
closed = 1;
nodes = (
"0 0 LINE",
"40 0 LINE",
"40 40 LINE",
"80 40 LINE",
"80 120 LINE",
"40 120 LINE",
"40 280 LINE",
"0 280 LINE"
);
},
{
closed = 1;
nodes = (
"80 120 LINE",
"120 120 LINE",
"120 200 LINE",
"80 200 LINE"
);
},
{
closed = 1;
nodes = (
"160 120 LINE",
"200 120 LINE",
"200 200 LINE",
"160 200 LINE"
);
},
{
closed = 1;
nodes = (
"120 200 LINE",
"160 200 LINE",
"160 240 LINE",
"120 240 LINE"
);
}
);
width = 320;
}
);
note = W;
unicode = 0057;
},
{
glyphname = Wacute;
lastChange = "2017-07-22 05:54:05 +0000";
layers = (
{
layerId = "364DB8B9-29FE-4011-8AFD-DD56313284DA";
paths = (
{
closed = 1;
nodes = (
"240 0 LINE",
"280 0 LINE",
"280 200 LINE",
"240 200 LINE",
"240 80 LINE",
"200 80 LINE",
"200 40 LINE",
"240 40 LINE"
);
},
{
closed = 1;
nodes = (
"0 0 LINE",
"40 0 LINE",
"40 40 LINE",
"80 40 LINE",
"80 80 LINE",
"40 80 LINE",
"40 200 LINE",
"0 200 LINE"
);
},
{
closed = 1;
nodes = (
"80 80 LINE",
"120 80 LINE",
"120 120 LINE",
"80 120 LINE"
);
},
{
closed = 1;
nodes = (
"120 120 LINE",
"160 120 LINE",
"160 160 LINE",
"120 160 LINE"
);
},
{
closed = 1;
nodes = (
"160 80 LINE",
"200 80 LINE",
"200 120 LINE",
"160 120 LINE"
);
},
{
closed = 1;
nodes = (
"160 240 LINE",
"200 240 LINE",
"200 280 LINE",
"160 280 LINE"
);
},
{
closed = 1;
nodes = (
"120 200 LINE",
"160 200 LINE",
"160 240 LINE",
"120 240 LINE"
);
}
);
width = 320;
}
);
note = Wacute;
unicode = 1E82;
},
{
glyphname = Wcircumflex;
lastChange = "2017-07-22 05:54:05 +0000";
layers = (
{
layerId = "364DB8B9-29FE-4011-8AFD-DD56313284DA";
paths = (
{
closed = 1;
nodes = (
"240 0 LINE",
"280 0 LINE",
"280 200 LINE",
"240 200 LINE",
"240 80 LINE",
"200 80 LINE",
"200 40 LINE",
"240 40 LINE"
);
},
{
closed = 1;
nodes = (
"0 0 LINE",
"40 0 LINE",
"40 40 LINE",
"80 40 LINE",
"80 80 LINE",
"40 80 LINE",
"40 200 LINE",
"0 200 LINE"
);
},
{
closed = 1;
nodes = (
"80 80 LINE",
"120 80 LINE",
"120 120 LINE",
"80 120 LINE"
);
},
{
closed = 1;
nodes = (
"120 120 LINE",
"160 120 LINE",
"160 160 LINE",
"120 160 LINE"
);
},
{
closed = 1;
nodes = (
"160 80 LINE",
"200 80 LINE",
"200 120 LINE",
"160 120 LINE"
);
},
{
closed = 1;
nodes = (
"120 240 LINE",
"160 240 LINE",
"160 280 LINE",
"120 280 LINE"
);
},
{
closed = 1;
nodes = (
"80 200 LINE",
"120 200 LINE",
"120 240 LINE",
"80 240 LINE"
);
},
{
closed = 1;
nodes = (
"160 200 LINE",
"200 200 LINE",
"200 240 LINE",
"160 240 LINE"
);
}
);
width = 320;
}
);
note = Wcircumflex;
unicode = 0174;
},
{
glyphname = Wdieresis;
lastChange = "2017-07-22 05:54:05 +0000";
layers = (
{
layerId = "364DB8B9-29FE-4011-8AFD-DD56313284DA";
paths = (
{
closed = 1;
nodes = (
"240 0 LINE",
"280 0 LINE",
"280 200 LINE",
"240 200 LINE",
"240 80 LINE",
"200 80 LINE",
"200 40 LINE",
"240 40 LINE"
);
},
{
closed = 1;
nodes = (
"0 0 LINE",
"40 0 LINE",
"40 40 LINE",
"80 40 LINE",
"80 80 LINE",
"40 80 LINE",
"40 200 LINE",
"0 200 LINE"
);
},
{
closed = 1;
nodes = (
"80 80 LINE",
"120 80 LINE",
"120 120 LINE",
"80 120 LINE"
);
},
{
closed = 1;
nodes = (
"120 120 LINE",
"160 120 LINE",
"160 160 LINE",
"120 160 LINE"
);
},
{
closed = 1;
nodes = (
"160 80 LINE",
"200 80 LINE",
"200 120 LINE",
"160 120 LINE"
);
},
{
closed = 1;
nodes = (
"160 240 LINE",
"200 240 LINE",
"200 280 LINE",
"160 280 LINE"
);
},
{
closed = 1;
nodes = (
"80 240 LINE",
"120 240 LINE",
"120 280 LINE",
"80 280 LINE"
);
}
);
width = 320;
}
);
note = Wdieresis;
unicode = 1E84;
},
{
glyphname = Wgrave;
lastChange = "2017-07-22 05:54:05 +0000";
layers = (
{
layerId = "364DB8B9-29FE-4011-8AFD-DD56313284DA";
paths = (
{
closed = 1;
nodes = (
"240 0 LINE",
"280 0 LINE",
"280 200 LINE",
"240 200 LINE",
"240 80 LINE",
"200 80 LINE",
"200 40 LINE",
"240 40 LINE"
);
},
{
closed = 1;
nodes = (
"0 0 LINE",
"40 0 LINE",
"40 40 LINE",
"80 40 LINE",
"80 80 LINE",
"40 80 LINE",
"40 200 LINE",
"0 200 LINE"
);
},
{
closed = 1;
nodes = (
"80 80 LINE",
"120 80 LINE",
"120 120 LINE",
"80 120 LINE"
);
},
{
closed = 1;
nodes = (
"120 120 LINE",
"160 120 LINE",
"160 160 LINE",
"120 160 LINE"
);
},
{
closed = 1;
nodes = (
"160 80 LINE",
"200 80 LINE",
"200 120 LINE",
"160 120 LINE"
);
},
{
closed = 1;
nodes = (
"80 240 LINE",
"120 240 LINE",
"120 280 LINE",
"80 280 LINE"
);
},
{
closed = 1;
nodes = (
"120 200 LINE",
"160 200 LINE",
"160 240 LINE",
"120 240 LINE"
);
}
);
width = 320;
}
);
note = Wgrave;
unicode = 1E80;
},
{
glyphname = X;
lastChange = "2017-07-22 05:54:05 +0000";
layers = (
{
layerId = "364DB8B9-29FE-4011-8AFD-DD56313284DA";
paths = (
{
closed = 1;
nodes = (
"200 200 LINE",
"240 200 LINE",
"240 240 LINE",
"280 240 LINE",
"280 280 LINE",
"200 280 LINE"
);
},
{
closed = 1;
nodes = (
"0 0 LINE",
"80 0 LINE",
"80 80 LINE",
"40 80 LINE",
"40 40 LINE",
"0 40 LINE"
);
},
{
closed = 1;
nodes = (
"80 80 LINE",
"120 80 LINE",
"120 120 LINE",
"80 120 LINE"
);
},
{
closed = 1;
nodes = (
"40 200 LINE",
"80 200 LINE",
"80 280 LINE",
"0 280 LINE",
"0 240 LINE",
"40 240 LINE"
);
},
{
closed = 1;
nodes = (
"80 160 LINE",
"120 160 LINE",
"120 200 LINE",
"80 200 LINE"
);
},
{
closed = 1;
nodes = (
"120 120 LINE",
"160 120 LINE",
"160 160 LINE",
"120 160 LINE"
);
},
{
closed = 1;
nodes = (
"160 80 LINE",
"200 80 LINE",
"200 120 LINE",
"160 120 LINE"
);
},
{
closed = 1;
nodes = (
"200 0 LINE",
"280 0 LINE",
"280 40 LINE",
"240 40 LINE",
"240 80 LINE",
"200 80 LINE"
);
},
{
closed = 1;
nodes = (
"160 160 LINE",
"200 160 LINE",
"200 200 LINE",
"160 200 LINE"
);
}
);
width = 320;
}
);
note = X;
unicode = 0058;
},
{
glyphname = Y;
lastChange = "2017-07-22 05:54:05 +0000";
layers = (
{
layerId = "364DB8B9-29FE-4011-8AFD-DD56313284DA";
paths = (
{
closed = 1;
nodes = (
"120 0 LINE",
"160 0 LINE",
"160 160 LINE",
"120 160 LINE"
);
},
{
closed = 1;
nodes = (
"0 240 LINE",
"40 240 LINE",
"40 280 LINE",
"0 280 LINE"
);
},
{
closed = 1;
nodes = (
"40 200 LINE",
"80 200 LINE",
"80 240 LINE",
"40 240 LINE"
);
},
{
closed = 1;
nodes = (
"80 160 LINE",
"120 160 LINE",
"120 200 LINE",
"80 200 LINE"
);
},
{
closed = 1;
nodes = (
"160 160 LINE",
"200 160 LINE",
"200 200 LINE",
"160 200 LINE"
);
},
{
closed = 1;
nodes = (
"200 200 LINE",
"240 200 LINE",
"240 240 LINE",
"200 240 LINE"
);
},
{
closed = 1;
nodes = (
"240 240 LINE",
"280 240 LINE",
"280 280 LINE",
"240 280 LINE"
);
}
);
width = 320;
}
);
note = Y;
unicode = 0059;
},
{
glyphname = Yacute;
lastChange = "2017-07-22 05:54:05 +0000";
layers = (
{
layerId = "364DB8B9-29FE-4011-8AFD-DD56313284DA";
paths = (
{
closed = 1;
nodes = (
"120 0 LINE",
"160 0 LINE",
"160 120 LINE",
"120 120 LINE"
);
},
{
closed = 1;
nodes = (
"0 200 LINE",
"40 200 LINE",
"40 240 LINE",
"0 240 LINE"
);
},
{
closed = 1;
nodes = (
"40 160 LINE",
"80 160 LINE",
"80 200 LINE",
"40 200 LINE"
);
},
{
closed = 1;
nodes = (
"80 120 LINE",
"120 120 LINE",
"120 160 LINE",
"80 160 LINE"
);
},
{
closed = 1;
nodes = (
"160 120 LINE",
"200 120 LINE",
"200 160 LINE",
"160 160 LINE"
);
},
{
closed = 1;
nodes = (
"200 160 LINE",
"240 160 LINE",
"240 200 LINE",
"200 200 LINE"
);
},
{
closed = 1;
nodes = (
"240 200 LINE",
"280 200 LINE",
"280 240 LINE",
"240 240 LINE"
);
},
{
closed = 1;
nodes = (
"160 240 LINE",
"200 240 LINE",
"200 280 LINE",
"160 280 LINE"
);
},
{
closed = 1;
nodes = (
"120 200 LINE",
"160 200 LINE",
"160 240 LINE",
"120 240 LINE"
);
}
);
width = 320;
}
);
note = Yacute;
unicode = 00DD;
},
{
glyphname = Ycircumflex;
lastChange = "2017-07-22 05:54:05 +0000";
layers = (
{
layerId = "364DB8B9-29FE-4011-8AFD-DD56313284DA";
paths = (
{
closed = 1;
nodes = (
"120 0 LINE",
"160 0 LINE",
"160 120 LINE",
"120 120 LINE"
);
},
{
closed = 1;
nodes = (
"0 200 LINE",
"40 200 LINE",
"40 240 LINE",
"0 240 LINE"
);
},
{
closed = 1;
nodes = (
"40 160 LINE",
"80 160 LINE",
"80 200 LINE",
"40 200 LINE"
);
},
{
closed = 1;
nodes = (
"80 120 LINE",
"120 120 LINE",
"120 160 LINE",
"80 160 LINE"
);
},
{
closed = 1;
nodes = (
"160 120 LINE",
"200 120 LINE",
"200 160 LINE",
"160 160 LINE"
);
},
{
closed = 1;
nodes = (
"200 160 LINE",
"240 160 LINE",
"240 200 LINE",
"200 200 LINE"
);
},
{
closed = 1;
nodes = (
"240 200 LINE",
"280 200 LINE",
"280 240 LINE",
"240 240 LINE"
);
},
{
closed = 1;
nodes = (
"120 240 LINE",
"160 240 LINE",
"160 280 LINE",
"120 280 LINE"
);
},
{
closed = 1;
nodes = (
"80 200 LINE",
"120 200 LINE",
"120 240 LINE",
"80 240 LINE"
);
},
{
closed = 1;
nodes = (
"160 200 LINE",
"200 200 LINE",
"200 240 LINE",
"160 240 LINE"
);
}
);
width = 320;
}
);
note = Ycircumflex;
unicode = 0176;
},
{
glyphname = Ydieresis;
lastChange = "2017-07-22 05:54:05 +0000";
layers = (
{
layerId = "364DB8B9-29FE-4011-8AFD-DD56313284DA";
paths = (
{
closed = 1;
nodes = (
"120 0 LINE",
"160 0 LINE",
"160 120 LINE",
"120 120 LINE"
);
},
{
closed = 1;
nodes = (
"0 200 LINE",
"40 200 LINE",
"40 240 LINE",
"0 240 LINE"
);
},
{
closed = 1;
nodes = (
"40 160 LINE",
"80 160 LINE",
"80 200 LINE",
"40 200 LINE"
);
},
{
closed = 1;
nodes = (
"80 120 LINE",
"120 120 LINE",
"120 160 LINE",
"80 160 LINE"
);
},
{
closed = 1;
nodes = (
"160 120 LINE",
"200 120 LINE",
"200 160 LINE",
"160 160 LINE"
);
},
{
closed = 1;
nodes = (
"200 160 LINE",
"240 160 LINE",
"240 200 LINE",
"200 200 LINE"
);
},
{
closed = 1;
nodes = (
"240 200 LINE",
"280 200 LINE",
"280 240 LINE",
"240 240 LINE"
);
},
{
closed = 1;
nodes = (
"160 240 LINE",
"200 240 LINE",
"200 280 LINE",
"160 280 LINE"
);
},
{
closed = 1;
nodes = (
"80 240 LINE",
"120 240 LINE",
"120 280 LINE",
"80 280 LINE"
);
}
);
width = 320;
}
);
note = Ydieresis;
unicode = 0178;
},
{
glyphname = Ygrave;
lastChange = "2017-07-22 05:54:05 +0000";
layers = (
{
layerId = "364DB8B9-29FE-4011-8AFD-DD56313284DA";
paths = (
{
closed = 1;
nodes = (
"120 0 LINE",
"160 0 LINE",
"160 120 LINE",
"120 120 LINE"
);
},
{
closed = 1;
nodes = (
"0 200 LINE",
"40 200 LINE",
"40 240 LINE",
"0 240 LINE"
);
},
{
closed = 1;
nodes = (
"40 160 LINE",
"80 160 LINE",
"80 200 LINE",
"40 200 LINE"
);
},
{
closed = 1;
nodes = (
"80 120 LINE",
"120 120 LINE",
"120 160 LINE",
"80 160 LINE"
);
},
{
closed = 1;
nodes = (
"160 120 LINE",
"200 120 LINE",
"200 160 LINE",
"160 160 LINE"
);
},
{
closed = 1;
nodes = (
"200 160 LINE",
"240 160 LINE",
"240 200 LINE",
"200 200 LINE"
);
},
{
closed = 1;
nodes = (
"240 200 LINE",
"280 200 LINE",
"280 240 LINE",
"240 240 LINE"
);
},
{
closed = 1;
nodes = (
"80 240 LINE",
"120 240 LINE",
"120 280 LINE",
"80 280 LINE"
);
},
{
closed = 1;
nodes = (
"120 200 LINE",
"160 200 LINE",
"160 240 LINE",
"120 240 LINE"
);
}
);
width = 320;
}
);
note = Ygrave;
unicode = 1EF2;
},
{
glyphname = Z;
lastChange = "2017-07-22 05:54:05 +0000";
layers = (
{
layerId = "364DB8B9-29FE-4011-8AFD-DD56313284DA";
paths = (
{
closed = 1;
nodes = (
"200 200 LINE",
"240 200 LINE",
"240 240 LINE",
"280 240 LINE",
"280 280 LINE",
"0 280 LINE",
"0 240 LINE",
"200 240 LINE"
);
},
{
closed = 1;
nodes = (
"0 0 LINE",
"280 0 LINE",
"280 40 LINE",
"80 40 LINE",
"80 80 LINE",
"40 80 LINE",
"40 40 LINE",
"0 40 LINE"
);
},
{
closed = 1;
nodes = (
"80 80 LINE",
"120 80 LINE",
"120 120 LINE",
"80 120 LINE"
);
},
{
closed = 1;
nodes = (
"120 120 LINE",
"160 120 LINE",
"160 160 LINE",
"120 160 LINE"
);
},
{
closed = 1;
nodes = (
"160 160 LINE",
"200 160 LINE",
"200 200 LINE",
"160 200 LINE"
);
}
);
width = 320;
}
);
note = Z;
unicode = 005A;
},
{
glyphname = a;
lastChange = "2017-07-22 05:54:05 +0000";
layers = (
{
layerId = "364DB8B9-29FE-4011-8AFD-DD56313284DA";
paths = (
{
closed = 1;
nodes = (
"80 0 LINE",
"280 0 LINE",
"280 40 LINE",
"240 40 LINE",
"240 160 LINE",
"200 160 LINE",
"200 120 LINE",
"80 120 LINE",
"80 80 LINE",
"200 80 LINE",
"200 40 LINE",
"80 40 LINE"
);
},
{
closed = 1;
nodes = (
"40 40 LINE",
"80 40 LINE",
"80 80 LINE",
"40 80 LINE"
);
},
{
closed = 1;
nodes = (
"80 160 LINE",
"200 160 LINE",
"200 200 LINE",
"80 200 LINE"
);
}
);
width = 320;
}
);
note = a;
unicode = 0061;
},
{
glyphname = aacute;
lastChange = "2017-07-22 05:54:05 +0000";
layers = (
{
layerId = "364DB8B9-29FE-4011-8AFD-DD56313284DA";
paths = (
{
closed = 1;
nodes = (
"80 0 LINE",
"280 0 LINE",
"280 40 LINE",
"240 40 LINE",
"240 160 LINE",
"200 160 LINE",
"200 120 LINE",
"80 120 LINE",
"80 80 LINE",
"200 80 LINE",
"200 40 LINE",
"80 40 LINE"
);
},
{
closed = 1;
nodes = (
"40 40 LINE",
"80 40 LINE",
"80 80 LINE",
"40 80 LINE"
);
},
{
closed = 1;
nodes = (
"80 160 LINE",
"200 160 LINE",
"200 200 LINE",
"160 200 LINE",
"160 240 LINE",
"120 240 LINE",
"120 200 LINE",
"80 200 LINE"
);
},
{
closed = 1;
nodes = (
"160 240 LINE",
"200 240 LINE",
"200 280 LINE",
"160 280 LINE"
);
}
);
width = 320;
}
);
note = aacute;
unicode = 00E1;
},
{
glyphname = acircumflex;
lastChange = "2017-07-22 05:54:05 +0000";
layers = (
{
layerId = "364DB8B9-29FE-4011-8AFD-DD56313284DA";
paths = (
{
closed = 1;
nodes = (
"80 0 LINE",
"280 0 LINE",
"280 40 LINE",
"240 40 LINE",
"240 160 LINE",
"200 160 LINE",
"200 120 LINE",
"80 120 LINE",
"80 80 LINE",
"200 80 LINE",
"200 40 LINE",
"80 40 LINE"
);
},
{
closed = 1;
nodes = (
"40 40 LINE",
"80 40 LINE",
"80 80 LINE",
"40 80 LINE"
);
},
{
closed = 1;
nodes = (
"80 160 LINE",
"200 160 LINE",
"200 240 LINE",
"160 240 LINE",
"160 200 LINE",
"120 200 LINE",
"120 240 LINE",
"80 240 LINE"
);
},
{
closed = 1;
nodes = (
"120 240 LINE",
"160 240 LINE",
"160 280 LINE",
"120 280 LINE"
);
}
);
width = 320;
}
);
note = acircumflex;
unicode = 00E2;
},
{
glyphname = adieresis;
lastChange = "2017-07-22 05:54:05 +0000";
layers = (
{
layerId = "364DB8B9-29FE-4011-8AFD-DD56313284DA";
paths = (
{
closed = 1;
nodes = (
"80 0 LINE",
"280 0 LINE",
"280 40 LINE",
"240 40 LINE",
"240 160 LINE",
"200 160 LINE",
"200 120 LINE",
"80 120 LINE",
"80 80 LINE",
"200 80 LINE",
"200 40 LINE",
"80 40 LINE"
);
},
{
closed = 1;
nodes = (
"40 40 LINE",
"80 40 LINE",
"80 80 LINE",
"40 80 LINE"
);
},
{
closed = 1;
nodes = (
"80 160 LINE",
"200 160 LINE",
"200 200 LINE",
"80 200 LINE"
);
},
{
closed = 1;
nodes = (
"80 240 LINE",
"120 240 LINE",
"120 280 LINE",
"80 280 LINE"
);
},
{
closed = 1;
nodes = (
"160 240 LINE",
"200 240 LINE",
"200 280 LINE",
"160 280 LINE"
);
}
);
width = 320;
}
);
note = adieresis;
unicode = 00E4;
},
{
glyphname = agrave;
lastChange = "2017-07-22 05:54:05 +0000";
layers = (
{
layerId = "364DB8B9-29FE-4011-8AFD-DD56313284DA";
paths = (
{
closed = 1;
nodes = (
"80 0 LINE",
"280 0 LINE",
"280 40 LINE",
"240 40 LINE",
"240 160 LINE",
"200 160 LINE",
"200 120 LINE",
"80 120 LINE",
"80 80 LINE",
"200 80 LINE",
"200 40 LINE",
"80 40 LINE"
);
},
{
closed = 1;
nodes = (
"40 40 LINE",
"80 40 LINE",
"80 80 LINE",
"40 80 LINE"
);
},
{
closed = 1;
nodes = (
"80 160 LINE",
"200 160 LINE",
"200 200 LINE",
"160 200 LINE",
"160 240 LINE",
"120 240 LINE",
"120 200 LINE",
"80 200 LINE"
);
},
{
closed = 1;
nodes = (
"80 240 LINE",
"120 240 LINE",
"120 280 LINE",
"80 280 LINE"
);
}
);
width = 320;
}
);
note = agrave;
unicode = 00E0;
},
{
glyphname = aring;
lastChange = "2017-07-22 05:54:05 +0000";
layers = (
{
layerId = "364DB8B9-29FE-4011-8AFD-DD56313284DA";
paths = (
{
closed = 1;
nodes = (
"80 0 LINE",
"280 0 LINE",
"280 40 LINE",
"240 40 LINE",
"240 160 LINE",
"200 160 LINE",
"200 120 LINE",
"80 120 LINE",
"80 80 LINE",
"200 80 LINE",
"200 40 LINE",
"80 40 LINE"
);
},
{
closed = 1;
nodes = (
"40 40 LINE",
"80 40 LINE",
"80 80 LINE",
"40 80 LINE"
);
},
{
closed = 1;
nodes = (
"80 160 LINE",
"200 160 LINE",
"200 200 LINE",
"80 200 LINE"
);
},
{
closed = 1;
nodes = (
"120 240 LINE",
"160 240 LINE",
"160 280 LINE",
"120 280 LINE"
);
},
{
closed = 1;
nodes = (
"80 200 LINE",
"120 200 LINE",
"120 240 LINE",
"80 240 LINE"
);
},
{
closed = 1;
nodes = (
"120 160 LINE",
"160 160 LINE",
"160 200 LINE",
"120 200 LINE"
);
},
{
closed = 1;
nodes = (
"160 200 LINE",
"200 200 LINE",
"200 240 LINE",
"160 240 LINE"
);
}
);
width = 320;
}
);
note = aring;
unicode = 00E5;
},
{
glyphname = atilde;
lastChange = "2017-07-22 05:54:05 +0000";
layers = (
{
layerId = "364DB8B9-29FE-4011-8AFD-DD56313284DA";
paths = (
{
closed = 1;
nodes = (
"80 0 LINE",
"280 0 LINE",
"280 40 LINE",
"240 40 LINE",
"240 160 LINE",
"200 160 LINE",
"200 120 LINE",
"80 120 LINE",
"80 80 LINE",
"200 80 LINE",
"200 40 LINE",
"80 40 LINE"
);
},
{
closed = 1;
nodes = (
"40 40 LINE",
"80 40 LINE",
"80 80 LINE",
"40 80 LINE"
);
},
{
closed = 1;
nodes = (
"80 160 LINE",
"200 160 LINE",
"200 200 LINE",
"80 200 LINE"
);
},
{
closed = 1;
nodes = (
"160 200 LINE",
"240 200 LINE",
"240 240 LINE",
"160 240 LINE"
);
},
{
closed = 1;
nodes = (
"40 200 LINE",
"80 200 LINE",
"80 240 LINE",
"40 240 LINE"
);
},
{
closed = 1;
nodes = (
"80 240 LINE",
"160 240 LINE",
"160 280 LINE",
"80 280 LINE"
);
},
{
closed = 1;
nodes = (
"240 240 LINE",
"280 240 LINE",
"280 280 LINE",
"240 280 LINE"
);
}
);
width = 320;
}
);
note = atilde;
unicode = 00E3;
},
{
glyphname = ae;
lastChange = "2017-07-22 05:54:05 +0000";
layers = (
{
layerId = "364DB8B9-29FE-4011-8AFD-DD56313284DA";
paths = (
{
closed = 1;
nodes = (
"80 0 LINE",
"280 0 LINE",
"280 40 LINE",
"200 40 LINE",
"200 80 LINE",
"280 80 LINE",
"280 160 LINE",
"240 160 LINE",
"240 120 LINE",
"200 120 LINE",
"200 160 LINE",
"160 160 LINE",
"160 120 LINE",
"80 120 LINE",
"80 80 LINE",
"160 80 LINE",
"160 40 LINE",
"80 40 LINE"
);
},
{
closed = 1;
nodes = (
"40 40 LINE",
"80 40 LINE",
"80 80 LINE",
"40 80 LINE"
);
},
{
closed = 1;
nodes = (
"80 160 LINE",
"160 160 LINE",
"160 200 LINE",
"80 200 LINE"
);
},
{
closed = 1;
nodes = (
"200 160 LINE",
"240 160 LINE",
"240 200 LINE",
"200 200 LINE"
);
}
);
width = 320;
}
);
note = ae;
unicode = 00E6;
},
{
glyphname = b;
lastChange = "2017-07-22 05:54:05 +0000";
layers = (
{
layerId = "364DB8B9-29FE-4011-8AFD-DD56313284DA";
paths = (
{
closed = 1;
nodes = (
"40 0 LINE",
"240 0 LINE",
"240 40 LINE",
"80 40 LINE",
"80 120 LINE",
"240 120 LINE",
"240 160 LINE",
"80 160 LINE",
"80 280 LINE",
"40 280 LINE"
);
},
{
closed = 1;
nodes = (
"240 40 LINE",
"280 40 LINE",
"280 120 LINE",
"240 120 LINE"
);
}
);
width = 320;
}
);
note = b;
unicode = 0062;
},
{
glyphname = c;
lastChange = "2017-07-22 05:54:05 +0000";
layers = (
{
layerId = "364DB8B9-29FE-4011-8AFD-DD56313284DA";
paths = (
{
closed = 1;
nodes = (
"80 160 LINE",
"240 160 LINE",
"240 200 LINE",
"80 200 LINE"
);
},
{
closed = 1;
nodes = (
"40 40 LINE",
"80 40 LINE",
"80 160 LINE",
"40 160 LINE"
);
},
{
closed = 1;
nodes = (
"80 0 LINE",
"240 0 LINE",
"240 40 LINE",
"80 40 LINE"
);
},
{
closed = 1;
nodes = (
"240 40 LINE",
"280 40 LINE",
"280 80 LINE",
"240 80 LINE"
);
},
{
closed = 1;
nodes = (
"240 120 LINE",
"280 120 LINE",
"280 160 LINE",
"240 160 LINE"
);
}
);
width = 320;
}
);
note = c;
unicode = 0063;
},
{
glyphname = ccedilla;
lastChange = "2017-07-22 05:54:05 +0000";
layers = (
{
layerId = "364DB8B9-29FE-4011-8AFD-DD56313284DA";
paths = (
{
closed = 1;
nodes = (
"120 -40 LINE",
"200 -40 LINE",
"200 40 LINE",
"240 40 LINE",
"240 80 LINE",
"80 80 LINE",
"80 40 LINE",
"160 40 LINE",
"160 0 LINE",
"120 0 LINE"
);
},
{
closed = 1;
nodes = (
"40 80 LINE",
"80 80 LINE",
"80 160 LINE",
"40 160 LINE"
);
},
{
closed = 1;
nodes = (
"80 160 LINE",
"240 160 LINE",
"240 200 LINE",
"80 200 LINE"
);
},
{
closed = 1;
nodes = (
"240 120 LINE",
"280 120 LINE",
"280 160 LINE",
"240 160 LINE"
);
}
);
width = 320;
}
);
note = ccedilla;
unicode = 00E7;
},
{
glyphname = d;
lastChange = "2017-07-22 05:54:05 +0000";
layers = (
{
layerId = "364DB8B9-29FE-4011-8AFD-DD56313284DA";
paths = (
{
closed = 1;
nodes = (
"80 0 LINE",
"280 0 LINE",
"280 280 LINE",
"240 280 LINE",
"240 160 LINE",
"80 160 LINE",
"80 120 LINE",
"240 120 LINE",
"240 40 LINE",
"80 40 LINE"
);
},
{
closed = 1;
nodes = (
"40 40 LINE",
"80 40 LINE",
"80 120 LINE",
"40 120 LINE"
);
}
);
width = 320;
}
);
note = d;
unicode = 0064;
},
{
glyphname = eth;
lastChange = "2017-07-22 05:54:05 +0000";
layers = (
{
layerId = "364DB8B9-29FE-4011-8AFD-DD56313284DA";
paths = (
{
closed = 1;
nodes = (
"200 40 LINE",
"240 40 LINE",
"240 200 LINE",
"280 200 LINE",
"280 240 LINE",
"240 240 LINE",
"240 280 LINE",
"200 280 LINE",
"200 240 LINE",
"160 240 LINE",
"160 200 LINE",
"200 200 LINE",
"200 160 LINE",
"80 160 LINE",
"80 120 LINE",
"200 120 LINE"
);
},
{
closed = 1;
nodes = (
"40 40 LINE",
"80 40 LINE",
"80 120 LINE",
"40 120 LINE"
);
},
{
closed = 1;
nodes = (
"80 0 LINE",
"200 0 LINE",
"200 40 LINE",
"80 40 LINE"
);
}
);
width = 320;
}
);
note = eth;
unicode = 00F0;
},
{
glyphname = e;
lastChange = "2017-07-22 05:54:05 +0000";
layers = (
{
layerId = "364DB8B9-29FE-4011-8AFD-DD56313284DA";
paths = (
{
closed = 1;
nodes = (
"40 40 LINE",
"80 40 LINE",
"80 80 LINE",
"280 80 LINE",
"280 160 LINE",
"240 160 LINE",
"240 120 LINE",
"80 120 LINE",
"80 160 LINE",
"40 160 LINE"
);
},
{
closed = 1;
nodes = (
"80 0 LINE",
"280 0 LINE",
"280 40 LINE",
"80 40 LINE"
);
},
{
closed = 1;
nodes = (
"80 160 LINE",
"240 160 LINE",
"240 200 LINE",
"80 200 LINE"
);
}
);
width = 320;
}
);
note = e;
unicode = 0065;
},
{
glyphname = eacute;
lastChange = "2017-07-22 05:54:05 +0000";
layers = (
{
layerId = "364DB8B9-29FE-4011-8AFD-DD56313284DA";
paths = (
{
closed = 1;
nodes = (
"40 40 LINE",
"80 40 LINE",
"80 80 LINE",
"280 80 LINE",
"280 160 LINE",
"240 160 LINE",
"240 120 LINE",
"80 120 LINE",
"80 160 LINE",
"40 160 LINE"
);
},
{
closed = 1;
nodes = (
"80 0 LINE",
"280 0 LINE",
"280 40 LINE",
"80 40 LINE"
);
},
{
closed = 1;
nodes = (
"0 200 LINE",
"80 200 LINE",
"80 240 LINE",
"0 240 LINE"
);
},
{
closed = 1;
nodes = (
"80 160 LINE",
"240 160 LINE",
"240 200 LINE",
"80 200 LINE"
);
},
{
closed = 1;
nodes = (
"80 240 LINE",
"160 240 LINE",
"160 280 LINE",
"80 280 LINE"
);
}
);
width = 320;
}
);
note = eacute;
unicode = 00E9;
},
{
glyphname = ecircumflex;
lastChange = "2017-07-22 05:54:05 +0000";
layers = (
{
layerId = "364DB8B9-29FE-4011-8AFD-DD56313284DA";
paths = (
{
closed = 1;
nodes = (
"40 40 LINE",
"80 40 LINE",
"80 80 LINE",
"280 80 LINE",
"280 160 LINE",
"240 160 LINE",
"240 120 LINE",
"80 120 LINE",
"80 160 LINE",
"40 160 LINE"
);
},
{
closed = 1;
nodes = (
"80 0 LINE",
"280 0 LINE",
"280 40 LINE",
"80 40 LINE"
);
},
{
closed = 1;
nodes = (
"80 160 LINE",
"240 160 LINE",
"240 200 LINE",
"200 200 LINE",
"200 240 LINE",
"160 240 LINE",
"160 200 LINE",
"120 200 LINE",
"120 240 LINE",
"80 240 LINE"
);
},
{
closed = 1;
nodes = (
"120 240 LINE",
"160 240 LINE",
"160 280 LINE",
"120 280 LINE"
);
}
);
width = 320;
}
);
note = ecircumflex;
unicode = 00EA;
},
{
glyphname = edieresis;
lastChange = "2017-07-22 05:54:05 +0000";
layers = (
{
layerId = "364DB8B9-29FE-4011-8AFD-DD56313284DA";
paths = (
{
closed = 1;
nodes = (
"40 40 LINE",
"80 40 LINE",
"80 80 LINE",
"280 80 LINE",
"280 160 LINE",
"240 160 LINE",
"240 120 LINE",
"80 120 LINE",
"80 160 LINE",
"40 160 LINE"
);
},
{
closed = 1;
nodes = (
"80 0 LINE",
"280 0 LINE",
"280 40 LINE",
"80 40 LINE"
);
},
{
closed = 1;
nodes = (
"80 160 LINE",
"240 160 LINE",
"240 200 LINE",
"80 200 LINE"
);
},
{
closed = 1;
nodes = (
"80 240 LINE",
"120 240 LINE",
"120 280 LINE",
"80 280 LINE"
);
},
{
closed = 1;
nodes = (
"160 240 LINE",
"200 240 LINE",
"200 280 LINE",
"160 280 LINE"
);
}
);
width = 320;
}
);
note = edieresis;
unicode = 00EB;
},
{
glyphname = egrave;
lastChange = "2017-07-22 05:54:05 +0000";
layers = (
{
layerId = "364DB8B9-29FE-4011-8AFD-DD56313284DA";
paths = (
{
closed = 1;
nodes = (
"40 40 LINE",
"80 40 LINE",
"80 80 LINE",
"280 80 LINE",
"280 160 LINE",
"240 160 LINE",
"240 120 LINE",
"80 120 LINE",
"80 160 LINE",
"40 160 LINE"
);
},
{
closed = 1;
nodes = (
"80 0 LINE",
"280 0 LINE",
"280 40 LINE",
"80 40 LINE"
);
},
{
closed = 1;
nodes = (
"80 160 LINE",
"240 160 LINE",
"240 200 LINE",
"200 200 LINE",
"200 240 LINE",
"160 240 LINE",
"160 200 LINE",
"80 200 LINE"
);
},
{
closed = 1;
nodes = (
"120 240 LINE",
"160 240 LINE",
"160 280 LINE",
"120 280 LINE"
);
}
);
width = 320;
}
);
note = egrave;
unicode = 00E8;
},
{
glyphname = f;
lastChange = "2017-07-22 05:54:05 +0000";
layers = (
{
layerId = "364DB8B9-29FE-4011-8AFD-DD56313284DA";
paths = (
{
closed = 1;
nodes = (
"120 0 LINE",
"160 0 LINE",
"160 120 LINE",
"280 120 LINE",
"280 160 LINE",
"160 160 LINE",
"160 240 LINE",
"120 240 LINE",
"120 160 LINE",
"40 160 LINE",
"40 120 LINE",
"120 120 LINE"
);
},
{
closed = 1;
nodes = (
"160 240 LINE",
"240 240 LINE",
"240 280 LINE",
"160 280 LINE"
);
},
{
closed = 1;
nodes = (
"240 200 LINE",
"280 200 LINE",
"280 240 LINE",
"240 240 LINE"
);
}
);
width = 320;
}
);
note = f;
unicode = 0066;
},
{
glyphname = g;
lastChange = "2017-07-22 05:54:05 +0000";
layers = (
{
layerId = "364DB8B9-29FE-4011-8AFD-DD56313284DA";
paths = (
{
closed = 1;
nodes = (
"240 0 LINE",
"280 0 LINE",
"280 200 LINE",
"80 200 LINE",
"80 160 LINE",
"240 160 LINE",
"240 80 LINE",
"80 80 LINE",
"80 40 LINE",
"240 40 LINE"
);
},
{
closed = 1;
nodes = (
"40 -40 LINE",
"240 -40 LINE",
"240 0 LINE",
"40 0 LINE"
);
},
{
closed = 1;
nodes = (
"40 80 LINE",
"80 80 LINE",
"80 160 LINE",
"40 160 LINE"
);
}
);
width = 320;
}
);
note = g;
unicode = 0067;
},
{
glyphname = h;
lastChange = "2017-07-22 05:54:05 +0000";
layers = (
{
layerId = "364DB8B9-29FE-4011-8AFD-DD56313284DA";
paths = (
{
closed = 1;
nodes = (
"40 0 LINE",
"80 0 LINE",
"80 120 LINE",
"200 120 LINE",
"200 160 LINE",
"80 160 LINE",
"80 280 LINE",
"40 280 LINE"
);
},
{
closed = 1;
nodes = (
"200 0 LINE",
"240 0 LINE",
"240 120 LINE",
"200 120 LINE"
);
}
);
width = 320;
}
);
note = h;
unicode = 0068;
},
{
glyphname = i;
lastChange = "2017-07-22 05:54:05 +0000";
layers = (
{
layerId = "364DB8B9-29FE-4011-8AFD-DD56313284DA";
paths = (
{
closed = 1;
nodes = (
"120 0 LINE",
"160 0 LINE",
"160 160 LINE",
"120 160 LINE"
);
},
{
closed = 1;
nodes = (
"120 200 LINE",
"160 200 LINE",
"160 240 LINE",
"120 240 LINE"
);
}
);
width = 320;
}
);
note = i;
unicode = 0069;
},
{
glyphname = iacute;
lastChange = "2017-07-22 05:54:05 +0000";
layers = (
{
layerId = "364DB8B9-29FE-4011-8AFD-DD56313284DA";
paths = (
{
closed = 1;
nodes = (
"120 0 LINE",
"160 0 LINE",
"160 160 LINE",
"120 160 LINE"
);
},
{
closed = 1;
nodes = (
"120 200 LINE",
"160 200 LINE",
"160 240 LINE",
"120 240 LINE"
);
},
{
closed = 1;
nodes = (
"160 240 LINE",
"200 240 LINE",
"200 280 LINE",
"160 280 LINE"
);
}
);
width = 320;
}
);
note = iacute;
unicode = 00ED;
},
{
glyphname = icircumflex;
lastChange = "2017-07-22 05:54:05 +0000";
layers = (
{
layerId = "364DB8B9-29FE-4011-8AFD-DD56313284DA";
paths = (
{
closed = 1;
nodes = (
"120 0 LINE",
"160 0 LINE",
"160 160 LINE",
"120 160 LINE"
);
},
{
closed = 1;
nodes = (
"80 200 LINE",
"120 200 LINE",
"120 240 LINE",
"80 240 LINE"
);
},
{
closed = 1;
nodes = (
"120 240 LINE",
"160 240 LINE",
"160 280 LINE",
"120 280 LINE"
);
},
{
closed = 1;
nodes = (
"160 200 LINE",
"200 200 LINE",
"200 240 LINE",
"160 240 LINE"
);
}
);
width = 320;
}
);
note = icircumflex;
unicode = 00EE;
},
{
glyphname = idieresis;
lastChange = "2017-07-22 05:54:05 +0000";
layers = (
{
layerId = "364DB8B9-29FE-4011-8AFD-DD56313284DA";
paths = (
{
closed = 1;
nodes = (
"120 0 LINE",
"160 0 LINE",
"160 160 LINE",
"120 160 LINE"
);
},
{
closed = 1;
nodes = (
"80 200 LINE",
"120 200 LINE",
"120 240 LINE",
"80 240 LINE"
);
},
{
closed = 1;
nodes = (
"160 200 LINE",
"200 200 LINE",
"200 240 LINE",
"160 240 LINE"
);
}
);
width = 320;
}
);
note = idieresis;
unicode = 00EF;
},
{
glyphname = igrave;
lastChange = "2017-07-22 05:54:05 +0000";
layers = (
{
layerId = "364DB8B9-29FE-4011-8AFD-DD56313284DA";
paths = (
{
closed = 1;
nodes = (
"120 0 LINE",
"160 0 LINE",
"160 160 LINE",
"120 160 LINE"
);
},
{
closed = 1;
nodes = (
"80 240 LINE",
"120 240 LINE",
"120 280 LINE",
"80 280 LINE"
);
},
{
closed = 1;
nodes = (
"120 200 LINE",
"160 200 LINE",
"160 240 LINE",
"120 240 LINE"
);
}
);
width = 320;
}
);
note = igrave;
unicode = 00EC;
},
{
glyphname = j;
lastChange = "2017-07-22 05:54:05 +0000";
layers = (
{
layerId = "364DB8B9-29FE-4011-8AFD-DD56313284DA";
paths = (
{
closed = 1;
nodes = (
"120 0 LINE",
"160 0 LINE",
"160 160 LINE",
"120 160 LINE"
);
},
{
closed = 1;
nodes = (
"40 -40 LINE",
"120 -40 LINE",
"120 0 LINE",
"40 0 LINE"
);
},
{
closed = 1;
nodes = (
"120 200 LINE",
"160 200 LINE",
"160 240 LINE",
"120 240 LINE"
);
}
);
width = 320;
}
);
note = j;
unicode = 006A;
},
{
glyphname = k;
lastChange = "2017-07-22 05:54:05 +0000";
layers = (
{
layerId = "364DB8B9-29FE-4011-8AFD-DD56313284DA";
paths = (
{
closed = 1;
nodes = (
"40 0 LINE",
"80 0 LINE",
"80 80 LINE",
"120 80 LINE",
"120 120 LINE",
"80 120 LINE",
"80 280 LINE",
"40 280 LINE"
);
},
{
closed = 1;
nodes = (
"120 40 LINE",
"200 40 LINE",
"200 80 LINE",
"120 80 LINE"
);
},
{
closed = 1;
nodes = (
"200 0 LINE",
"280 0 LINE",
"280 40 LINE",
"200 40 LINE"
);
},
{
closed = 1;
nodes = (
"120 120 LINE",
"200 120 LINE",
"200 160 LINE",
"120 160 LINE"
);
},
{
closed = 1;
nodes = (
"200 160 LINE",
"280 160 LINE",
"280 200 LINE",
"200 200 LINE"
);
}
);
width = 320;
}
);
note = k;
unicode = 006B;
},
{
glyphname = l;
lastChange = "2017-07-22 05:54:05 +0000";
layers = (
{
layerId = "364DB8B9-29FE-4011-8AFD-DD56313284DA";
paths = (
{
closed = 1;
nodes = (
"120 0 LINE",
"160 0 LINE",
"160 280 LINE",
"120 280 LINE"
);
}
);
width = 320;
}
);
note = l;
unicode = 006C;
},
{
glyphname = m;
lastChange = "2017-07-22 05:54:05 +0000";
layers = (
{
layerId = "364DB8B9-29FE-4011-8AFD-DD56313284DA";
paths = (
{
closed = 1;
nodes = (
"40 0 LINE",
"80 0 LINE",
"80 160 LINE",
"160 160 LINE",
"160 200 LINE",
"40 200 LINE"
);
},
{
closed = 1;
nodes = (
"160 0 LINE",
"200 0 LINE",
"200 160 LINE",
"160 160 LINE"
);
},
{
closed = 1;
nodes = (
"280 0 LINE",
"320 0 LINE",
"320 160 LINE",
"280 160 LINE"
);
},
{
closed = 1;
nodes = (
"200 160 LINE",
"280 160 LINE",
"280 200 LINE",
"200 200 LINE"
);
}
);
width = 320;
}
);
note = m;
unicode = 006D;
},
{
glyphname = n;
lastChange = "2017-07-22 05:54:05 +0000";
layers = (
{
layerId = "364DB8B9-29FE-4011-8AFD-DD56313284DA";
paths = (
{
closed = 1;
nodes = (
"40 0 LINE",
"80 0 LINE",
"80 160 LINE",
"200 160 LINE",
"200 200 LINE",
"40 200 LINE"
);
},
{
closed = 1;
nodes = (
"200 0 LINE",
"240 0 LINE",
"240 160 LINE",
"200 160 LINE"
);
}
);
width = 320;
}
);
note = n;
unicode = 006E;
},
{
glyphname = ntilde;
lastChange = "2017-07-22 05:54:05 +0000";
layers = (
{
layerId = "364DB8B9-29FE-4011-8AFD-DD56313284DA";
paths = (
{
closed = 1;
nodes = (
"80 0 LINE",
"120 0 LINE",
"120 160 LINE",
"240 160 LINE",
"240 240 LINE",
"160 240 LINE",
"160 200 LINE",
"80 200 LINE"
);
},
{
closed = 1;
nodes = (
"40 200 LINE",
"80 200 LINE",
"80 240 LINE",
"40 240 LINE"
);
},
{
closed = 1;
nodes = (
"240 0 LINE",
"280 0 LINE",
"280 160 LINE",
"240 160 LINE"
);
},
{
closed = 1;
nodes = (
"80 240 LINE",
"160 240 LINE",
"160 280 LINE",
"80 280 LINE"
);
},
{
closed = 1;
nodes = (
"240 240 LINE",
"280 240 LINE",
"280 280 LINE",
"240 280 LINE"
);
}
);
width = 320;
}
);
note = ntilde;
unicode = 00F1;
},
{
glyphname = o;
lastChange = "2017-07-22 05:54:05 +0000";
layers = (
{
layerId = "364DB8B9-29FE-4011-8AFD-DD56313284DA";
paths = (
{
closed = 1;
nodes = (
"80 160 LINE",
"240 160 LINE",
"240 200 LINE",
"80 200 LINE"
);
},
{
closed = 1;
nodes = (
"40 40 LINE",
"80 40 LINE",
"80 160 LINE",
"40 160 LINE"
);
},
{
closed = 1;
nodes = (
"80 0 LINE",
"240 0 LINE",
"240 40 LINE",
"80 40 LINE"
);
},
{
closed = 1;
nodes = (
"240 40 LINE",
"280 40 LINE",
"280 160 LINE",
"240 160 LINE"
);
}
);
width = 320;
}
);
note = o;
unicode = 006F;
},
{
glyphname = oacute;
lastChange = "2017-07-22 05:54:05 +0000";
layers = (
{
layerId = "364DB8B9-29FE-4011-8AFD-DD56313284DA";
paths = (
{
closed = 1;
nodes = (
"80 160 LINE",
"240 160 LINE",
"240 200 LINE",
"160 200 LINE",
"160 240 LINE",
"120 240 LINE",
"120 200 LINE",
"80 200 LINE"
);
},
{
closed = 1;
nodes = (
"40 40 LINE",
"80 40 LINE",
"80 160 LINE",
"40 160 LINE"
);
},
{
closed = 1;
nodes = (
"80 0 LINE",
"240 0 LINE",
"240 40 LINE",
"80 40 LINE"
);
},
{
closed = 1;
nodes = (
"240 40 LINE",
"280 40 LINE",
"280 160 LINE",
"240 160 LINE"
);
},
{
closed = 1;
nodes = (
"160 240 LINE",
"200 240 LINE",
"200 280 LINE",
"160 280 LINE"
);
}
);
width = 320;
}
);
note = oacute;
unicode = 00F3;
},
{
glyphname = ocircumflex;
lastChange = "2017-07-22 05:54:05 +0000";
layers = (
{
layerId = "364DB8B9-29FE-4011-8AFD-DD56313284DA";
paths = (
{
closed = 1;
nodes = (
"80 160 LINE",
"240 160 LINE",
"240 200 LINE",
"200 200 LINE",
"200 240 LINE",
"160 240 LINE",
"160 200 LINE",
"120 200 LINE",
"120 240 LINE",
"80 240 LINE"
);
},
{
closed = 1;
nodes = (
"40 40 LINE",
"80 40 LINE",
"80 160 LINE",
"40 160 LINE"
);
},
{
closed = 1;
nodes = (
"80 0 LINE",
"240 0 LINE",
"240 40 LINE",
"80 40 LINE"
);
},
{
closed = 1;
nodes = (
"240 40 LINE",
"280 40 LINE",
"280 160 LINE",
"240 160 LINE"
);
},
{
closed = 1;
nodes = (
"120 240 LINE",
"160 240 LINE",
"160 280 LINE",
"120 280 LINE"
);
}
);
width = 320;
}
);
note = ocircumflex;
unicode = 00F4;
},
{
glyphname = odieresis;
lastChange = "2017-07-22 05:54:05 +0000";
layers = (
{
layerId = "364DB8B9-29FE-4011-8AFD-DD56313284DA";
paths = (
{
closed = 1;
nodes = (
"80 160 LINE",
"240 160 LINE",
"240 200 LINE",
"80 200 LINE"
);
},
{
closed = 1;
nodes = (
"40 40 LINE",
"80 40 LINE",
"80 160 LINE",
"40 160 LINE"
);
},
{
closed = 1;
nodes = (
"80 0 LINE",
"240 0 LINE",
"240 40 LINE",
"80 40 LINE"
);
},
{
closed = 1;
nodes = (
"80 240 LINE",
"120 240 LINE",
"120 280 LINE",
"80 280 LINE"
);
},
{
closed = 1;
nodes = (
"240 40 LINE",
"280 40 LINE",
"280 160 LINE",
"240 160 LINE"
);
},
{
closed = 1;
nodes = (
"160 240 LINE",
"200 240 LINE",
"200 280 LINE",
"160 280 LINE"
);
}
);
width = 320;
}
);
note = odieresis;
unicode = 00F6;
},
{
glyphname = ograve;
lastChange = "2017-07-22 05:54:05 +0000";
layers = (
{
layerId = "364DB8B9-29FE-4011-8AFD-DD56313284DA";
paths = (
{
closed = 1;
nodes = (
"80 160 LINE",
"240 160 LINE",
"240 200 LINE",
"160 200 LINE",
"160 240 LINE",
"120 240 LINE",
"120 200 LINE",
"80 200 LINE"
);
},
{
closed = 1;
nodes = (
"40 40 LINE",
"80 40 LINE",
"80 160 LINE",
"40 160 LINE"
);
},
{
closed = 1;
nodes = (
"80 0 LINE",
"240 0 LINE",
"240 40 LINE",
"80 40 LINE"
);
},
{
closed = 1;
nodes = (
"80 240 LINE",
"120 240 LINE",
"120 280 LINE",
"80 280 LINE"
);
},
{
closed = 1;
nodes = (
"240 40 LINE",
"280 40 LINE",
"280 160 LINE",
"240 160 LINE"
);
}
);
width = 320;
}
);
note = ograve;
unicode = 00F2;
},
{
glyphname = oslash;
lastChange = "2017-07-22 05:54:05 +0000";
layers = (
{
layerId = "364DB8B9-29FE-4011-8AFD-DD56313284DA";
paths = (
{
closed = 1;
nodes = (
"80 160 LINE",
"240 160 LINE",
"240 200 LINE",
"80 200 LINE"
);
},
{
closed = 1;
nodes = (
"40 40 LINE",
"80 40 LINE",
"80 160 LINE",
"40 160 LINE"
);
},
{
closed = 1;
nodes = (
"80 0 LINE",
"240 0 LINE",
"240 40 LINE",
"80 40 LINE"
);
},
{
closed = 1;
nodes = (
"240 40 LINE",
"280 40 LINE",
"280 160 LINE",
"240 160 LINE"
);
},
{
closed = 1;
nodes = (
"280 200 LINE",
"320 200 LINE",
"320 240 LINE",
"280 240 LINE"
);
},
{
closed = 1;
nodes = (
"40 -40 LINE",
"80 -40 LINE",
"80 0 LINE",
"40 0 LINE"
);
},
{
closed = 1;
nodes = (
"80 0 LINE",
"120 0 LINE",
"120 40 LINE",
"80 40 LINE"
);
},
{
closed = 1;
nodes = (
"120 40 LINE",
"160 40 LINE",
"160 80 LINE",
"120 80 LINE"
);
},
{
closed = 1;
nodes = (
"160 80 LINE",
"200 80 LINE",
"200 120 LINE",
"160 120 LINE"
);
},
{
closed = 1;
nodes = (
"200 120 LINE",
"240 120 LINE",
"240 160 LINE",
"200 160 LINE"
);
},
{
closed = 1;
nodes = (
"240 160 LINE",
"280 160 LINE",
"280 200 LINE",
"240 200 LINE"
);
}
);
width = 320;
}
);
note = oslash;
unicode = 00F8;
},
{
glyphname = otilde;
lastChange = "2017-07-22 05:54:05 +0000";
layers = (
{
layerId = "364DB8B9-29FE-4011-8AFD-DD56313284DA";
paths = (
{
closed = 1;
nodes = (
"80 160 LINE",
"240 160 LINE",
"240 200 LINE",
"80 200 LINE"
);
},
{
closed = 1;
nodes = (
"40 40 LINE",
"80 40 LINE",
"80 160 LINE",
"40 160 LINE"
);
},
{
closed = 1;
nodes = (
"80 0 LINE",
"240 0 LINE",
"240 40 LINE",
"80 40 LINE"
);
},
{
closed = 1;
nodes = (
"240 40 LINE",
"280 40 LINE",
"280 160 LINE",
"240 160 LINE"
);
},
{
closed = 1;
nodes = (
"160 200 LINE",
"240 200 LINE",
"240 240 LINE",
"160 240 LINE"
);
},
{
closed = 1;
nodes = (
"40 200 LINE",
"80 200 LINE",
"80 240 LINE",
"40 240 LINE"
);
},
{
closed = 1;
nodes = (
"80 240 LINE",
"160 240 LINE",
"160 280 LINE",
"80 280 LINE"
);
},
{
closed = 1;
nodes = (
"240 240 LINE",
"280 240 LINE",
"280 280 LINE",
"240 280 LINE"
);
}
);
width = 320;
}
);
note = otilde;
unicode = 00F5;
},
{
glyphname = oe;
lastChange = "2017-07-22 05:54:05 +0000";
layers = (
{
layerId = "364DB8B9-29FE-4011-8AFD-DD56313284DA";
paths = (
{
closed = 1;
nodes = (
"160 40 LINE",
"200 40 LINE",
"200 80 LINE",
"280 80 LINE",
"280 160 LINE",
"240 160 LINE",
"240 120 LINE",
"200 120 LINE",
"200 160 LINE",
"160 160 LINE"
);
},
{
closed = 1;
nodes = (
"80 0 LINE",
"160 0 LINE",
"160 40 LINE",
"80 40 LINE"
);
},
{
closed = 1;
nodes = (
"40 40 LINE",
"80 40 LINE",
"80 160 LINE",
"40 160 LINE"
);
},
{
closed = 1;
nodes = (
"200 0 LINE",
"280 0 LINE",
"280 40 LINE",
"200 40 LINE"
);
},
{
closed = 1;
nodes = (
"80 160 LINE",
"160 160 LINE",
"160 200 LINE",
"80 200 LINE"
);
},
{
closed = 1;
nodes = (
"200 160 LINE",
"240 160 LINE",
"240 200 LINE",
"200 200 LINE"
);
}
);
width = 320;
}
);
note = oe;
unicode = 0153;
},
{
glyphname = p;
lastChange = "2017-07-22 05:54:05 +0000";
layers = (
{
layerId = "364DB8B9-29FE-4011-8AFD-DD56313284DA";
paths = (
{
closed = 1;
nodes = (
"40 -40 LINE",
"80 -40 LINE",
"80 40 LINE",
"240 40 LINE",
"240 80 LINE",
"80 80 LINE",
"80 160 LINE",
"240 160 LINE",
"240 200 LINE",
"40 200 LINE"
);
},
{
closed = 1;
nodes = (
"240 80 LINE",
"280 80 LINE",
"280 160 LINE",
"240 160 LINE"
);
}
);
width = 320;
}
);
note = p;
unicode = 0070;
},
{
glyphname = thorn;
lastChange = "2017-07-22 05:54:05 +0000";
layers = (
{
layerId = "364DB8B9-29FE-4011-8AFD-DD56313284DA";
paths = (
{
closed = 1;
nodes = (
"40 -40 LINE",
"80 -40 LINE",
"80 40 LINE",
"240 40 LINE",
"240 80 LINE",
"80 80 LINE",
"80 160 LINE",
"240 160 LINE",
"240 200 LINE",
"80 200 LINE",
"80 280 LINE",
"40 280 LINE"
);
},
{
closed = 1;
nodes = (
"240 80 LINE",
"280 80 LINE",
"280 160 LINE",
"240 160 LINE"
);
}
);
width = 320;
}
);
note = thorn;
unicode = 00FE;
},
{
glyphname = q;
lastChange = "2017-07-22 05:54:05 +0000";
layers = (
{
layerId = "364DB8B9-29FE-4011-8AFD-DD56313284DA";
paths = (
{
closed = 1;
nodes = (
"240 -40 LINE",
"280 -40 LINE",
"280 200 LINE",
"80 200 LINE",
"80 160 LINE",
"240 160 LINE",
"240 80 LINE",
"80 80 LINE",
"80 40 LINE",
"240 40 LINE"
);
},
{
closed = 1;
nodes = (
"40 80 LINE",
"80 80 LINE",
"80 160 LINE",
"40 160 LINE"
);
}
);
width = 320;
}
);
note = q;
unicode = 0071;
},
{
glyphname = r;
lastChange = "2017-07-22 05:54:05 +0000";
layers = (
{
layerId = "364DB8B9-29FE-4011-8AFD-DD56313284DA";
paths = (
{
closed = 1;
nodes = (
"40 0 LINE",
"80 0 LINE",
"80 80 LINE",
"120 80 LINE",
"120 120 LINE",
"80 120 LINE",
"80 200 LINE",
"40 200 LINE"
);
},
{
closed = 1;
nodes = (
"120 120 LINE",
"160 120 LINE",
"160 160 LINE",
"120 160 LINE"
);
},
{
closed = 1;
nodes = (
"160 160 LINE",
"280 160 LINE",
"280 200 LINE",
"160 200 LINE"
);
}
);
width = 320;
}
);
note = r;
unicode = 0072;
},
{
glyphname = s;
lastChange = "2017-07-22 05:54:05 +0000";
layers = (
{
layerId = "364DB8B9-29FE-4011-8AFD-DD56313284DA";
paths = (
{
closed = 1;
nodes = (
"40 0 LINE",
"240 0 LINE",
"240 40 LINE",
"40 40 LINE"
);
},
{
closed = 1;
nodes = (
"40 120 LINE",
"80 120 LINE",
"80 160 LINE",
"40 160 LINE"
);
},
{
closed = 1;
nodes = (
"80 80 LINE",
"240 80 LINE",
"240 120 LINE",
"80 120 LINE"
);
},
{
closed = 1;
nodes = (
"240 40 LINE",
"280 40 LINE",
"280 80 LINE",
"240 80 LINE"
);
},
{
closed = 1;
nodes = (
"80 160 LINE",
"240 160 LINE",
"240 200 LINE",
"80 200 LINE"
);
}
);
width = 320;
}
);
note = s;
unicode = 0073;
},
{
glyphname = germandbls;
lastChange = "2017-07-22 05:54:05 +0000";
layers = (
{
layerId = "364DB8B9-29FE-4011-8AFD-DD56313284DA";
paths = (
{
closed = 1;
nodes = (
"40 0 LINE",
"80 0 LINE",
"80 240 LINE",
"200 240 LINE",
"200 280 LINE",
"40 280 LINE"
);
},
{
closed = 1;
nodes = (
"120 40 LINE",
"160 40 LINE",
"160 80 LINE",
"120 80 LINE"
);
},
{
closed = 1;
nodes = (
"160 0 LINE",
"240 0 LINE",
"240 40 LINE",
"160 40 LINE"
);
},
{
closed = 1;
nodes = (
"240 40 LINE",
"280 40 LINE",
"280 120 LINE",
"240 120 LINE"
);
},
{
closed = 1;
nodes = (
"120 120 LINE",
"240 120 LINE",
"240 240 LINE",
"200 240 LINE",
"200 160 LINE",
"120 160 LINE"
);
}
);
width = 320;
}
);
note = germandbls;
unicode = 00DF;
},
{
glyphname = t;
lastChange = "2017-07-22 05:54:05 +0000";
layers = (
{
layerId = "364DB8B9-29FE-4011-8AFD-DD56313284DA";
paths = (
{
closed = 1;
nodes = (
"120 40 LINE",
"160 40 LINE",
"160 160 LINE",
"240 160 LINE",
"240 200 LINE",
"160 200 LINE",
"160 240 LINE",
"120 240 LINE",
"120 200 LINE",
"40 200 LINE",
"40 160 LINE",
"120 160 LINE"
);
},
{
closed = 1;
nodes = (
"160 0 LINE",
"240 0 LINE",
"240 40 LINE",
"160 40 LINE"
);
}
);
width = 320;
}
);
note = t;
unicode = 0074;
},
{
glyphname = u;
lastChange = "2017-07-22 05:54:05 +0000";
layers = (
{
layerId = "364DB8B9-29FE-4011-8AFD-DD56313284DA";
paths = (
{
closed = 1;
nodes = (
"80 0 LINE",
"240 0 LINE",
"240 200 LINE",
"200 200 LINE",
"200 40 LINE",
"80 40 LINE"
);
},
{
closed = 1;
nodes = (
"40 40 LINE",
"80 40 LINE",
"80 200 LINE",
"40 200 LINE"
);
}
);
width = 320;
}
);
note = u;
unicode = 0075;
},
{
glyphname = uacute;
lastChange = "2017-07-22 05:54:05 +0000";
layers = (
{
layerId = "364DB8B9-29FE-4011-8AFD-DD56313284DA";
paths = (
{
closed = 1;
nodes = (
"80 0 LINE",
"240 0 LINE",
"240 200 LINE",
"200 200 LINE",
"200 40 LINE",
"80 40 LINE"
);
},
{
closed = 1;
nodes = (
"40 40 LINE",
"80 40 LINE",
"80 200 LINE",
"40 200 LINE"
);
},
{
closed = 1;
nodes = (
"120 200 LINE",
"160 200 LINE",
"160 240 LINE",
"120 240 LINE"
);
},
{
closed = 1;
nodes = (
"160 240 LINE",
"200 240 LINE",
"200 280 LINE",
"160 280 LINE"
);
}
);
width = 320;
}
);
note = uacute;
unicode = 00FA;
},
{
glyphname = ucircumflex;
lastChange = "2017-07-22 05:54:05 +0000";
layers = (
{
layerId = "364DB8B9-29FE-4011-8AFD-DD56313284DA";
paths = (
{
closed = 1;
nodes = (
"80 0 LINE",
"240 0 LINE",
"240 200 LINE",
"200 200 LINE",
"200 40 LINE",
"80 40 LINE"
);
},
{
closed = 1;
nodes = (
"40 40 LINE",
"80 40 LINE",
"80 200 LINE",
"40 200 LINE"
);
},
{
closed = 1;
nodes = (
"80 200 LINE",
"120 200 LINE",
"120 240 LINE",
"80 240 LINE"
);
},
{
closed = 1;
nodes = (
"120 240 LINE",
"160 240 LINE",
"160 280 LINE",
"120 280 LINE"
);
},
{
closed = 1;
nodes = (
"160 200 LINE",
"200 200 LINE",
"200 240 LINE",
"160 240 LINE"
);
}
);
width = 320;
}
);
note = ucircumflex;
unicode = 00FB;
},
{
glyphname = udieresis;
lastChange = "2017-07-22 05:54:05 +0000";
layers = (
{
layerId = "364DB8B9-29FE-4011-8AFD-DD56313284DA";
paths = (
{
closed = 1;
nodes = (
"80 0 LINE",
"240 0 LINE",
"240 200 LINE",
"200 200 LINE",
"200 40 LINE",
"80 40 LINE"
);
},
{
closed = 1;
nodes = (
"40 40 LINE",
"80 40 LINE",
"80 200 LINE",
"40 200 LINE"
);
},
{
closed = 1;
nodes = (
"80 240 LINE",
"120 240 LINE",
"120 280 LINE",
"80 280 LINE"
);
},
{
closed = 1;
nodes = (
"160 240 LINE",
"200 240 LINE",
"200 280 LINE",
"160 280 LINE"
);
}
);
width = 320;
}
);
note = udieresis;
unicode = 00FC;
},
{
glyphname = ugrave;
lastChange = "2017-07-22 05:54:05 +0000";
layers = (
{
layerId = "364DB8B9-29FE-4011-8AFD-DD56313284DA";
paths = (
{
closed = 1;
nodes = (
"80 0 LINE",
"240 0 LINE",
"240 200 LINE",
"200 200 LINE",
"200 40 LINE",
"80 40 LINE"
);
},
{
closed = 1;
nodes = (
"40 40 LINE",
"80 40 LINE",
"80 200 LINE",
"40 200 LINE"
);
},
{
closed = 1;
nodes = (
"80 240 LINE",
"120 240 LINE",
"120 280 LINE",
"80 280 LINE"
);
},
{
closed = 1;
nodes = (
"120 200 LINE",
"160 200 LINE",
"160 240 LINE",
"120 240 LINE"
);
}
);
width = 320;
}
);
note = ugrave;
unicode = 00F9;
},
{
glyphname = v;
lastChange = "2017-07-22 05:54:05 +0000";
layers = (
{
layerId = "364DB8B9-29FE-4011-8AFD-DD56313284DA";
paths = (
{
closed = 1;
nodes = (
"200 80 LINE",
"240 80 LINE",
"240 200 LINE",
"200 200 LINE"
);
},
{
closed = 1;
nodes = (
"80 40 LINE",
"120 40 LINE",
"120 80 LINE",
"80 80 LINE"
);
},
{
closed = 1;
nodes = (
"120 0 LINE",
"160 0 LINE",
"160 40 LINE",
"120 40 LINE"
);
},
{
closed = 1;
nodes = (
"40 80 LINE",
"80 80 LINE",
"80 200 LINE",
"40 200 LINE"
);
},
{
closed = 1;
nodes = (
"160 40 LINE",
"200 40 LINE",
"200 80 LINE",
"160 80 LINE"
);
}
);
width = 320;
}
);
note = v;
unicode = 0076;
},
{
glyphname = w;
lastChange = "2017-07-22 05:54:05 +0000";
layers = (
{
layerId = "364DB8B9-29FE-4011-8AFD-DD56313284DA";
paths = (
{
closed = 1;
nodes = (
"240 40 LINE",
"280 40 LINE",
"280 200 LINE",
"240 200 LINE"
);
},
{
closed = 1;
nodes = (
"40 0 LINE",
"80 0 LINE",
"80 40 LINE",
"40 40 LINE"
);
},
{
closed = 1;
nodes = (
"0 40 LINE",
"40 40 LINE",
"40 200 LINE",
"0 200 LINE"
);
},
{
closed = 1;
nodes = (
"80 40 LINE",
"120 40 LINE",
"120 80 LINE",
"80 80 LINE"
);
},
{
closed = 1;
nodes = (
"160 40 LINE",
"200 40 LINE",
"200 80 LINE",
"160 80 LINE"
);
},
{
closed = 1;
nodes = (
"200 0 LINE",
"240 0 LINE",
"240 40 LINE",
"200 40 LINE"
);
},
{
closed = 1;
nodes = (
"120 80 LINE",
"160 80 LINE",
"160 160 LINE",
"120 160 LINE"
);
}
);
width = 320;
}
);
note = w;
unicode = 0077;
},
{
glyphname = wacute;
lastChange = "2017-07-22 05:54:05 +0000";
layers = (
{
layerId = "364DB8B9-29FE-4011-8AFD-DD56313284DA";
paths = (
{
closed = 1;
nodes = (
"240 40 LINE",
"280 40 LINE",
"280 200 LINE",
"240 200 LINE"
);
},
{
closed = 1;
nodes = (
"40 0 LINE",
"80 0 LINE",
"80 40 LINE",
"40 40 LINE"
);
},
{
closed = 1;
nodes = (
"0 40 LINE",
"40 40 LINE",
"40 200 LINE",
"0 200 LINE"
);
},
{
closed = 1;
nodes = (
"80 40 LINE",
"120 40 LINE",
"120 80 LINE",
"80 80 LINE"
);
},
{
closed = 1;
nodes = (
"160 40 LINE",
"200 40 LINE",
"200 80 LINE",
"160 80 LINE"
);
},
{
closed = 1;
nodes = (
"200 0 LINE",
"240 0 LINE",
"240 40 LINE",
"200 40 LINE"
);
},
{
closed = 1;
nodes = (
"120 80 LINE",
"160 80 LINE",
"160 160 LINE",
"120 160 LINE"
);
},
{
closed = 1;
nodes = (
"160 240 LINE",
"200 240 LINE",
"200 280 LINE",
"160 280 LINE"
);
},
{
closed = 1;
nodes = (
"120 200 LINE",
"160 200 LINE",
"160 240 LINE",
"120 240 LINE"
);
}
);
width = 320;
}
);
note = wacute;
unicode = 1E83;
},
{
glyphname = wcircumflex;
lastChange = "2017-07-22 05:54:05 +0000";
layers = (
{
layerId = "364DB8B9-29FE-4011-8AFD-DD56313284DA";
paths = (
{
closed = 1;
nodes = (
"240 40 LINE",
"280 40 LINE",
"280 200 LINE",
"240 200 LINE"
);
},
{
closed = 1;
nodes = (
"40 0 LINE",
"80 0 LINE",
"80 40 LINE",
"40 40 LINE"
);
},
{
closed = 1;
nodes = (
"0 40 LINE",
"40 40 LINE",
"40 200 LINE",
"0 200 LINE"
);
},
{
closed = 1;
nodes = (
"80 40 LINE",
"120 40 LINE",
"120 80 LINE",
"80 80 LINE"
);
},
{
closed = 1;
nodes = (
"160 40 LINE",
"200 40 LINE",
"200 80 LINE",
"160 80 LINE"
);
},
{
closed = 1;
nodes = (
"200 0 LINE",
"240 0 LINE",
"240 40 LINE",
"200 40 LINE"
);
},
{
closed = 1;
nodes = (
"120 80 LINE",
"160 80 LINE",
"160 160 LINE",
"120 160 LINE"
);
},
{
closed = 1;
nodes = (
"120 240 LINE",
"160 240 LINE",
"160 280 LINE",
"120 280 LINE"
);
},
{
closed = 1;
nodes = (
"80 200 LINE",
"120 200 LINE",
"120 240 LINE",
"80 240 LINE"
);
},
{
closed = 1;
nodes = (
"160 200 LINE",
"200 200 LINE",
"200 240 LINE",
"160 240 LINE"
);
}
);
width = 320;
}
);
note = wcircumflex;
unicode = 0175;
},
{
glyphname = wdieresis;
lastChange = "2017-07-22 05:54:05 +0000";
layers = (
{
layerId = "364DB8B9-29FE-4011-8AFD-DD56313284DA";
paths = (
{
closed = 1;
nodes = (
"240 40 LINE",
"280 40 LINE",
"280 200 LINE",
"240 200 LINE"
);
},
{
closed = 1;
nodes = (
"40 0 LINE",
"80 0 LINE",
"80 40 LINE",
"40 40 LINE"
);
},
{
closed = 1;
nodes = (
"0 40 LINE",
"40 40 LINE",
"40 200 LINE",
"0 200 LINE"
);
},
{
closed = 1;
nodes = (
"80 40 LINE",
"120 40 LINE",
"120 80 LINE",
"80 80 LINE"
);
},
{
closed = 1;
nodes = (
"160 40 LINE",
"200 40 LINE",
"200 80 LINE",
"160 80 LINE"
);
},
{
closed = 1;
nodes = (
"200 0 LINE",
"240 0 LINE",
"240 40 LINE",
"200 40 LINE"
);
},
{
closed = 1;
nodes = (
"120 80 LINE",
"160 80 LINE",
"160 160 LINE",
"120 160 LINE"
);
},
{
closed = 1;
nodes = (
"160 240 LINE",
"200 240 LINE",
"200 280 LINE",
"160 280 LINE"
);
},
{
closed = 1;
nodes = (
"80 240 LINE",
"120 240 LINE",
"120 280 LINE",
"80 280 LINE"
);
}
);
width = 320;
}
);
note = wdieresis;
unicode = 1E85;
},
{
glyphname = wgrave;
lastChange = "2017-07-22 05:54:05 +0000";
layers = (
{
layerId = "364DB8B9-29FE-4011-8AFD-DD56313284DA";
paths = (
{
closed = 1;
nodes = (
"240 40 LINE",
"280 40 LINE",
"280 200 LINE",
"240 200 LINE"
);
},
{
closed = 1;
nodes = (
"40 0 LINE",
"80 0 LINE",
"80 40 LINE",
"40 40 LINE"
);
},
{
closed = 1;
nodes = (
"0 40 LINE",
"40 40 LINE",
"40 200 LINE",
"0 200 LINE"
);
},
{
closed = 1;
nodes = (
"80 40 LINE",
"120 40 LINE",
"120 80 LINE",
"80 80 LINE"
);
},
{
closed = 1;
nodes = (
"160 40 LINE",
"200 40 LINE",
"200 80 LINE",
"160 80 LINE"
);
},
{
closed = 1;
nodes = (
"200 0 LINE",
"240 0 LINE",
"240 40 LINE",
"200 40 LINE"
);
},
{
closed = 1;
nodes = (
"120 80 LINE",
"160 80 LINE",
"160 160 LINE",
"120 160 LINE"
);
},
{
closed = 1;
nodes = (
"80 240 LINE",
"120 240 LINE",
"120 280 LINE",
"80 280 LINE"
);
},
{
closed = 1;
nodes = (
"120 200 LINE",
"160 200 LINE",
"160 240 LINE",
"120 240 LINE"
);
}
);
width = 320;
}
);
note = wgrave;
unicode = 1E81;
},
{
glyphname = x;
lastChange = "2017-07-22 05:54:05 +0000";
layers = (
{
layerId = "364DB8B9-29FE-4011-8AFD-DD56313284DA";
paths = (
{
closed = 1;
nodes = (
"200 0 LINE",
"280 0 LINE",
"280 40 LINE",
"200 40 LINE"
);
},
{
closed = 1;
nodes = (
"40 0 LINE",
"80 0 LINE",
"80 40 LINE",
"40 40 LINE"
);
},
{
closed = 1;
nodes = (
"80 40 LINE",
"120 40 LINE",
"120 80 LINE",
"80 80 LINE"
);
},
{
closed = 1;
nodes = (
"0 160 LINE",
"80 160 LINE",
"80 200 LINE",
"0 200 LINE"
);
},
{
closed = 1;
nodes = (
"80 120 LINE",
"120 120 LINE",
"120 160 LINE",
"80 160 LINE"
);
},
{
closed = 1;
nodes = (
"120 80 LINE",
"160 80 LINE",
"160 120 LINE",
"120 120 LINE"
);
},
{
closed = 1;
nodes = (
"160 40 LINE",
"200 40 LINE",
"200 80 LINE",
"160 80 LINE"
);
},
{
closed = 1;
nodes = (
"160 120 LINE",
"200 120 LINE",
"200 160 LINE",
"160 160 LINE"
);
},
{
closed = 1;
nodes = (
"200 160 LINE",
"240 160 LINE",
"240 200 LINE",
"200 200 LINE"
);
}
);
width = 320;
}
);
note = x;
unicode = 0078;
},
{
glyphname = y;
lastChange = "2017-07-22 05:54:05 +0000";
layers = (
{
layerId = "364DB8B9-29FE-4011-8AFD-DD56313284DA";
paths = (
{
closed = 1;
nodes = (
"200 0 LINE",
"240 0 LINE",
"240 200 LINE",
"200 200 LINE",
"200 80 LINE",
"80 80 LINE",
"80 40 LINE",
"200 40 LINE"
);
},
{
closed = 1;
nodes = (
"40 -40 LINE",
"200 -40 LINE",
"200 0 LINE",
"40 0 LINE"
);
},
{
closed = 1;
nodes = (
"40 80 LINE",
"80 80 LINE",
"80 200 LINE",
"40 200 LINE"
);
}
);
width = 320;
}
);
note = y;
unicode = 0079;
},
{
glyphname = yacute;
lastChange = "2017-07-22 05:54:05 +0000";
layers = (
{
layerId = "364DB8B9-29FE-4011-8AFD-DD56313284DA";
paths = (
{
closed = 1;
nodes = (
"200 0 LINE",
"240 0 LINE",
"240 200 LINE",
"200 200 LINE",
"200 80 LINE",
"80 80 LINE",
"80 40 LINE",
"200 40 LINE"
);
},
{
closed = 1;
nodes = (
"40 -40 LINE",
"200 -40 LINE",
"200 0 LINE",
"40 0 LINE"
);
},
{
closed = 1;
nodes = (
"40 80 LINE",
"80 80 LINE",
"80 200 LINE",
"40 200 LINE"
);
},
{
closed = 1;
nodes = (
"160 240 LINE",
"200 240 LINE",
"200 280 LINE",
"160 280 LINE"
);
},
{
closed = 1;
nodes = (
"120 200 LINE",
"160 200 LINE",
"160 240 LINE",
"120 240 LINE"
);
}
);
width = 320;
}
);
note = yacute;
unicode = 00FD;
},
{
glyphname = ycircumflex;
lastChange = "2017-07-22 05:54:05 +0000";
layers = (
{
layerId = "364DB8B9-29FE-4011-8AFD-DD56313284DA";
paths = (
{
closed = 1;
nodes = (
"200 0 LINE",
"240 0 LINE",
"240 200 LINE",
"200 200 LINE",
"200 80 LINE",
"80 80 LINE",
"80 40 LINE",
"200 40 LINE"
);
},
{
closed = 1;
nodes = (
"40 -40 LINE",
"200 -40 LINE",
"200 0 LINE",
"40 0 LINE"
);
},
{
closed = 1;
nodes = (
"40 80 LINE",
"80 80 LINE",
"80 200 LINE",
"40 200 LINE"
);
},
{
closed = 1;
nodes = (
"120 240 LINE",
"160 240 LINE",
"160 280 LINE",
"120 280 LINE"
);
},
{
closed = 1;
nodes = (
"80 200 LINE",
"120 200 LINE",
"120 240 LINE",
"80 240 LINE"
);
},
{
closed = 1;
nodes = (
"160 200 LINE",
"200 200 LINE",
"200 240 LINE",
"160 240 LINE"
);
}
);
width = 320;
}
);
note = ycircumflex;
unicode = 0177;
},
{
glyphname = ydieresis;
lastChange = "2017-07-22 05:54:05 +0000";
layers = (
{
layerId = "364DB8B9-29FE-4011-8AFD-DD56313284DA";
paths = (
{
closed = 1;
nodes = (
"200 0 LINE",
"240 0 LINE",
"240 200 LINE",
"200 200 LINE",
"200 80 LINE",
"80 80 LINE",
"80 40 LINE",
"200 40 LINE"
);
},
{
closed = 1;
nodes = (
"40 -40 LINE",
"200 -40 LINE",
"200 0 LINE",
"40 0 LINE"
);
},
{
closed = 1;
nodes = (
"40 80 LINE",
"80 80 LINE",
"80 200 LINE",
"40 200 LINE"
);
},
{
closed = 1;
nodes = (
"160 240 LINE",
"200 240 LINE",
"200 280 LINE",
"160 280 LINE"
);
},
{
closed = 1;
nodes = (
"80 240 LINE",
"120 240 LINE",
"120 280 LINE",
"80 280 LINE"
);
}
);
width = 320;
}
);
note = ydieresis;
unicode = 00FF;
},
{
glyphname = ygrave;
lastChange = "2017-07-22 05:54:05 +0000";
layers = (
{
layerId = "364DB8B9-29FE-4011-8AFD-DD56313284DA";
paths = (
{
closed = 1;
nodes = (
"200 0 LINE",
"240 0 LINE",
"240 200 LINE",
"200 200 LINE",
"200 80 LINE",
"80 80 LINE",
"80 40 LINE",
"200 40 LINE"
);
},
{
closed = 1;
nodes = (
"40 -40 LINE",
"200 -40 LINE",
"200 0 LINE",
"40 0 LINE"
);
},
{
closed = 1;
nodes = (
"40 80 LINE",
"80 80 LINE",
"80 200 LINE",
"40 200 LINE"
);
},
{
closed = 1;
nodes = (
"80 240 LINE",
"120 240 LINE",
"120 280 LINE",
"80 280 LINE"
);
},
{
closed = 1;
nodes = (
"120 200 LINE",
"160 200 LINE",
"160 240 LINE",
"120 240 LINE"
);
}
);
width = 320;
}
);
note = ygrave;
unicode = 1EF3;
},
{
glyphname = z;
lastChange = "2017-07-22 05:54:05 +0000";
layers = (
{
layerId = "364DB8B9-29FE-4011-8AFD-DD56313284DA";
paths = (
{
closed = 1;
nodes = (
"200 120 LINE",
"240 120 LINE",
"240 160 LINE",
"280 160 LINE",
"280 200 LINE",
"40 200 LINE",
"40 160 LINE",
"200 160 LINE"
);
},
{
closed = 1;
nodes = (
"40 0 LINE",
"280 0 LINE",
"280 40 LINE",
"120 40 LINE",
"120 80 LINE",
"80 80 LINE",
"80 40 LINE",
"40 40 LINE"
);
},
{
closed = 1;
nodes = (
"120 80 LINE",
"200 80 LINE",
"200 120 LINE",
"120 120 LINE"
);
}
);
width = 320;
}
);
note = z;
unicode = 007A;
},
{
glyphname = P_K_M_N.liga;
lastChange = "2017-07-22 05:54:05 +0000";
layers = (
{
layerId = "364DB8B9-29FE-4011-8AFD-DD56313284DA";
paths = (
{
closed = 1;
nodes = (
"0 80 LINE",
"40 80 LINE",
"40 160 LINE",
"120 160 LINE",
"120 280 LINE",
"0 280 LINE"
);
},
{
closed = 1;
nodes = (
"160 -40 LINE",
"200 -40 LINE",
"200 40 LINE",
"240 40 LINE",
"240 80 LINE",
"200 80 LINE",
"200 160 LINE",
"160 160 LINE"
);
},
{
closed = 1;
nodes = (
"240 -40 LINE",
"280 -40 LINE",
"280 40 LINE",
"240 40 LINE"
);
},
{
closed = 1;
nodes = (
"40 200 LINE",
"40 240 LINE",
"80 240 LINE",
"80 200 LINE"
);
},
{
closed = 1;
nodes = (
"240 80 LINE",
"280 80 LINE",
"280 160 LINE",
"240 160 LINE"
);
},
{
closed = 1;
nodes = (
"440 -40 LINE",
"480 -40 LINE",
"480 40 LINE",
"520 40 LINE",
"520 80 LINE",
"480 80 LINE",
"480 120 LINE",
"440 120 LINE"
);
},
{
closed = 1;
nodes = (
"320 80 LINE",
"360 80 LINE",
"360 240 LINE",
"400 240 LINE",
"400 280 LINE",
"320 280 LINE"
);
},
{
closed = 1;
nodes = (
"560 -40 LINE",
"600 -40 LINE",
"600 120 LINE",
"560 120 LINE",
"560 40 LINE",
"520 40 LINE",
"520 0 LINE",
"560 0 LINE"
);
},
{
closed = 1;
nodes = (
"400 200 LINE",
"440 200 LINE",
"440 240 LINE",
"400 240 LINE"
);
},
{
closed = 1;
nodes = (
"480 120 LINE",
"520 120 LINE",
"520 280 LINE",
"440 280 LINE",
"440 240 LINE",
"480 240 LINE"
);
}
);
width = 320;
}
);
note = P_K_M_N.liga;
},
{
glyphname = u_n_o_w_n_a.liga;
lastChange = "2017-07-22 05:54:05 +0000";
layers = (
{
layerId = "364DB8B9-29FE-4011-8AFD-DD56313284DA";
paths = (
{
closed = 1;
nodes = (
"40 0 LINE",
"120 0 LINE",
"120 80 LINE",
"160 80 LINE",
"160 0 LINE",
"240 0 LINE",
"240 40 LINE",
"200 40 LINE",
"200 120 LINE",
"80 120 LINE",
"80 40 LINE",
"40 40 LINE"
);
},
{
closed = 1;
nodes = (
"40 120 LINE",
"80 120 LINE",
"80 200 LINE",
"40 200 LINE"
);
},
{
closed = 1;
nodes = (
"80 200 LINE",
"200 200 LINE",
"200 240 LINE",
"160 240 LINE",
"160 280 LINE",
"120 280 LINE",
"120 240 LINE",
"80 240 LINE"
);
},
{
closed = 1;
nodes = (
"200 120 LINE",
"240 120 LINE",
"240 200 LINE",
"200 200 LINE"
);
}
);
width = 320;
}
);
note = u_n_o_w_n_a.liga;
},
{
glyphname = u_n_o_w_n_b.liga;
lastChange = "2017-07-22 05:54:05 +0000";
layers = (
{
layerId = "364DB8B9-29FE-4011-8AFD-DD56313284DA";
paths = (
{
closed = 1;
nodes = (
"80 200 LINE",
"200 200 LINE",
"200 240 LINE",
"80 240 LINE"
);
},
{
closed = 1;
nodes = (
"40 0 LINE",
"80 0 LINE",
"80 40 LINE",
"40 40 LINE"
);
},
{
closed = 1;
nodes = (
"80 -40 LINE",
"200 -40 LINE",
"200 0 LINE",
"80 0 LINE"
);
},
{
closed = 1;
nodes = (
"40 80 LINE",
"80 80 LINE",
"80 200 LINE",
"40 200 LINE"
);
},
{
closed = 1;
nodes = (
"80 40 LINE",
"200 40 LINE",
"200 80 LINE",
"80 80 LINE"
);
},
{
closed = 1;
nodes = (
"200 0 LINE",
"240 0 LINE",
"240 40 LINE",
"200 40 LINE"
);
},
{
closed = 1;
nodes = (
"120 120 LINE",
"160 120 LINE",
"160 160 LINE",
"120 160 LINE"
);
},
{
closed = 1;
nodes = (
"200 80 LINE",
"240 80 LINE",
"240 200 LINE",
"200 200 LINE"
);
}
);
width = 320;
}
);
note = u_n_o_w_n_b.liga;
},
{
glyphname = u_n_o_w_n_c.liga;
lastChange = "2017-07-22 05:54:05 +0000";
layers = (
{
layerId = "364DB8B9-29FE-4011-8AFD-DD56313284DA";
paths = (
{
closed = 1;
nodes = (
"80 80 LINE",
"200 80 LINE",
"200 120 LINE",
"280 120 LINE",
"280 200 LINE",
"240 200 LINE",
"240 160 LINE",
"200 160 LINE",
"200 200 LINE",
"160 200 LINE",
"160 240 LINE",
"200 240 LINE",
"200 280 LINE",
"80 280 LINE",
"80 240 LINE",
"120 240 LINE",
"120 200 LINE",
"80 200 LINE"
);
},
{
closed = 1;
nodes = (
"40 40 LINE",
"80 40 LINE",
"80 80 LINE",
"40 80 LINE"
);
},
{
closed = 1;
nodes = (
"0 80 LINE",
"40 80 LINE",
"40 200 LINE",
"0 200 LINE"
);
},
{
closed = 1;
nodes = (
"80 0 LINE",
"200 0 LINE",
"200 40 LINE",
"80 40 LINE"
);
},
{
closed = 1;
nodes = (
"40 200 LINE",
"80 200 LINE",
"80 240 LINE",
"40 240 LINE"
);
},
{
closed = 1;
nodes = (
"120 120 LINE",
"120 160 LINE",
"160 160 LINE",
"160 120 LINE"
);
},
{
closed = 1;
nodes = (
"200 40 LINE",
"240 40 LINE",
"240 80 LINE",
"200 80 LINE"
);
},
{
closed = 1;
nodes = (
"200 200 LINE",
"240 200 LINE",
"240 240 LINE",
"200 240 LINE"
);
}
);
width = 320;
}
);
note = u_n_o_w_n_c.liga;
},
{
glyphname = u_n_o_w_n_d.liga;
lastChange = "2017-07-22 05:54:05 +0000";
layers = (
{
layerId = "364DB8B9-29FE-4011-8AFD-DD56313284DA";
paths = (
{
closed = 1;
nodes = (
"80 200 LINE",
"160 200 LINE",
"160 240 LINE",
"240 240 LINE",
"240 280 LINE",
"120 280 LINE",
"120 240 LINE",
"80 240 LINE"
);
},
{
closed = 1;
nodes = (
"120 0 LINE",
"240 0 LINE",
"240 40 LINE",
"120 40 LINE"
);
},
{
closed = 1;
nodes = (
"40 120 LINE",
"80 120 LINE",
"80 200 LINE",
"40 200 LINE"
);
},
{
closed = 1;
nodes = (
"80 80 LINE",
"160 80 LINE",
"160 120 LINE",
"80 120 LINE"
);
},
{
closed = 1;
nodes = (
"160 120 LINE",
"200 120 LINE",
"200 200 LINE",
"160 200 LINE"
);
},
{
closed = 1;
nodes = (
"240 40 LINE",
"280 40 LINE",
"280 240 LINE",
"240 240 LINE"
);
}
);
width = 320;
}
);
note = u_n_o_w_n_d.liga;
},
{
glyphname = u_n_o_w_n_e.liga;
lastChange = "2017-07-22 05:54:05 +0000";
layers = (
{
layerId = "364DB8B9-29FE-4011-8AFD-DD56313284DA";
paths = (
{
closed = 1;
nodes = (
"80 200 LINE",
"200 200 LINE",
"200 240 LINE",
"280 240 LINE",
"280 280 LINE",
"160 280 LINE",
"160 240 LINE",
"80 240 LINE"
);
},
{
closed = 1;
nodes = (
"40 80 LINE",
"80 80 LINE",
"80 200 LINE",
"40 200 LINE"
);
},
{
closed = 1;
nodes = (
"160 0 LINE",
"280 0 LINE",
"280 40 LINE",
"200 40 LINE",
"200 80 LINE",
"80 80 LINE",
"80 40 LINE",
"160 40 LINE"
);
},
{
closed = 1;
nodes = (
"120 120 LINE",
"160 120 LINE",
"160 160 LINE",
"120 160 LINE"
);
},
{
closed = 1;
nodes = (
"200 80 LINE",
"240 80 LINE",
"240 120 LINE",
"280 120 LINE",
"280 160 LINE",
"240 160 LINE",
"240 200 LINE",
"200 200 LINE"
);
}
);
width = 320;
}
);
note = u_n_o_w_n_e.liga;
},
{
glyphname = u_n_o_w_n_f.liga;
lastChange = "2017-07-22 05:54:05 +0000";
layers = (
{
layerId = "364DB8B9-29FE-4011-8AFD-DD56313284DA";
paths = (
{
closed = 1;
nodes = (
"160 80 LINE",
"240 80 LINE",
"240 120 LINE",
"200 120 LINE",
"200 160 LINE",
"240 160 LINE",
"240 120 LINE",
"280 120 LINE",
"280 200 LINE",
"160 200 LINE"
);
},
{
closed = 1;
nodes = (
"0 -40 LINE",
"80 -40 LINE",
"80 0 LINE",
"0 0 LINE"
);
},
{
closed = 1;
nodes = (
"80 0 LINE",
"120 0 LINE",
"120 40 LINE",
"160 40 LINE",
"160 80 LINE",
"40 80 LINE",
"40 40 LINE",
"80 40 LINE"
);
},
{
closed = 1;
nodes = (
"120 -40 LINE",
"200 -40 LINE",
"200 0 LINE",
"120 0 LINE"
);
},
{
closed = 1;
nodes = (
"0 80 LINE",
"40 80 LINE",
"40 200 LINE",
"0 200 LINE"
);
},
{
closed = 1;
nodes = (
"80 120 LINE",
"120 120 LINE",
"120 160 LINE",
"80 160 LINE"
);
},
{
closed = 1;
nodes = (
"40 200 LINE",
"160 200 LINE",
"160 240 LINE",
"40 240 LINE"
);
}
);
width = 320;
}
);
note = u_n_o_w_n_f.liga;
},
{
glyphname = u_n_o_w_n_g.liga;
lastChange = "2017-07-22 05:54:05 +0000";
layers = (
{
layerId = "364DB8B9-29FE-4011-8AFD-DD56313284DA";
paths = (
{
closed = 1;
nodes = (
"40 40 LINE",
"120 40 LINE",
"120 80 LINE",
"200 80 LINE",
"200 120 LINE",
"80 120 LINE",
"80 80 LINE",
"40 80 LINE"
);
},
{
closed = 1;
nodes = (
"120 0 LINE",
"240 0 LINE",
"240 40 LINE",
"120 40 LINE"
);
},
{
closed = 1;
nodes = (
"40 120 LINE",
"80 120 LINE",
"80 200 LINE",
"40 200 LINE"
);
},
{
closed = 1;
nodes = (
"80 200 LINE",
"200 200 LINE",
"200 280 LINE",
"160 280 LINE",
"160 240 LINE",
"120 240 LINE",
"120 280 LINE",
"80 280 LINE"
);
},
{
closed = 1;
nodes = (
"200 120 LINE",
"240 120 LINE",
"240 200 LINE",
"200 200 LINE"
);
}
);
width = 320;
}
);
note = u_n_o_w_n_g.liga;
},
{
glyphname = u_n_o_w_n_h.liga;
lastChange = "2017-07-22 05:54:05 +0000";
layers = (
{
layerId = "364DB8B9-29FE-4011-8AFD-DD56313284DA";
paths = (
{
closed = 1;
nodes = (
"240 40 LINE",
"280 40 LINE",
"280 240 LINE",
"240 240 LINE",
"240 200 LINE",
"200 200 LINE",
"200 80 LINE",
"240 80 LINE"
);
},
{
closed = 1;
nodes = (
"40 0 LINE",
"80 0 LINE",
"80 40 LINE",
"40 40 LINE"
);
},
{
closed = 1;
nodes = (
"0 40 LINE",
"40 40 LINE",
"40 80 LINE",
"80 80 LINE",
"80 200 LINE",
"40 200 LINE",
"40 240 LINE",
"0 240 LINE"
);
},
{
closed = 1;
nodes = (
"80 40 LINE",
"200 40 LINE",
"200 80 LINE",
"80 80 LINE"
);
},
{
closed = 1;
nodes = (
"200 0 LINE",
"240 0 LINE",
"240 40 LINE",
"200 40 LINE"
);
},
{
closed = 1;
nodes = (
"120 120 LINE",
"160 120 LINE",
"160 160 LINE",
"120 160 LINE"
);
},
{
closed = 1;
nodes = (
"40 240 LINE",
"80 240 LINE",
"80 280 LINE",
"40 280 LINE"
);
},
{
closed = 1;
nodes = (
"80 200 LINE",
"200 200 LINE",
"200 240 LINE",
"80 240 LINE"
);
},
{
closed = 1;
nodes = (
"200 240 LINE",
"240 240 LINE",
"240 280 LINE",
"200 280 LINE"
);
}
);
width = 320;
}
);
note = u_n_o_w_n_h.liga;
},
{
glyphname = u_n_o_w_n_i.liga;
lastChange = "2017-07-22 05:54:05 +0000";
layers = (
{
layerId = "364DB8B9-29FE-4011-8AFD-DD56313284DA";
paths = (
{
closed = 1;
nodes = (
"80 200 LINE",
"200 200 LINE",
"200 240 LINE",
"160 240 LINE",
"160 280 LINE",
"120 280 LINE",
"120 240 LINE",
"80 240 LINE"
);
},
{
closed = 1;
nodes = (
"120 0 LINE",
"160 0 LINE",
"160 40 LINE",
"200 40 LINE",
"200 80 LINE",
"80 80 LINE",
"80 40 LINE",
"120 40 LINE"
);
},
{
closed = 1;
nodes = (
"40 80 LINE",
"80 80 LINE",
"80 200 LINE",
"40 200 LINE"
);
},
{
closed = 1;
nodes = (
"120 120 LINE",
"160 120 LINE",
"160 160 LINE",
"120 160 LINE"
);
},
{
closed = 1;
nodes = (
"200 80 LINE",
"240 80 LINE",
"240 200 LINE",
"200 200 LINE"
);
}
);
width = 320;
}
);
note = u_n_o_w_n_i.liga;
},
{
glyphname = u_n_o_w_n_j.liga;
lastChange = "2017-07-22 05:54:05 +0000";
layers = (
{
layerId = "364DB8B9-29FE-4011-8AFD-DD56313284DA";
paths = (
{
closed = 1;
nodes = (
"120 0 LINE",
"160 0 LINE",
"160 40 LINE",
"200 40 LINE",
"200 80 LINE",
"80 80 LINE",
"80 40 LINE",
"120 40 LINE"
);
},
{
closed = 1;
nodes = (
"40 -40 LINE",
"120 -40 LINE",
"120 0 LINE",
"40 0 LINE"
);
},
{
closed = 1;
nodes = (
"40 80 LINE",
"80 80 LINE",
"80 200 LINE",
"40 200 LINE"
);
},
{
closed = 1;
nodes = (
"120 120 LINE",
"160 120 LINE",
"160 160 LINE",
"120 160 LINE"
);
},
{
closed = 1;
nodes = (
"80 200 LINE",
"200 200 LINE",
"200 240 LINE",
"80 240 LINE"
);
},
{
closed = 1;
nodes = (
"200 80 LINE",
"240 80 LINE",
"240 200 LINE",
"200 200 LINE"
);
}
);
width = 320;
}
);
note = u_n_o_w_n_j.liga;
},
{
glyphname = u_n_o_w_n_k.liga;
lastChange = "2017-07-22 05:54:05 +0000";
layers = (
{
layerId = "364DB8B9-29FE-4011-8AFD-DD56313284DA";
paths = (
{
closed = 1;
nodes = (
"40 200 LINE",
"160 200 LINE",
"160 240 LINE",
"120 240 LINE",
"120 280 LINE",
"80 280 LINE",
"80 240 LINE",
"40 240 LINE"
);
},
{
closed = 1;
nodes = (
"80 0 LINE",
"120 0 LINE",
"120 40 LINE",
"160 40 LINE",
"160 80 LINE",
"40 80 LINE",
"40 40 LINE",
"80 40 LINE"
);
},
{
closed = 1;
nodes = (
"0 80 LINE",
"40 80 LINE",
"40 200 LINE",
"0 200 LINE"
);
},
{
closed = 1;
nodes = (
"80 120 LINE",
"120 120 LINE",
"120 160 LINE",
"80 160 LINE"
);
},
{
closed = 1;
nodes = (
"200 40 LINE",
"280 40 LINE",
"280 80 LINE",
"200 80 LINE"
);
},
{
closed = 1;
nodes = (
"160 80 LINE",
"200 80 LINE",
"200 200 LINE",
"160 200 LINE"
);
},
{
closed = 1;
nodes = (
"200 200 LINE",
"280 200 LINE",
"280 240 LINE",
"200 240 LINE"
);
}
);
width = 320;
}
);
note = u_n_o_w_n_k.liga;
},
{
glyphname = u_n_o_w_n_l.liga;
lastChange = "2017-07-22 05:54:05 +0000";
layers = (
{
layerId = "364DB8B9-29FE-4011-8AFD-DD56313284DA";
paths = (
{
closed = 1;
nodes = (
"120 -40 LINE",
"240 -40 LINE",
"240 0 LINE",
"160 0 LINE",
"160 40 LINE",
"200 40 LINE",
"200 80 LINE",
"80 80 LINE",
"80 40 LINE",
"120 40 LINE"
);
},
{
closed = 1;
nodes = (
"40 80 LINE",
"80 80 LINE",
"80 200 LINE",
"40 200 LINE"
);
},
{
closed = 1;
nodes = (
"120 120 LINE",
"160 120 LINE",
"160 160 LINE",
"120 160 LINE"
);
},
{
closed = 1;
nodes = (
"80 200 LINE",
"200 200 LINE",
"200 240 LINE",
"80 240 LINE"
);
},
{
closed = 1;
nodes = (
"200 80 LINE",
"240 80 LINE",
"240 200 LINE",
"200 200 LINE"
);
}
);
width = 320;
}
);
note = u_n_o_w_n_l.liga;
},
{
glyphname = u_n_o_w_n_m.liga;
lastChange = "2017-07-22 05:54:05 +0000";
layers = (
{
layerId = "364DB8B9-29FE-4011-8AFD-DD56313284DA";
paths = (
{
closed = 1;
nodes = (
"120 160 LINE",
"160 160 LINE",
"160 200 LINE",
"200 200 LINE",
"200 240 LINE",
"80 240 LINE",
"80 200 LINE",
"120 200 LINE"
);
},
{
closed = 1;
nodes = (
"40 0 LINE",
"80 0 LINE",
"80 40 LINE",
"40 40 LINE"
);
},
{
closed = 1;
nodes = (
"0 40 LINE",
"40 40 LINE",
"40 160 LINE",
"0 160 LINE"
);
},
{
closed = 1;
nodes = (
"120 40 LINE",
"160 40 LINE",
"160 80 LINE",
"120 80 LINE"
);
},
{
closed = 1;
nodes = (
"80 80 LINE",
"120 80 LINE",
"120 160 LINE",
"80 160 LINE"
);
},
{
closed = 1;
nodes = (
"40 160 LINE",
"80 160 LINE",
"80 200 LINE",
"40 200 LINE"
);
},
{
closed = 1;
nodes = (
"200 0 LINE",
"240 0 LINE",
"240 40 LINE",
"200 40 LINE"
);
},
{
closed = 1;
nodes = (
"160 80 LINE",
"200 80 LINE",
"200 160 LINE",
"160 160 LINE"
);
},
{
closed = 1;
nodes = (
"40 240 LINE",
"80 240 LINE",
"80 280 LINE",
"40 280 LINE"
);
},
{
closed = 1;
nodes = (
"240 40 LINE",
"280 40 LINE",
"280 160 LINE",
"240 160 LINE"
);
},
{
closed = 1;
nodes = (
"200 160 LINE",
"240 160 LINE",
"240 200 LINE",
"200 200 LINE"
);
},
{
closed = 1;
nodes = (
"200 240 LINE",
"240 240 LINE",
"240 280 LINE",
"200 280 LINE"
);
}
);
width = 320;
}
);
note = u_n_o_w_n_m.liga;
},
{
glyphname = u_n_o_w_n_n.liga;
lastChange = "2017-07-22 05:54:05 +0000";
layers = (
{
layerId = "364DB8B9-29FE-4011-8AFD-DD56313284DA";
paths = (
{
closed = 1;
nodes = (
"120 40 LINE",
"160 40 LINE",
"160 80 LINE",
"200 80 LINE",
"200 200 LINE",
"160 200 LINE",
"160 240 LINE",
"120 240 LINE",
"120 200 LINE",
"80 200 LINE",
"80 80 LINE",
"120 80 LINE"
);
},
{
closed = 1;
nodes = (
"0 40 LINE",
"40 40 LINE",
"40 200 LINE",
"80 200 LINE",
"80 240 LINE",
"0 240 LINE"
);
},
{
closed = 1;
nodes = (
"120 120 LINE",
"120 160 LINE",
"160 160 LINE",
"160 120 LINE"
);
},
{
closed = 1;
nodes = (
"200 40 LINE",
"280 40 LINE",
"280 240 LINE",
"240 240 LINE",
"240 80 LINE",
"200 80 LINE"
);
}
);
width = 320;
}
);
note = u_n_o_w_n_n.liga;
},
{
glyphname = u_n_o_w_n_o.liga;
lastChange = "2017-07-22 05:54:05 +0000";
layers = (
{
layerId = "364DB8B9-29FE-4011-8AFD-DD56313284DA";
paths = (
{
closed = 1;
nodes = (
"80 80 LINE",
"200 80 LINE",
"200 200 LINE",
"80 200 LINE"
);
},
{
closed = 1;
nodes = (
"40 40 LINE",
"80 40 LINE",
"80 80 LINE",
"40 80 LINE"
);
},
{
closed = 1;
nodes = (
"0 80 LINE",
"40 80 LINE",
"40 200 LINE",
"0 200 LINE"
);
},
{
closed = 1;
nodes = (
"80 0 LINE",
"200 0 LINE",
"200 40 LINE",
"80 40 LINE"
);
},
{
closed = 1;
nodes = (
"40 200 LINE",
"80 200 LINE",
"80 240 LINE",
"40 240 LINE"
);
},
{
closed = 1;
nodes = (
"120 120 LINE",
"120 160 LINE",
"160 160 LINE",
"160 120 LINE"
);
},
{
closed = 1;
nodes = (
"200 40 LINE",
"240 40 LINE",
"240 80 LINE",
"200 80 LINE"
);
},
{
closed = 1;
nodes = (
"80 240 LINE",
"200 240 LINE",
"200 280 LINE",
"80 280 LINE"
);
},
{
closed = 1;
nodes = (
"240 80 LINE",
"280 80 LINE",
"280 200 LINE",
"240 200 LINE"
);
},
{
closed = 1;
nodes = (
"200 200 LINE",
"240 200 LINE",
"240 240 LINE",
"200 240 LINE"
);
}
);
width = 320;
}
);
note = u_n_o_w_n_o.liga;
},
{
glyphname = u_n_o_w_n_p.liga;
lastChange = "2017-07-22 05:54:05 +0000";
layers = (
{
layerId = "364DB8B9-29FE-4011-8AFD-DD56313284DA";
paths = (
{
closed = 1;
nodes = (
"40 -40 LINE",
"80 -40 LINE",
"80 40 LINE",
"200 40 LINE",
"200 80 LINE",
"80 80 LINE",
"80 200 LINE",
"40 200 LINE"
);
},
{
closed = 1;
nodes = (
"120 120 LINE",
"160 120 LINE",
"160 160 LINE",
"120 160 LINE"
);
},
{
closed = 1;
nodes = (
"80 200 LINE",
"200 200 LINE",
"200 240 LINE",
"80 240 LINE"
);
},
{
closed = 1;
nodes = (
"200 80 LINE",
"240 80 LINE",
"240 200 LINE",
"200 200 LINE"
);
}
);
width = 320;
}
);
note = u_n_o_w_n_p.liga;
},
{
glyphname = u_n_o_w_n_q.liga;
lastChange = "2017-07-22 05:54:05 +0000";
layers = (
{
layerId = "364DB8B9-29FE-4011-8AFD-DD56313284DA";
paths = (
{
closed = 1;
nodes = (
"120 0 LINE",
"160 0 LINE",
"160 80 LINE",
"40 80 LINE",
"40 40 LINE",
"120 40 LINE"
);
},
{
closed = 1;
nodes = (
"0 80 LINE",
"40 80 LINE",
"40 200 LINE",
"0 200 LINE"
);
},
{
closed = 1;
nodes = (
"160 -40 LINE",
"240 -40 LINE",
"240 0 LINE",
"160 0 LINE"
);
},
{
closed = 1;
nodes = (
"80 120 LINE",
"120 120 LINE",
"120 160 LINE",
"80 160 LINE"
);
},
{
closed = 1;
nodes = (
"240 0 LINE",
"280 0 LINE",
"280 80 LINE",
"240 80 LINE"
);
},
{
closed = 1;
nodes = (
"40 200 LINE",
"160 200 LINE",
"160 240 LINE",
"40 240 LINE"
);
},
{
closed = 1;
nodes = (
"160 80 LINE",
"200 80 LINE",
"200 200 LINE",
"160 200 LINE"
);
}
);
width = 320;
}
);
note = u_n_o_w_n_q.liga;
},
{
glyphname = u_n_o_w_n_r.liga;
lastChange = "2017-07-22 05:54:05 +0000";
layers = (
{
layerId = "364DB8B9-29FE-4011-8AFD-DD56313284DA";
paths = (
{
closed = 1;
nodes = (
"40 -40 LINE",
"80 -40 LINE",
"80 40 LINE",
"160 40 LINE",
"160 0 LINE",
"240 0 LINE",
"240 40 LINE",
"200 40 LINE",
"200 80 LINE",
"80 80 LINE",
"80 200 LINE",
"40 200 LINE"
);
},
{
closed = 1;
nodes = (
"120 120 LINE",
"160 120 LINE",
"160 160 LINE",
"120 160 LINE"
);
},
{
closed = 1;
nodes = (
"80 200 LINE",
"200 200 LINE",
"200 240 LINE",
"80 240 LINE"
);
},
{
closed = 1;
nodes = (
"200 80 LINE",
"240 80 LINE",
"240 200 LINE",
"200 200 LINE"
);
}
);
width = 320;
}
);
note = u_n_o_w_n_r.liga;
},
{
glyphname = u_n_o_w_n_s.liga;
lastChange = "2017-07-22 05:54:05 +0000";
layers = (
{
layerId = "364DB8B9-29FE-4011-8AFD-DD56313284DA";
paths = (
{
closed = 1;
nodes = (
"40 200 LINE",
"200 200 LINE",
"200 240 LINE",
"40 240 LINE"
);
},
{
closed = 1;
nodes = (
"80 -40 LINE",
"240 -40 LINE",
"240 0 LINE",
"80 0 LINE"
);
},
{
closed = 1;
nodes = (
"40 80 LINE",
"80 80 LINE",
"80 120 LINE",
"40 120 LINE"
);
},
{
closed = 1;
nodes = (
"0 120 LINE",
"40 120 LINE",
"40 200 LINE",
"0 200 LINE"
);
},
{
closed = 1;
nodes = (
"80 40 LINE",
"200 40 LINE",
"200 80 LINE",
"80 80 LINE"
);
},
{
closed = 1;
nodes = (
"80 120 LINE",
"200 120 LINE",
"200 160 LINE",
"80 160 LINE"
);
},
{
closed = 1;
nodes = (
"240 0 LINE",
"280 0 LINE",
"280 80 LINE",
"240 80 LINE"
);
},
{
closed = 1;
nodes = (
"200 80 LINE",
"240 80 LINE",
"240 120 LINE",
"200 120 LINE"
);
}
);
width = 320;
}
);
note = u_n_o_w_n_s.liga;
},
{
glyphname = u_n_o_w_n_t.liga;
lastChange = "2017-07-22 05:54:05 +0000";
layers = (
{
layerId = "364DB8B9-29FE-4011-8AFD-DD56313284DA";
paths = (
{
closed = 1;
nodes = (
"80 160 LINE",
"200 160 LINE",
"200 200 LINE",
"160 200 LINE",
"160 240 LINE",
"240 240 LINE",
"240 280 LINE",
"40 280 LINE",
"40 240 LINE",
"120 240 LINE",
"120 200 LINE",
"80 200 LINE"
);
},
{
closed = 1;
nodes = (
"40 40 LINE",
"80 40 LINE",
"80 160 LINE",
"40 160 LINE"
);
},
{
closed = 1;
nodes = (
"80 0 LINE",
"200 0 LINE",
"200 40 LINE",
"80 40 LINE"
);
},
{
closed = 1;
nodes = (
"120 80 LINE",
"160 80 LINE",
"160 120 LINE",
"120 120 LINE"
);
},
{
closed = 1;
nodes = (
"200 40 LINE",
"240 40 LINE",
"240 160 LINE",
"200 160 LINE"
);
}
);
width = 320;
}
);
note = u_n_o_w_n_t.liga;
},
{
glyphname = u_n_o_w_n_u.liga;
lastChange = "2017-07-22 05:54:05 +0000";
layers = (
{
layerId = "364DB8B9-29FE-4011-8AFD-DD56313284DA";
paths = (
{
closed = 1;
nodes = (
"40 -40 LINE",
"240 -40 LINE",
"240 0 LINE",
"160 0 LINE",
"160 80 LINE",
"200 80 LINE",
"200 120 LINE",
"80 120 LINE",
"80 80 LINE",
"120 80 LINE",
"120 0 LINE",
"40 0 LINE"
);
},
{
closed = 1;
nodes = (
"0 0 LINE",
"40 0 LINE",
"40 40 LINE",
"0 40 LINE"
);
},
{
closed = 1;
nodes = (
"40 40 LINE",
"80 40 LINE",
"80 80 LINE",
"40 80 LINE"
);
},
{
closed = 1;
nodes = (
"40 120 LINE",
"80 120 LINE",
"80 200 LINE",
"40 200 LINE"
);
},
{
closed = 1;
nodes = (
"200 40 LINE",
"240 40 LINE",
"240 80 LINE",
"200 80 LINE"
);
},
{
closed = 1;
nodes = (
"240 0 LINE",
"280 0 LINE",
"280 40 LINE",
"240 40 LINE"
);
},
{
closed = 1;
nodes = (
"80 200 LINE",
"200 200 LINE",
"200 240 LINE",
"80 240 LINE"
);
},
{
closed = 1;
nodes = (
"200 120 LINE",
"240 120 LINE",
"240 200 LINE",
"200 200 LINE"
);
}
);
width = 320;
}
);
note = u_n_o_w_n_u.liga;
},
{
glyphname = u_n_o_w_n_v.liga;
lastChange = "2017-07-22 05:54:05 +0000";
layers = (
{
layerId = "364DB8B9-29FE-4011-8AFD-DD56313284DA";
paths = (
{
closed = 1;
nodes = (
"80 120 LINE",
"200 120 LINE",
"200 160 LINE",
"120 160 LINE",
"120 200 LINE",
"200 200 LINE",
"200 160 LINE",
"240 160 LINE",
"240 280 LINE",
"200 280 LINE",
"200 240 LINE",
"80 240 LINE",
"80 280 LINE",
"40 280 LINE",
"40 200 LINE",
"80 200 LINE"
);
},
{
closed = 1;
nodes = (
"40 40 LINE",
"80 40 LINE",
"80 120 LINE",
"40 120 LINE"
);
},
{
closed = 1;
nodes = (
"80 0 LINE",
"200 0 LINE",
"200 40 LINE",
"80 40 LINE"
);
},
{
closed = 1;
nodes = (
"200 40 LINE",
"240 40 LINE",
"240 120 LINE",
"200 120 LINE"
);
}
);
width = 320;
}
);
note = u_n_o_w_n_v.liga;
},
{
glyphname = u_n_o_w_n_w.liga;
lastChange = "2017-07-22 05:54:05 +0000";
layers = (
{
layerId = "364DB8B9-29FE-4011-8AFD-DD56313284DA";
paths = (
{
closed = 1;
nodes = (
"80 160 LINE",
"200 160 LINE",
"200 200 LINE",
"160 200 LINE",
"160 280 LINE",
"120 280 LINE",
"120 200 LINE",
"80 200 LINE"
);
},
{
closed = 1;
nodes = (
"40 40 LINE",
"80 40 LINE",
"80 160 LINE",
"40 160 LINE"
);
},
{
closed = 1;
nodes = (
"80 0 LINE",
"200 0 LINE",
"200 40 LINE",
"80 40 LINE"
);
},
{
closed = 1;
nodes = (
"120 80 LINE",
"160 80 LINE",
"160 120 LINE",
"120 120 LINE"
);
},
{
closed = 1;
nodes = (
"40 200 LINE",
"80 200 LINE",
"80 240 LINE",
"40 240 LINE"
);
},
{
closed = 1;
nodes = (
"200 40 LINE",
"240 40 LINE",
"240 160 LINE",
"200 160 LINE"
);
},
{
closed = 1;
nodes = (
"200 200 LINE",
"240 200 LINE",
"240 240 LINE",
"200 240 LINE"
);
}
);
width = 320;
}
);
note = u_n_o_w_n_w.liga;
},
{
glyphname = u_n_o_w_n_x.liga;
lastChange = "2017-07-22 05:54:05 +0000";
layers = (
{
layerId = "364DB8B9-29FE-4011-8AFD-DD56313284DA";
paths = (
{
closed = 1;
nodes = (
"80 200 LINE",
"200 200 LINE",
"200 240 LINE",
"80 240 LINE"
);
},
{
closed = 1;
nodes = (
"0 0 LINE",
"80 0 LINE",
"80 40 LINE",
"0 40 LINE"
);
},
{
closed = 1;
nodes = (
"40 80 LINE",
"80 80 LINE",
"80 200 LINE",
"40 200 LINE"
);
},
{
closed = 1;
nodes = (
"80 40 LINE",
"200 40 LINE",
"200 80 LINE",
"80 80 LINE"
);
},
{
closed = 1;
nodes = (
"200 0 LINE",
"280 0 LINE",
"280 40 LINE",
"200 40 LINE"
);
},
{
closed = 1;
nodes = (
"120 120 LINE",
"160 120 LINE",
"160 160 LINE",
"120 160 LINE"
);
},
{
closed = 1;
nodes = (
"0 240 LINE",
"80 240 LINE",
"80 280 LINE",
"0 280 LINE"
);
},
{
closed = 1;
nodes = (
"200 80 LINE",
"240 80 LINE",
"240 200 LINE",
"200 200 LINE"
);
},
{
closed = 1;
nodes = (
"200 240 LINE",
"280 240 LINE",
"280 280 LINE",
"200 280 LINE"
);
}
);
width = 320;
}
);
note = u_n_o_w_n_x.liga;
},
{
glyphname = u_n_o_w_n_y.liga;
lastChange = "2017-07-22 05:54:05 +0000";
layers = (
{
layerId = "364DB8B9-29FE-4011-8AFD-DD56313284DA";
paths = (
{
closed = 1;
nodes = (
"80 0 LINE",
"200 0 LINE",
"200 40 LINE",
"160 40 LINE",
"160 80 LINE",
"200 80 LINE",
"200 120 LINE",
"80 120 LINE",
"80 80 LINE",
"120 80 LINE",
"120 40 LINE",
"80 40 LINE"
);
},
{
closed = 1;
nodes = (
"40 120 LINE",
"80 120 LINE",
"80 200 LINE",
"40 200 LINE"
);
},
{
closed = 1;
nodes = (
"40 240 LINE",
"80 240 LINE",
"80 280 LINE",
"40 280 LINE"
);
},
{
closed = 1;
nodes = (
"80 200 LINE",
"200 200 LINE",
"200 240 LINE",
"80 240 LINE"
);
},
{
closed = 1;
nodes = (
"200 120 LINE",
"240 120 LINE",
"240 200 LINE",
"200 200 LINE"
);
},
{
closed = 1;
nodes = (
"200 240 LINE",
"240 240 LINE",
"240 280 LINE",
"200 280 LINE"
);
}
);
width = 320;
}
);
note = u_n_o_w_n_y.liga;
},
{
glyphname = u_n_o_w_n_z.liga;
lastChange = "2017-07-22 05:54:05 +0000";
layers = (
{
layerId = "364DB8B9-29FE-4011-8AFD-DD56313284DA";
paths = (
{
closed = 1;
nodes = (
"80 160 LINE",
"200 160 LINE",
"200 200 LINE",
"160 200 LINE",
"160 240 LINE",
"120 240 LINE",
"120 200 LINE",
"80 200 LINE"
);
},
{
closed = 1;
nodes = (
"160 -40 LINE",
"200 -40 LINE",
"200 0 LINE",
"160 0 LINE"
);
},
{
closed = 1;
nodes = (
"40 80 LINE",
"80 80 LINE",
"80 160 LINE",
"40 160 LINE"
);
},
{
closed = 1;
nodes = (
"120 0 LINE",
"160 0 LINE",
"160 40 LINE",
"200 40 LINE",
"200 80 LINE",
"80 80 LINE",
"80 40 LINE",
"120 40 LINE"
);
},
{
closed = 1;
nodes = (
"200 80 LINE",
"240 80 LINE",
"240 160 LINE",
"200 160 LINE"
);
},
{
closed = 1;
nodes = (
"80 240 LINE",
"120 240 LINE",
"120 280 LINE",
"80 280 LINE"
);
}
);
width = 320;
}
);
note = u_n_o_w_n_z.liga;
},
{
glyphname = uni5186;
lastChange = "2017-07-22 05:54:05 +0000";
layers = (
{
layerId = "364DB8B9-29FE-4011-8AFD-DD56313284DA";
paths = (
{
closed = 1;
nodes = (
"0 0 LINE",
"40 0 LINE",
"40 120 LINE",
"240 120 LINE",
"240 40 LINE",
"200 40 LINE",
"200 0 LINE",
"280 0 LINE",
"280 280 LINE",
"0 280 LINE"
);
},
{
closed = 1;
nodes = (
"40 160 LINE",
"40 240 LINE",
"120 240 LINE",
"120 160 LINE"
);
},
{
closed = 1;
nodes = (
"160 160 LINE",
"160 240 LINE",
"240 240 LINE",
"240 160 LINE"
);
}
);
width = 320;
}
);
note = uni5186;
unicode = 5186;
},
{
glyphname = uni3042;
lastChange = "2017-07-22 05:54:05 +0000";
layers = (
{
layerId = "364DB8B9-29FE-4011-8AFD-DD56313284DA";
paths = (
{
closed = 1;
nodes = (
"240 0 LINE",
"280 0 LINE",
"280 120 LINE",
"240 120 LINE",
"240 160 LINE",
"120 160 LINE",
"120 200 LINE",
"240 200 LINE",
"240 240 LINE",
"120 240 LINE",
"120 280 LINE",
"80 280 LINE",
"80 240 LINE",
"0 240 LINE",
"0 200 LINE",
"80 200 LINE",
"80 120 LINE",
"40 120 LINE",
"40 80 LINE",
"80 80 LINE",
"80 40 LINE",
"120 40 LINE",
"120 120 LINE",
"200 120 LINE",
"200 80 LINE",
"240 80 LINE"
);
},
{
closed = 1;
nodes = (
"0 0 LINE",
"40 0 LINE",
"40 80 LINE",
"0 80 LINE"
);
},
{
closed = 1;
nodes = (
"40 -40 LINE",
"120 -40 LINE",
"120 0 LINE",
"40 0 LINE"
);
},
{
closed = 1;
nodes = (
"120 0 LINE",
"160 0 LINE",
"160 40 LINE",
"120 40 LINE"
);
},
{
closed = 1;
nodes = (
"200 -40 LINE",
"240 -40 LINE",
"240 0 LINE",
"200 0 LINE"
);
},
{
closed = 1;
nodes = (
"160 40 LINE",
"200 40 LINE",
"200 80 LINE",
"160 80 LINE"
);
}
);
width = 320;
}
);
note = uni3042;
unicode = 3042;
},
{
glyphname = uni3041;
lastChange = "2017-07-22 05:54:05 +0000";
layers = (
{
layerId = "364DB8B9-29FE-4011-8AFD-DD56313284DA";
paths = (
{
closed = 1;
nodes = (
"120 0 LINE",
"160 0 LINE",
"160 40 LINE",
"200 40 LINE",
"200 80 LINE",
"120 80 LINE",
"120 120 LINE",
"200 120 LINE",
"200 160 LINE",
"120 160 LINE",
"120 200 LINE",
"80 200 LINE",
"80 160 LINE",
"40 160 LINE",
"40 120 LINE",
"80 120 LINE",
"80 80 LINE",
"40 80 LINE",
"40 40 LINE",
"120 40 LINE"
);
},
{
closed = 1;
nodes = (
"0 0 LINE",
"40 0 LINE",
"40 40 LINE",
"0 40 LINE"
);
},
{
closed = 1;
nodes = (
"40 -40 LINE",
"120 -40 LINE",
"120 0 LINE",
"40 0 LINE"
);
},
{
closed = 1;
nodes = (
"200 -40 LINE",
"240 -40 LINE",
"240 40 LINE",
"200 40 LINE"
);
}
);
width = 320;
}
);
note = uni3041;
unicode = 3041;
},
{
glyphname = uni3044;
lastChange = "2017-07-22 05:54:05 +0000";
layers = (
{
layerId = "364DB8B9-29FE-4011-8AFD-DD56313284DA";
paths = (
{
closed = 1;
nodes = (
"0 40 LINE",
"40 40 LINE",
"40 240 LINE",
"0 240 LINE"
);
},
{
closed = 1;
nodes = (
"40 0 LINE",
"80 0 LINE",
"80 40 LINE",
"40 40 LINE"
);
},
{
closed = 1;
nodes = (
"80 -40 LINE",
"120 -40 LINE",
"120 0 LINE",
"80 0 LINE"
);
},
{
closed = 1;
nodes = (
"120 0 LINE",
"160 0 LINE",
"160 40 LINE",
"120 40 LINE"
);
},
{
closed = 1;
nodes = (
"240 40 LINE",
"280 40 LINE",
"280 200 LINE",
"240 200 LINE"
);
},
{
closed = 1;
nodes = (
"200 200 LINE",
"240 200 LINE",
"240 240 LINE",
"200 240 LINE"
);
}
);
width = 320;
}
);
note = uni3044;
unicode = 3044;
},
{
glyphname = uni3043;
lastChange = "2017-07-22 05:54:05 +0000";
layers = (
{
layerId = "364DB8B9-29FE-4011-8AFD-DD56313284DA";
paths = (
{
closed = 1;
nodes = (
"0 0 LINE",
"40 0 LINE",
"40 120 LINE",
"0 120 LINE"
);
},
{
closed = 1;
nodes = (
"40 -40 LINE",
"80 -40 LINE",
"80 0 LINE",
"40 0 LINE"
);
},
{
closed = 1;
nodes = (
"160 0 LINE",
"200 0 LINE",
"200 80 LINE",
"160 80 LINE"
);
},
{
closed = 1;
nodes = (
"120 80 LINE",
"160 80 LINE",
"160 120 LINE",
"120 120 LINE"
);
}
);
width = 320;
}
);
note = uni3043;
unicode = 3043;
},
{
glyphname = uni3046;
lastChange = "2017-07-22 05:54:05 +0000";
layers = (
{
layerId = "364DB8B9-29FE-4011-8AFD-DD56313284DA";
paths = (
{
closed = 1;
nodes = (
"40 240 LINE",
"200 240 LINE",
"200 280 LINE",
"40 280 LINE"
);
},
{
closed = 1;
nodes = (
"80 -40 LINE",
"160 -40 LINE",
"160 0 LINE",
"80 0 LINE"
);
},
{
closed = 1;
nodes = (
"40 120 LINE",
"80 120 LINE",
"80 160 LINE",
"40 160 LINE"
);
},
{
closed = 1;
nodes = (
"160 0 LINE",
"200 0 LINE",
"200 40 LINE",
"160 40 LINE"
);
},
{
closed = 1;
nodes = (
"80 160 LINE",
"200 160 LINE",
"200 200 LINE",
"80 200 LINE"
);
},
{
closed = 1;
nodes = (
"200 40 LINE",
"240 40 LINE",
"240 160 LINE",
"200 160 LINE"
);
}
);
width = 320;
}
);
note = uni3046;
unicode = 3046;
},
{
glyphname = uni3045;
lastChange = "2017-07-22 05:54:05 +0000";
layers = (
{
layerId = "364DB8B9-29FE-4011-8AFD-DD56313284DA";
paths = (
{
closed = 1;
nodes = (
"40 160 LINE",
"120 160 LINE",
"120 200 LINE",
"40 200 LINE"
);
},
{
closed = 1;
nodes = (
"40 -40 LINE",
"120 -40 LINE",
"120 0 LINE",
"40 0 LINE"
);
},
{
closed = 1;
nodes = (
"0 40 LINE",
"40 40 LINE",
"40 80 LINE",
"0 80 LINE"
);
},
{
closed = 1;
nodes = (
"40 80 LINE",
"120 80 LINE",
"120 120 LINE",
"40 120 LINE"
);
},
{
closed = 1;
nodes = (
"120 0 LINE",
"160 0 LINE",
"160 80 LINE",
"120 80 LINE"
);
}
);
width = 320;
}
);
note = uni3045;
unicode = 3045;
},
{
glyphname = uni3048;
lastChange = "2017-07-22 05:54:05 +0000";
layers = (
{
layerId = "364DB8B9-29FE-4011-8AFD-DD56313284DA";
paths = (
{
closed = 1;
nodes = (
"160 120 LINE",
"200 120 LINE",
"200 160 LINE",
"240 160 LINE",
"240 200 LINE",
"40 200 LINE",
"40 160 LINE",
"160 160 LINE"
);
},
{
closed = 1;
nodes = (
"0 -40 LINE",
"40 -40 LINE",
"40 0 LINE",
"0 0 LINE"
);
},
{
closed = 1;
nodes = (
"40 0 LINE",
"80 0 LINE",
"80 40 LINE",
"40 40 LINE"
);
},
{
closed = 1;
nodes = (
"160 0 LINE",
"200 0 LINE",
"200 80 LINE",
"160 80 LINE",
"160 120 LINE",
"120 120 LINE",
"120 80 LINE",
"80 80 LINE",
"80 40 LINE",
"160 40 LINE"
);
},
{
closed = 1;
nodes = (
"200 -40 LINE",
"280 -40 LINE",
"280 0 LINE",
"200 0 LINE"
);
},
{
closed = 1;
nodes = (
"80 240 LINE",
"160 240 LINE",
"160 280 LINE",
"80 280 LINE"
);
}
);
width = 320;
}
);
note = uni3048;
unicode = 3048;
},
{
glyphname = uni3047;
lastChange = "2017-07-22 05:54:05 +0000";
layers = (
{
layerId = "364DB8B9-29FE-4011-8AFD-DD56313284DA";
paths = (
{
closed = 1;
nodes = (
"40 0 LINE",
"120 0 LINE",
"120 80 LINE",
"160 80 LINE",
"160 120 LINE",
"0 120 LINE",
"0 80 LINE",
"80 80 LINE",
"80 40 LINE",
"40 40 LINE"
);
},
{
closed = 1;
nodes = (
"0 -40 LINE",
"40 -40 LINE",
"40 0 LINE",
"0 0 LINE"
);
},
{
closed = 1;
nodes = (
"120 -40 LINE",
"160 -40 LINE",
"160 0 LINE",
"120 0 LINE"
);
},
{
closed = 1;
nodes = (
"40 160 LINE",
"120 160 LINE",
"120 200 LINE",
"40 200 LINE"
);
}
);
width = 320;
}
);
note = uni3047;
unicode = 3047;
},
{
glyphname = uni304A;
lastChange = "2017-07-22 05:54:05 +0000";
layers = (
{
layerId = "364DB8B9-29FE-4011-8AFD-DD56313284DA";
paths = (
{
closed = 1;
nodes = (
"40 -40 LINE",
"120 -40 LINE",
"120 120 LINE",
"240 120 LINE",
"240 160 LINE",
"120 160 LINE",
"120 200 LINE",
"200 200 LINE",
"200 240 LINE",
"120 240 LINE",
"120 280 LINE",
"80 280 LINE",
"80 240 LINE",
"0 240 LINE",
"0 200 LINE",
"80 200 LINE",
"80 120 LINE",
"40 120 LINE",
"40 80 LINE",
"80 80 LINE",
"80 0 LINE",
"40 0 LINE"
);
},
{
closed = 1;
nodes = (
"0 0 LINE",
"40 0 LINE",
"40 80 LINE",
"0 80 LINE"
);
},
{
closed = 1;
nodes = (
"200 -40 LINE",
"240 -40 LINE",
"240 0 LINE",
"200 0 LINE"
);
},
{
closed = 1;
nodes = (
"240 0 LINE",
"280 0 LINE",
"280 120 LINE",
"240 120 LINE"
);
},
{
closed = 1;
nodes = (
"240 200 LINE",
"280 200 LINE",
"280 280 LINE",
"240 280 LINE"
);
}
);
width = 320;
}
);
note = uni304A;
unicode = 304A;
},
{
glyphname = uni3049;
lastChange = "2017-07-22 05:54:05 +0000";
layers = (
{
layerId = "364DB8B9-29FE-4011-8AFD-DD56313284DA";
paths = (
{
closed = 1;
nodes = (
"40 -40 LINE",
"120 -40 LINE",
"120 40 LINE",
"160 40 LINE",
"160 80 LINE",
"120 80 LINE",
"120 120 LINE",
"160 120 LINE",
"160 160 LINE",
"120 160 LINE",
"120 200 LINE",
"80 200 LINE",
"80 160 LINE",
"40 160 LINE",
"40 120 LINE",
"80 120 LINE",
"80 80 LINE",
"40 80 LINE",
"40 40 LINE",
"80 40 LINE",
"80 0 LINE",
"40 0 LINE"
);
},
{
closed = 1;
nodes = (
"0 0 LINE",
"40 0 LINE",
"40 40 LINE",
"0 40 LINE"
);
},
{
closed = 1;
nodes = (
"160 -40 LINE",
"200 -40 LINE",
"200 40 LINE",
"160 40 LINE"
);
},
{
closed = 1;
nodes = (
"200 120 LINE",
"240 120 LINE",
"240 160 LINE",
"200 160 LINE"
);
}
);
width = 320;
}
);
note = uni3049;
unicode = 3049;
},
{
glyphname = uni304B;
lastChange = "2017-07-22 05:54:05 +0000";
layers = (
{
layerId = "364DB8B9-29FE-4011-8AFD-DD56313284DA";
paths = (
{
closed = 1;
nodes = (
"40 80 LINE",
"80 80 LINE",
"80 160 LINE",
"160 160 LINE",
"160 200 LINE",
"80 200 LINE",
"80 280 LINE",
"40 280 LINE",
"40 200 LINE",
"0 200 LINE",
"0 160 LINE",
"40 160 LINE"
);
},
{
closed = 1;
nodes = (
"0 40 LINE",
"40 40 LINE",
"40 80 LINE",
"0 80 LINE"
);
},
{
closed = 1;
nodes = (
"80 -40 LINE",
"160 -40 LINE",
"160 0 LINE",
"80 0 LINE"
);
},
{
closed = 1;
nodes = (
"160 0 LINE",
"200 0 LINE",
"200 160 LINE",
"160 160 LINE"
);
},
{
closed = 1;
nodes = (
"240 120 LINE",
"280 120 LINE",
"280 200 LINE",
"240 200 LINE"
);
},
{
closed = 1;
nodes = (
"200 200 LINE",
"240 200 LINE",
"240 240 LINE",
"200 240 LINE"
);
}
);
width = 320;
}
);
note = uni304B;
unicode = 304B;
},
{
glyphname = uni3095;
lastChange = "2017-07-22 05:54:05 +0000";
layers = (
{
layerId = "364DB8B9-29FE-4011-8AFD-DD56313284DA";
paths = (
{
closed = 1;
nodes = (
"40 40 LINE",
"80 40 LINE",
"80 80 LINE",
"120 80 LINE",
"120 120 LINE",
"80 120 LINE",
"80 160 LINE",
"40 160 LINE",
"40 120 LINE",
"0 120 LINE",
"0 80 LINE",
"40 80 LINE"
);
},
{
closed = 1;
nodes = (
"0 0 LINE",
"40 0 LINE",
"40 40 LINE",
"0 40 LINE"
);
},
{
closed = 1;
nodes = (
"80 -40 LINE",
"120 -40 LINE",
"120 0 LINE",
"80 0 LINE"
);
},
{
closed = 1;
nodes = (
"120 0 LINE",
"160 0 LINE",
"160 80 LINE",
"120 80 LINE"
);
},
{
closed = 1;
nodes = (
"160 120 LINE",
"200 120 LINE",
"200 160 LINE",
"160 160 LINE"
);
},
{
closed = 1;
nodes = (
"200 80 LINE",
"240 80 LINE",
"240 120 LINE",
"200 120 LINE"
);
}
);
width = 320;
}
);
note = uni3095;
unicode = 3095;
},
{
glyphname = uni304C;
lastChange = "2017-07-22 05:54:05 +0000";
layers = (
{
layerId = "364DB8B9-29FE-4011-8AFD-DD56313284DA";
paths = (
{
closed = 1;
nodes = (
"40 80 LINE",
"80 80 LINE",
"80 160 LINE",
"160 160 LINE",
"160 200 LINE",
"80 200 LINE",
"80 280 LINE",
"40 280 LINE",
"40 200 LINE",
"0 200 LINE",
"0 160 LINE",
"40 160 LINE"
);
},
{
closed = 1;
nodes = (
"0 40 LINE",
"40 40 LINE",
"40 80 LINE",
"0 80 LINE"
);
},
{
closed = 1;
nodes = (
"80 -40 LINE",
"160 -40 LINE",
"160 0 LINE",
"80 0 LINE"
);
},
{
closed = 1;
nodes = (
"160 0 LINE",
"200 0 LINE",
"200 160 LINE",
"160 160 LINE"
);
},
{
closed = 1;
nodes = (
"240 120 LINE",
"280 120 LINE",
"280 200 LINE",
"240 200 LINE"
);
},
{
closed = 1;
nodes = (
"200 200 LINE",
"240 200 LINE",
"240 240 LINE",
"200 240 LINE"
);
},
{
closed = 1;
nodes = (
"120 320 LINE",
"160 320 LINE",
"160 360 LINE",
"120 360 LINE"
);
},
{
closed = 1;
nodes = (
"160 280 LINE",
"200 280 LINE",
"200 320 LINE",
"160 320 LINE"
);
},
{
closed = 1;
nodes = (
"200 360 LINE",
"240 360 LINE",
"240 400 LINE",
"200 400 LINE"
);
},
{
closed = 1;
nodes = (
"240 320 LINE",
"280 320 LINE",
"280 360 LINE",
"240 360 LINE"
);
}
);
width = 320;
}
);
note = uni304C;
unicode = 304C;
},
{
glyphname = uni304D;
lastChange = "2017-07-22 05:54:05 +0000";
layers = (
{
layerId = "364DB8B9-29FE-4011-8AFD-DD56313284DA";
paths = (
{
closed = 1;
nodes = (
"160 40 LINE",
"240 40 LINE",
"240 120 LINE",
"280 120 LINE",
"280 160 LINE",
"200 160 LINE",
"200 200 LINE",
"280 200 LINE",
"280 240 LINE",
"160 240 LINE",
"160 280 LINE",
"120 280 LINE",
"120 240 LINE",
"0 240 LINE",
"0 200 LINE",
"160 200 LINE",
"160 160 LINE",
"0 160 LINE",
"0 120 LINE",
"200 120 LINE",
"200 80 LINE",
"160 80 LINE"
);
},
{
closed = 1;
nodes = (
"0 0 LINE",
"40 0 LINE",
"40 80 LINE",
"0 80 LINE"
);
},
{
closed = 1;
nodes = (
"40 -40 LINE",
"240 -40 LINE",
"240 0 LINE",
"40 0 LINE"
);
}
);
width = 320;
}
);
note = uni304D;
unicode = 304D;
},
{
glyphname = uni304E;
lastChange = "2017-07-22 05:54:05 +0000";
layers = (
{
layerId = "364DB8B9-29FE-4011-8AFD-DD56313284DA";
paths = (
{
closed = 1;
nodes = (
"160 40 LINE",
"240 40 LINE",
"240 120 LINE",
"280 120 LINE",
"280 160 LINE",
"200 160 LINE",
"200 200 LINE",
"280 200 LINE",
"280 240 LINE",
"160 240 LINE",
"160 280 LINE",
"120 280 LINE",
"120 240 LINE",
"0 240 LINE",
"0 200 LINE",
"160 200 LINE",
"160 160 LINE",
"0 160 LINE",
"0 120 LINE",
"200 120 LINE",
"200 80 LINE",
"160 80 LINE"
);
},
{
closed = 1;
nodes = (
"0 0 LINE",
"40 0 LINE",
"40 80 LINE",
"0 80 LINE"
);
},
{
closed = 1;
nodes = (
"40 -40 LINE",
"240 -40 LINE",
"240 0 LINE",
"40 0 LINE"
);
},
{
closed = 1;
nodes = (
"120 320 LINE",
"160 320 LINE",
"160 360 LINE",
"120 360 LINE"
);
},
{
closed = 1;
nodes = (
"160 280 LINE",
"200 280 LINE",
"200 320 LINE",
"160 320 LINE"
);
},
{
closed = 1;
nodes = (
"200 360 LINE",
"240 360 LINE",
"240 400 LINE",
"200 400 LINE"
);
},
{
closed = 1;
nodes = (
"240 320 LINE",
"280 320 LINE",
"280 360 LINE",
"240 360 LINE"
);
}
);
width = 320;
}
);
note = uni304E;
unicode = 304E;
},
{
glyphname = uni304F;
lastChange = "2017-07-22 05:54:05 +0000";
layers = (
{
layerId = "364DB8B9-29FE-4011-8AFD-DD56313284DA";
paths = (
{
closed = 1;
nodes = (
"0 80 LINE",
"40 80 LINE",
"40 160 LINE",
"0 160 LINE"
);
},
{
closed = 1;
nodes = (
"40 40 LINE",
"80 40 LINE",
"80 80 LINE",
"40 80 LINE"
);
},
{
closed = 1;
nodes = (
"80 0 LINE",
"120 0 LINE",
"120 40 LINE",
"80 40 LINE"
);
},
{
closed = 1;
nodes = (
"120 -40 LINE",
"160 -40 LINE",
"160 0 LINE",
"120 0 LINE"
);
},
{
closed = 1;
nodes = (
"40 160 LINE",
"80 160 LINE",
"80 200 LINE",
"40 200 LINE"
);
},
{
closed = 1;
nodes = (
"80 200 LINE",
"120 200 LINE",
"120 240 LINE",
"80 240 LINE"
);
},
{
closed = 1;
nodes = (
"120 240 LINE",
"160 240 LINE",
"160 280 LINE",
"120 280 LINE"
);
}
);
width = 320;
}
);
note = uni304F;
unicode = 304F;
},
{
glyphname = uni3050;
lastChange = "2017-07-22 05:54:05 +0000";
layers = (
{
layerId = "364DB8B9-29FE-4011-8AFD-DD56313284DA";
paths = (
{
closed = 1;
nodes = (
"0 80 LINE",
"40 80 LINE",
"40 160 LINE",
"0 160 LINE"
);
},
{
closed = 1;
nodes = (
"40 40 LINE",
"80 40 LINE",
"80 80 LINE",
"40 80 LINE"
);
},
{
closed = 1;
nodes = (
"80 0 LINE",
"120 0 LINE",
"120 40 LINE",
"80 40 LINE"
);
},
{
closed = 1;
nodes = (
"120 -40 LINE",
"160 -40 LINE",
"160 0 LINE",
"120 0 LINE"
);
},
{
closed = 1;
nodes = (
"40 160 LINE",
"80 160 LINE",
"80 200 LINE",
"40 200 LINE"
);
},
{
closed = 1;
nodes = (
"120 120 LINE",
"160 120 LINE",
"160 160 LINE",
"120 160 LINE"
);
},
{
closed = 1;
nodes = (
"160 80 LINE",
"200 80 LINE",
"200 120 LINE",
"160 120 LINE"
);
},
{
closed = 1;
nodes = (
"80 200 LINE",
"120 200 LINE",
"120 240 LINE",
"80 240 LINE"
);
},
{
closed = 1;
nodes = (
"120 240 LINE",
"160 240 LINE",
"160 280 LINE",
"120 280 LINE"
);
},
{
closed = 1;
nodes = (
"200 160 LINE",
"240 160 LINE",
"240 200 LINE",
"200 200 LINE"
);
},
{
closed = 1;
nodes = (
"240 120 LINE",
"280 120 LINE",
"280 160 LINE",
"240 160 LINE"
);
}
);
width = 320;
}
);
note = uni3050;
unicode = 3050;
},
{
glyphname = uni3051;
lastChange = "2017-07-22 05:54:05 +0000";
layers = (
{
layerId = "364DB8B9-29FE-4011-8AFD-DD56313284DA";
paths = (
{
closed = 1;
nodes = (
"200 0 LINE",
"240 0 LINE",
"240 160 LINE",
"280 160 LINE",
"280 200 LINE",
"240 200 LINE",
"240 280 LINE",
"200 280 LINE",
"200 200 LINE",
"120 200 LINE",
"120 160 LINE",
"200 160 LINE"
);
},
{
closed = 1;
nodes = (
"0 0 LINE",
"40 0 LINE",
"40 240 LINE",
"0 240 LINE"
);
},
{
closed = 1;
nodes = (
"160 -40 LINE",
"200 -40 LINE",
"200 0 LINE",
"160 0 LINE"
);
}
);
width = 320;
}
);
note = uni3051;
unicode = 3051;
},
{
glyphname = uni3052;
lastChange = "2017-07-22 05:54:05 +0000";
layers = (
{
layerId = "364DB8B9-29FE-4011-8AFD-DD56313284DA";
paths = (
{
closed = 1;
nodes = (
"200 0 LINE",
"240 0 LINE",
"240 160 LINE",
"280 160 LINE",
"280 200 LINE",
"240 200 LINE",
"240 280 LINE",
"200 280 LINE",
"200 200 LINE",
"120 200 LINE",
"120 160 LINE",
"200 160 LINE"
);
},
{
closed = 1;
nodes = (
"0 0 LINE",
"40 0 LINE",
"40 240 LINE",
"0 240 LINE"
);
},
{
closed = 1;
nodes = (
"160 -40 LINE",
"200 -40 LINE",
"200 0 LINE",
"160 0 LINE"
);
},
{
closed = 1;
nodes = (
"120 320 LINE",
"160 320 LINE",
"160 360 LINE",
"120 360 LINE"
);
},
{
closed = 1;
nodes = (
"160 280 LINE",
"200 280 LINE",
"200 320 LINE",
"160 320 LINE"
);
},
{
closed = 1;
nodes = (
"200 360 LINE",
"240 360 LINE",
"240 400 LINE",
"200 400 LINE"
);
},
{
closed = 1;
nodes = (
"240 320 LINE",
"280 320 LINE",
"280 360 LINE",
"240 360 LINE"
);
}
);
width = 320;
}
);
note = uni3052;
unicode = 3052;
},
{
glyphname = uni3096;
lastChange = "2017-07-22 05:54:05 +0000";
layers = (
{
layerId = "364DB8B9-29FE-4011-8AFD-DD56313284DA";
paths = (
{
closed = 1;
nodes = (
"120 0 LINE",
"160 0 LINE",
"160 80 LINE",
"200 80 LINE",
"200 120 LINE",
"160 120 LINE",
"160 160 LINE",
"120 160 LINE",
"120 120 LINE",
"80 120 LINE",
"80 80 LINE",
"120 80 LINE"
);
},
{
closed = 1;
nodes = (
"0 -40 LINE",
"40 -40 LINE",
"40 160 LINE",
"0 160 LINE"
);
},
{
closed = 1;
nodes = (
"80 -40 LINE",
"120 -40 LINE",
"120 0 LINE",
"80 0 LINE"
);
}
);
width = 320;
}
);
note = uni3096;
unicode = 3096;
},
{
glyphname = uni3053;
lastChange = "2017-07-22 05:54:05 +0000";
layers = (
{
layerId = "364DB8B9-29FE-4011-8AFD-DD56313284DA";
paths = (
{
closed = 1;
nodes = (
"40 -40 LINE",
"280 -40 LINE",
"280 0 LINE",
"40 0 LINE"
);
},
{
closed = 1;
nodes = (
"0 0 LINE",
"40 0 LINE",
"40 40 LINE",
"0 40 LINE"
);
},
{
closed = 1;
nodes = (
"40 200 LINE",
"240 200 LINE",
"240 240 LINE",
"40 240 LINE"
);
},
{
closed = 1;
nodes = (
"240 160 LINE",
"280 160 LINE",
"280 200 LINE",
"240 200 LINE"
);
}
);
width = 320;
}
);
note = uni3053;
unicode = 3053;
},
{
glyphname = uni3054;
lastChange = "2017-07-22 05:54:05 +0000";
layers = (
{
layerId = "364DB8B9-29FE-4011-8AFD-DD56313284DA";
paths = (
{
closed = 1;
nodes = (
"40 -40 LINE",
"280 -40 LINE",
"280 0 LINE",
"40 0 LINE"
);
},
{
closed = 1;
nodes = (
"0 0 LINE",
"40 0 LINE",
"40 40 LINE",
"0 40 LINE"
);
},
{
closed = 1;
nodes = (
"40 200 LINE",
"240 200 LINE",
"240 240 LINE",
"40 240 LINE"
);
},
{
closed = 1;
nodes = (
"240 160 LINE",
"280 160 LINE",
"280 200 LINE",
"240 200 LINE"
);
},
{
closed = 1;
nodes = (
"120 320 LINE",
"160 320 LINE",
"160 360 LINE",
"120 360 LINE"
);
},
{
closed = 1;
nodes = (
"160 280 LINE",
"200 280 LINE",
"200 320 LINE",
"160 320 LINE"
);
},
{
closed = 1;
nodes = (
"200 360 LINE",
"240 360 LINE",
"240 400 LINE",
"200 400 LINE"
);
},
{
closed = 1;
nodes = (
"240 320 LINE",
"280 320 LINE",
"280 360 LINE",
"240 360 LINE"
);
}
);
width = 320;
}
);
note = uni3054;
unicode = 3054;
},
{
glyphname = uni3055;
lastChange = "2017-07-22 05:54:05 +0000";
layers = (
{
layerId = "364DB8B9-29FE-4011-8AFD-DD56313284DA";
paths = (
{
closed = 1;
nodes = (
"40 80 LINE",
"240 80 LINE",
"240 120 LINE",
"200 120 LINE",
"200 160 LINE",
"280 160 LINE",
"280 200 LINE",
"160 200 LINE",
"160 240 LINE",
"120 240 LINE",
"120 200 LINE",
"0 200 LINE",
"0 160 LINE",
"160 160 LINE",
"160 120 LINE",
"40 120 LINE"
);
},
{
closed = 1;
nodes = (
"0 0 LINE",
"40 0 LINE",
"40 80 LINE",
"0 80 LINE"
);
},
{
closed = 1;
nodes = (
"40 -40 LINE",
"240 -40 LINE",
"240 0 LINE",
"40 0 LINE"
);
},
{
closed = 1;
nodes = (
"80 240 LINE",
"120 240 LINE",
"120 280 LINE",
"80 280 LINE"
);
}
);
width = 320;
}
);
note = uni3055;
unicode = 3055;
},
{
glyphname = uni3056;
lastChange = "2017-07-22 05:54:05 +0000";
layers = (
{
layerId = "364DB8B9-29FE-4011-8AFD-DD56313284DA";
paths = (
{
closed = 1;
nodes = (
"40 80 LINE",
"240 80 LINE",
"240 120 LINE",
"200 120 LINE",
"200 160 LINE",
"280 160 LINE",
"280 200 LINE",
"160 200 LINE",
"160 240 LINE",
"120 240 LINE",
"120 200 LINE",
"0 200 LINE",
"0 160 LINE",
"160 160 LINE",
"160 120 LINE",
"40 120 LINE"
);
},
{
closed = 1;
nodes = (
"0 0 LINE",
"40 0 LINE",
"40 80 LINE",
"0 80 LINE"
);
},
{
closed = 1;
nodes = (
"40 -40 LINE",
"240 -40 LINE",
"240 0 LINE",
"40 0 LINE"
);
},
{
closed = 1;
nodes = (
"80 240 LINE",
"120 240 LINE",
"120 280 LINE",
"80 280 LINE"
);
},
{
closed = 1;
nodes = (
"120 320 LINE",
"160 320 LINE",
"160 360 LINE",
"120 360 LINE"
);
},
{
closed = 1;
nodes = (
"160 280 LINE",
"200 280 LINE",
"200 320 LINE",
"160 320 LINE"
);
},
{
closed = 1;
nodes = (
"200 360 LINE",
"240 360 LINE",
"240 400 LINE",
"200 400 LINE"
);
},
{
closed = 1;
nodes = (
"240 320 LINE",
"280 320 LINE",
"280 360 LINE",
"240 360 LINE"
);
}
);
width = 320;
}
);
note = uni3056;
unicode = 3056;
},
{
glyphname = uni3057;
lastChange = "2017-07-22 05:54:05 +0000";
layers = (
{
layerId = "364DB8B9-29FE-4011-8AFD-DD56313284DA";
paths = (
{
closed = 1;
nodes = (
"40 0 LINE",
"80 0 LINE",
"80 280 LINE",
"40 280 LINE"
);
},
{
closed = 1;
nodes = (
"80 -40 LINE",
"200 -40 LINE",
"200 0 LINE",
"80 0 LINE"
);
},
{
closed = 1;
nodes = (
"200 0 LINE",
"240 0 LINE",
"240 80 LINE",
"200 80 LINE"
);
}
);
width = 320;
}
);
note = uni3057;
unicode = 3057;
},
{
glyphname = uni3058;
lastChange = "2017-07-22 05:54:05 +0000";
layers = (
{
layerId = "364DB8B9-29FE-4011-8AFD-DD56313284DA";
paths = (
{
closed = 1;
nodes = (
"40 0 LINE",
"80 0 LINE",
"80 280 LINE",
"40 280 LINE"
);
},
{
closed = 1;
nodes = (
"80 -40 LINE",
"200 -40 LINE",
"200 0 LINE",
"80 0 LINE"
);
},
{
closed = 1;
nodes = (
"200 0 LINE",
"240 0 LINE",
"240 80 LINE",
"200 80 LINE"
);
},
{
closed = 1;
nodes = (
"120 200 LINE",
"160 200 LINE",
"160 240 LINE",
"120 240 LINE"
);
},
{
closed = 1;
nodes = (
"160 160 LINE",
"200 160 LINE",
"200 200 LINE",
"160 200 LINE"
);
},
{
closed = 1;
nodes = (
"200 240 LINE",
"240 240 LINE",
"240 280 LINE",
"200 280 LINE"
);
},
{
closed = 1;
nodes = (
"240 200 LINE",
"280 200 LINE",
"280 240 LINE",
"240 240 LINE"
);
}
);
width = 320;
}
);
note = uni3058;
unicode = 3058;
},
{
glyphname = uni3059;
lastChange = "2017-07-22 05:54:05 +0000";
layers = (
{
layerId = "364DB8B9-29FE-4011-8AFD-DD56313284DA";
paths = (
{
closed = 1;
nodes = (
"200 0 LINE",
"240 0 LINE",
"240 200 LINE",
"280 200 LINE",
"280 240 LINE",
"240 240 LINE",
"240 280 LINE",
"200 280 LINE",
"200 240 LINE",
"0 240 LINE",
"0 200 LINE",
"200 200 LINE",
"200 160 LINE",
"80 160 LINE",
"80 120 LINE",
"200 120 LINE",
"200 80 LINE",
"80 80 LINE",
"80 40 LINE",
"200 40 LINE"
);
},
{
closed = 1;
nodes = (
"120 -40 LINE",
"200 -40 LINE",
"200 0 LINE",
"120 0 LINE"
);
},
{
closed = 1;
nodes = (
"40 80 LINE",
"80 80 LINE",
"80 120 LINE",
"40 120 LINE"
);
}
);
width = 320;
}
);
note = uni3059;
unicode = 3059;
},
{
glyphname = uni305A;
lastChange = "2017-07-22 05:54:05 +0000";
layers = (
{
layerId = "364DB8B9-29FE-4011-8AFD-DD56313284DA";
paths = (
{
closed = 1;
nodes = (
"200 0 LINE",
"240 0 LINE",
"240 200 LINE",
"280 200 LINE",
"280 240 LINE",
"240 240 LINE",
"240 280 LINE",
"200 280 LINE",
"200 240 LINE",
"0 240 LINE",
"0 200 LINE",
"200 200 LINE",
"200 160 LINE",
"80 160 LINE",
"80 120 LINE",
"200 120 LINE",
"200 80 LINE",
"80 80 LINE",
"80 40 LINE",
"200 40 LINE"
);
},
{
closed = 1;
nodes = (
"120 -40 LINE",
"200 -40 LINE",
"200 0 LINE",
"120 0 LINE"
);
},
{
closed = 1;
nodes = (
"40 80 LINE",
"80 80 LINE",
"80 120 LINE",
"40 120 LINE"
);
},
{
closed = 1;
nodes = (
"120 320 LINE",
"160 320 LINE",
"160 360 LINE",
"120 360 LINE"
);
},
{
closed = 1;
nodes = (
"160 280 LINE",
"200 280 LINE",
"200 320 LINE",
"160 320 LINE"
);
},
{
closed = 1;
nodes = (
"200 360 LINE",
"240 360 LINE",
"240 400 LINE",
"200 400 LINE"
);
},
{
closed = 1;
nodes = (
"240 320 LINE",
"280 320 LINE",
"280 360 LINE",
"240 360 LINE"
);
}
);
width = 320;
}
);
note = uni305A;
unicode = 305A;
},
{
glyphname = uni305B;
lastChange = "2017-07-22 05:54:05 +0000";
layers = (
{
layerId = "364DB8B9-29FE-4011-8AFD-DD56313284DA";
paths = (
{
closed = 1;
nodes = (
"40 0 LINE",
"80 0 LINE",
"80 160 LINE",
"200 160 LINE",
"200 80 LINE",
"240 80 LINE",
"240 160 LINE",
"280 160 LINE",
"280 200 LINE",
"240 200 LINE",
"240 280 LINE",
"200 280 LINE",
"200 200 LINE",
"80 200 LINE",
"80 280 LINE",
"40 280 LINE",
"40 200 LINE",
"0 200 LINE",
"0 160 LINE",
"40 160 LINE"
);
},
{
closed = 1;
nodes = (
"80 -40 LINE",
"240 -40 LINE",
"240 0 LINE",
"80 0 LINE"
);
},
{
closed = 1;
nodes = (
"160 40 LINE",
"200 40 LINE",
"200 80 LINE",
"160 80 LINE"
);
}
);
width = 320;
}
);
note = uni305B;
unicode = 305B;
},
{
glyphname = uni305C;
lastChange = "2017-07-22 05:54:05 +0000";
layers = (
{
layerId = "364DB8B9-29FE-4011-8AFD-DD56313284DA";
paths = (
{
closed = 1;
nodes = (
"40 0 LINE",
"80 0 LINE",
"80 160 LINE",
"200 160 LINE",
"200 80 LINE",
"240 80 LINE",
"240 160 LINE",
"280 160 LINE",
"280 200 LINE",
"240 200 LINE",
"240 280 LINE",
"200 280 LINE",
"200 200 LINE",
"80 200 LINE",
"80 280 LINE",
"40 280 LINE",
"40 200 LINE",
"0 200 LINE",
"0 160 LINE",
"40 160 LINE"
);
},
{
closed = 1;
nodes = (
"80 -40 LINE",
"240 -40 LINE",
"240 0 LINE",
"80 0 LINE"
);
},
{
closed = 1;
nodes = (
"160 40 LINE",
"200 40 LINE",
"200 80 LINE",
"160 80 LINE"
);
},
{
closed = 1;
nodes = (
"120 320 LINE",
"160 320 LINE",
"160 360 LINE",
"120 360 LINE"
);
},
{
closed = 1;
nodes = (
"160 280 LINE",
"200 280 LINE",
"200 320 LINE",
"160 320 LINE"
);
},
{
closed = 1;
nodes = (
"200 360 LINE",
"240 360 LINE",
"240 400 LINE",
"200 400 LINE"
);
},
{
closed = 1;
nodes = (
"240 320 LINE",
"280 320 LINE",
"280 360 LINE",
"240 360 LINE"
);
}
);
width = 320;
}
);
note = uni305C;
unicode = 305C;
},
{
glyphname = uni305D;
lastChange = "2017-07-22 05:54:05 +0000";
layers = (
{
layerId = "364DB8B9-29FE-4011-8AFD-DD56313284DA";
paths = (
{
closed = 1;
nodes = (
"120 80 LINE",
"160 80 LINE",
"160 120 LINE",
"280 120 LINE",
"280 160 LINE",
"120 160 LINE",
"120 200 LINE",
"80 200 LINE",
"80 160 LINE",
"0 160 LINE",
"0 120 LINE",
"120 120 LINE"
);
},
{
closed = 1;
nodes = (
"80 0 LINE",
"120 0 LINE",
"120 80 LINE",
"80 80 LINE"
);
},
{
closed = 1;
nodes = (
"120 -40 LINE",
"240 -40 LINE",
"240 0 LINE",
"120 0 LINE"
);
},
{
closed = 1;
nodes = (
"120 200 LINE",
"160 200 LINE",
"160 240 LINE",
"240 240 LINE",
"240 280 LINE",
"40 280 LINE",
"40 240 LINE",
"120 240 LINE"
);
}
);
width = 320;
}
);
note = uni305D;
unicode = 305D;
},
{
glyphname = uni305E;
lastChange = "2017-07-22 05:54:05 +0000";
layers = (
{
layerId = "364DB8B9-29FE-4011-8AFD-DD56313284DA";
paths = (
{
closed = 1;
nodes = (
"120 80 LINE",
"160 80 LINE",
"160 120 LINE",
"280 120 LINE",
"280 160 LINE",
"120 160 LINE",
"120 200 LINE",
"80 200 LINE",
"80 160 LINE",
"0 160 LINE",
"0 120 LINE",
"120 120 LINE"
);
},
{
closed = 1;
nodes = (
"80 0 LINE",
"120 0 LINE",
"120 80 LINE",
"80 80 LINE"
);
},
{
closed = 1;
nodes = (
"120 -40 LINE",
"240 -40 LINE",
"240 0 LINE",
"120 0 LINE"
);
},
{
closed = 1;
nodes = (
"120 200 LINE",
"160 200 LINE",
"160 240 LINE",
"240 240 LINE",
"240 280 LINE",
"200 280 LINE",
"200 320 LINE",
"160 320 LINE",
"160 280 LINE",
"40 280 LINE",
"40 240 LINE",
"120 240 LINE"
);
},
{
closed = 1;
nodes = (
"120 320 LINE",
"160 320 LINE",
"160 360 LINE",
"120 360 LINE"
);
},
{
closed = 1;
nodes = (
"200 360 LINE",
"240 360 LINE",
"240 400 LINE",
"200 400 LINE"
);
},
{
closed = 1;
nodes = (
"240 320 LINE",
"280 320 LINE",
"280 360 LINE",
"240 360 LINE"
);
}
);
width = 320;
}
);
note = uni305E;
unicode = 305E;
},
{
glyphname = uni305F;
lastChange = "2017-07-22 05:54:05 +0000";
layers = (
{
layerId = "364DB8B9-29FE-4011-8AFD-DD56313284DA";
paths = (
{
closed = 1;
nodes = (
"40 40 LINE",
"80 40 LINE",
"80 160 LINE",
"240 160 LINE",
"240 200 LINE",
"120 200 LINE",
"120 280 LINE",
"80 280 LINE",
"80 200 LINE",
"0 200 LINE",
"0 160 LINE",
"40 160 LINE"
);
},
{
closed = 1;
nodes = (
"0 -40 LINE",
"40 -40 LINE",
"40 40 LINE",
"0 40 LINE"
);
},
{
closed = 1;
nodes = (
"120 0 LINE",
"160 0 LINE",
"160 40 LINE",
"120 40 LINE"
);
},
{
closed = 1;
nodes = (
"160 -40 LINE",
"280 -40 LINE",
"280 0 LINE",
"160 0 LINE"
);
},
{
closed = 1;
nodes = (
"120 80 LINE",
"280 80 LINE",
"280 120 LINE",
"120 120 LINE"
);
}
);
width = 320;
}
);
note = uni305F;
unicode = 305F;
},
{
glyphname = uni3060;
lastChange = "2017-07-22 05:54:05 +0000";
layers = (
{
layerId = "364DB8B9-29FE-4011-8AFD-DD56313284DA";
paths = (
{
closed = 1;
nodes = (
"40 40 LINE",
"80 40 LINE",
"80 160 LINE",
"240 160 LINE",
"240 200 LINE",
"120 200 LINE",
"120 280 LINE",
"80 280 LINE",
"80 200 LINE",
"0 200 LINE",
"0 160 LINE",
"40 160 LINE"
);
},
{
closed = 1;
nodes = (
"0 -40 LINE",
"40 -40 LINE",
"40 40 LINE",
"0 40 LINE"
);
},
{
closed = 1;
nodes = (
"120 0 LINE",
"160 0 LINE",
"160 40 LINE",
"120 40 LINE"
);
},
{
closed = 1;
nodes = (
"160 -40 LINE",
"280 -40 LINE",
"280 0 LINE",
"160 0 LINE"
);
},
{
closed = 1;
nodes = (
"120 80 LINE",
"280 80 LINE",
"280 120 LINE",
"120 120 LINE"
);
},
{
closed = 1;
nodes = (
"120 320 LINE",
"160 320 LINE",
"160 360 LINE",
"120 360 LINE"
);
},
{
closed = 1;
nodes = (
"160 280 LINE",
"200 280 LINE",
"200 320 LINE",
"160 320 LINE"
);
},
{
closed = 1;
nodes = (
"200 360 LINE",
"240 360 LINE",
"240 400 LINE",
"200 400 LINE"
);
},
{
closed = 1;
nodes = (
"240 320 LINE",
"280 320 LINE",
"280 360 LINE",
"240 360 LINE"
);
}
);
width = 320;
}
);
note = uni3060;
unicode = 3060;
},
{
glyphname = uni3061;
lastChange = "2017-07-22 05:54:05 +0000";
layers = (
{
layerId = "364DB8B9-29FE-4011-8AFD-DD56313284DA";
paths = (
{
closed = 1;
nodes = (
"40 40 LINE",
"80 40 LINE",
"80 80 LINE",
"240 80 LINE",
"240 120 LINE",
"80 120 LINE",
"80 160 LINE",
"240 160 LINE",
"240 200 LINE",
"120 200 LINE",
"120 280 LINE",
"80 280 LINE",
"80 200 LINE",
"0 200 LINE",
"0 160 LINE",
"40 160 LINE"
);
},
{
closed = 1;
nodes = (
"120 -40 LINE",
"240 -40 LINE",
"240 0 LINE",
"120 0 LINE"
);
},
{
closed = 1;
nodes = (
"240 0 LINE",
"280 0 LINE",
"280 80 LINE",
"240 80 LINE"
);
}
);
width = 320;
}
);
note = uni3061;
unicode = 3061;
},
{
glyphname = uni3062;
lastChange = "2017-07-22 05:54:05 +0000";
layers = (
{
layerId = "364DB8B9-29FE-4011-8AFD-DD56313284DA";
paths = (
{
closed = 1;
nodes = (
"40 40 LINE",
"80 40 LINE",
"80 80 LINE",
"240 80 LINE",
"240 120 LINE",
"80 120 LINE",
"80 160 LINE",
"240 160 LINE",
"240 200 LINE",
"120 200 LINE",
"120 280 LINE",
"80 280 LINE",
"80 200 LINE",
"0 200 LINE",
"0 160 LINE",
"40 160 LINE"
);
},
{
closed = 1;
nodes = (
"120 -40 LINE",
"240 -40 LINE",
"240 0 LINE",
"120 0 LINE"
);
},
{
closed = 1;
nodes = (
"240 0 LINE",
"280 0 LINE",
"280 80 LINE",
"240 80 LINE"
);
},
{
closed = 1;
nodes = (
"120 320 LINE",
"160 320 LINE",
"160 360 LINE",
"120 360 LINE"
);
},
{
closed = 1;
nodes = (
"160 280 LINE",
"200 280 LINE",
"200 320 LINE",
"160 320 LINE"
);
},
{
closed = 1;
nodes = (
"200 360 LINE",
"240 360 LINE",
"240 400 LINE",
"200 400 LINE"
);
},
{
closed = 1;
nodes = (
"240 320 LINE",
"280 320 LINE",
"280 360 LINE",
"240 360 LINE"
);
}
);
width = 320;
}
);
note = uni3062;
unicode = 3062;
},
{
glyphname = uni3064;
lastChange = "2017-07-22 05:54:05 +0000";
layers = (
{
layerId = "364DB8B9-29FE-4011-8AFD-DD56313284DA";
paths = (
{
closed = 1;
nodes = (
"40 160 LINE",
"240 160 LINE",
"240 200 LINE",
"40 200 LINE"
);
},
{
closed = 1;
nodes = (
"80 -40 LINE",
"200 -40 LINE",
"200 0 LINE",
"80 0 LINE"
);
},
{
closed = 1;
nodes = (
"200 0 LINE",
"240 0 LINE",
"240 40 LINE",
"200 40 LINE"
);
},
{
closed = 1;
nodes = (
"240 40 LINE",
"280 40 LINE",
"280 160 LINE",
"240 160 LINE"
);
}
);
width = 320;
}
);
note = uni3064;
unicode = 3064;
},
{
glyphname = uni3063;
lastChange = "2017-07-22 05:54:05 +0000";
layers = (
{
layerId = "364DB8B9-29FE-4011-8AFD-DD56313284DA";
paths = (
{
closed = 1;
nodes = (
"40 120 LINE",
"200 120 LINE",
"200 160 LINE",
"40 160 LINE"
);
},
{
closed = 1;
nodes = (
"80 -40 LINE",
"160 -40 LINE",
"160 0 LINE",
"80 0 LINE"
);
},
{
closed = 1;
nodes = (
"160 0 LINE",
"200 0 LINE",
"200 40 LINE",
"160 40 LINE"
);
},
{
closed = 1;
nodes = (
"200 40 LINE",
"240 40 LINE",
"240 120 LINE",
"200 120 LINE"
);
}
);
width = 320;
}
);
note = uni3063;
unicode = 3063;
},
{
glyphname = uni3065;
lastChange = "2017-07-22 05:54:05 +0000";
layers = (
{
layerId = "364DB8B9-29FE-4011-8AFD-DD56313284DA";
paths = (
{
closed = 1;
nodes = (
"40 160 LINE",
"240 160 LINE",
"240 200 LINE",
"40 200 LINE"
);
},
{
closed = 1;
nodes = (
"80 -40 LINE",
"200 -40 LINE",
"200 0 LINE",
"80 0 LINE"
);
},
{
closed = 1;
nodes = (
"200 0 LINE",
"240 0 LINE",
"240 40 LINE",
"200 40 LINE"
);
},
{
closed = 1;
nodes = (
"240 40 LINE",
"280 40 LINE",
"280 160 LINE",
"240 160 LINE"
);
},
{
closed = 1;
nodes = (
"120 320 LINE",
"160 320 LINE",
"160 360 LINE",
"120 360 LINE"
);
},
{
closed = 1;
nodes = (
"160 280 LINE",
"200 280 LINE",
"200 320 LINE",
"160 320 LINE"
);
},
{
closed = 1;
nodes = (
"200 360 LINE",
"240 360 LINE",
"240 400 LINE",
"200 400 LINE"
);
},
{
closed = 1;
nodes = (
"240 320 LINE",
"280 320 LINE",
"280 360 LINE",
"240 360 LINE"
);
}
);
width = 320;
}
);
note = uni3065;
unicode = 3065;
},
{
glyphname = uni3066;
lastChange = "2017-07-22 05:54:05 +0000";
layers = (
{
layerId = "364DB8B9-29FE-4011-8AFD-DD56313284DA";
paths = (
{
closed = 1;
nodes = (
"160 160 LINE",
"240 160 LINE",
"240 200 LINE",
"280 200 LINE",
"280 240 LINE",
"0 240 LINE",
"0 200 LINE",
"160 200 LINE"
);
},
{
closed = 1;
nodes = (
"120 0 LINE",
"160 0 LINE",
"160 40 LINE",
"120 40 LINE"
);
},
{
closed = 1;
nodes = (
"80 40 LINE",
"120 40 LINE",
"120 120 LINE",
"80 120 LINE"
);
},
{
closed = 1;
nodes = (
"160 -40 LINE",
"240 -40 LINE",
"240 0 LINE",
"160 0 LINE"
);
},
{
closed = 1;
nodes = (
"120 120 LINE",
"160 120 LINE",
"160 160 LINE",
"120 160 LINE"
);
}
);
width = 320;
}
);
note = uni3066;
unicode = 3066;
},
{
glyphname = uni3067;
lastChange = "2017-07-22 05:54:05 +0000";
layers = (
{
layerId = "364DB8B9-29FE-4011-8AFD-DD56313284DA";
paths = (
{
closed = 1;
nodes = (
"160 160 LINE",
"240 160 LINE",
"240 200 LINE",
"280 200 LINE",
"280 240 LINE",
"0 240 LINE",
"0 200 LINE",
"160 200 LINE"
);
},
{
closed = 1;
nodes = (
"120 0 LINE",
"160 0 LINE",
"160 40 LINE",
"120 40 LINE"
);
},
{
closed = 1;
nodes = (
"80 40 LINE",
"120 40 LINE",
"120 120 LINE",
"80 120 LINE"
);
},
{
closed = 1;
nodes = (
"160 -40 LINE",
"240 -40 LINE",
"240 0 LINE",
"160 0 LINE"
);
},
{
closed = 1;
nodes = (
"120 120 LINE",
"160 120 LINE",
"160 160 LINE",
"120 160 LINE"
);
},
{
closed = 1;
nodes = (
"120 320 LINE",
"160 320 LINE",
"160 360 LINE",
"120 360 LINE"
);
},
{
closed = 1;
nodes = (
"160 280 LINE",
"200 280 LINE",
"200 320 LINE",
"160 320 LINE"
);
},
{
closed = 1;
nodes = (
"200 360 LINE",
"240 360 LINE",
"240 400 LINE",
"200 400 LINE"
);
},
{
closed = 1;
nodes = (
"240 320 LINE",
"280 320 LINE",
"280 360 LINE",
"240 360 LINE"
);
}
);
width = 320;
}
);
note = uni3067;
unicode = 3067;
},
{
glyphname = uni3068;
lastChange = "2017-07-22 05:54:05 +0000";
layers = (
{
layerId = "364DB8B9-29FE-4011-8AFD-DD56313284DA";
paths = (
{
closed = 1;
nodes = (
"80 120 LINE",
"160 120 LINE",
"160 160 LINE",
"120 160 LINE",
"120 280 LINE",
"80 280 LINE"
);
},
{
closed = 1;
nodes = (
"0 0 LINE",
"40 0 LINE",
"40 80 LINE",
"0 80 LINE"
);
},
{
closed = 1;
nodes = (
"40 -40 LINE",
"280 -40 LINE",
"280 0 LINE",
"40 0 LINE"
);
},
{
closed = 1;
nodes = (
"40 80 LINE",
"80 80 LINE",
"80 120 LINE",
"40 120 LINE"
);
},
{
closed = 1;
nodes = (
"160 160 LINE",
"240 160 LINE",
"240 200 LINE",
"160 200 LINE"
);
}
);
width = 320;
}
);
note = uni3068;
unicode = 3068;
},
{
glyphname = uni3069;
lastChange = "2017-07-22 05:54:05 +0000";
layers = (
{
layerId = "364DB8B9-29FE-4011-8AFD-DD56313284DA";
paths = (
{
closed = 1;
nodes = (
"80 120 LINE",
"160 120 LINE",
"160 160 LINE",
"120 160 LINE",
"120 280 LINE",
"80 280 LINE"
);
},
{
closed = 1;
nodes = (
"0 0 LINE",
"40 0 LINE",
"40 80 LINE",
"0 80 LINE"
);
},
{
closed = 1;
nodes = (
"40 -40 LINE",
"280 -40 LINE",
"280 0 LINE",
"40 0 LINE"
);
},
{
closed = 1;
nodes = (
"40 80 LINE",
"80 80 LINE",
"80 120 LINE",
"40 120 LINE"
);
},
{
closed = 1;
nodes = (
"160 160 LINE",
"240 160 LINE",
"240 200 LINE",
"160 200 LINE"
);
},
{
closed = 1;
nodes = (
"120 320 LINE",
"160 320 LINE",
"160 360 LINE",
"120 360 LINE"
);
},
{
closed = 1;
nodes = (
"160 280 LINE",
"200 280 LINE",
"200 320 LINE",
"160 320 LINE"
);
},
{
closed = 1;
nodes = (
"200 360 LINE",
"240 360 LINE",
"240 400 LINE",
"200 400 LINE"
);
},
{
closed = 1;
nodes = (
"240 320 LINE",
"280 320 LINE",
"280 360 LINE",
"240 360 LINE"
);
}
);
width = 320;
}
);
note = uni3069;
unicode = 3069;
},
{
glyphname = uni306A;
lastChange = "2017-07-22 05:54:05 +0000";
layers = (
{
layerId = "364DB8B9-29FE-4011-8AFD-DD56313284DA";
paths = (
{
closed = 1;
nodes = (
"40 120 LINE",
"80 120 LINE",
"80 160 LINE",
"160 160 LINE",
"160 200 LINE",
"120 200 LINE",
"120 280 LINE",
"80 280 LINE",
"80 200 LINE",
"0 200 LINE",
"0 160 LINE",
"40 160 LINE"
);
},
{
closed = 1;
nodes = (
"40 0 LINE",
"80 0 LINE",
"80 40 LINE",
"40 40 LINE"
);
},
{
closed = 1;
nodes = (
"0 80 LINE",
"40 80 LINE",
"40 120 LINE",
"0 120 LINE"
);
},
{
closed = 1;
nodes = (
"80 -40 LINE",
"200 -40 LINE",
"200 0 LINE",
"80 0 LINE"
);
},
{
closed = 1;
nodes = (
"200 0 LINE",
"280 0 LINE",
"280 40 LINE",
"240 40 LINE",
"240 120 LINE",
"200 120 LINE",
"200 80 LINE",
"80 80 LINE",
"80 40 LINE",
"200 40 LINE"
);
},
{
closed = 1;
nodes = (
"200 200 LINE",
"240 200 LINE",
"240 240 LINE",
"200 240 LINE"
);
},
{
closed = 1;
nodes = (
"240 160 LINE",
"280 160 LINE",
"280 200 LINE",
"240 200 LINE"
);
}
);
width = 320;
}
);
note = uni306A;
unicode = 306A;
},
{
glyphname = uni306B;
lastChange = "2017-07-22 05:54:05 +0000";
layers = (
{
layerId = "364DB8B9-29FE-4011-8AFD-DD56313284DA";
paths = (
{
closed = 1;
nodes = (
"0 -40 LINE",
"40 -40 LINE",
"40 240 LINE",
"0 240 LINE"
);
},
{
closed = 1;
nodes = (
"80 0 LINE",
"120 0 LINE",
"120 80 LINE",
"80 80 LINE"
);
},
{
closed = 1;
nodes = (
"120 -40 LINE",
"280 -40 LINE",
"280 0 LINE",
"120 0 LINE"
);
},
{
closed = 1;
nodes = (
"120 200 LINE",
"280 200 LINE",
"280 240 LINE",
"120 240 LINE"
);
}
);
width = 320;
}
);
note = uni306B;
unicode = 306B;
},
{
glyphname = uni306C;
lastChange = "2017-07-22 05:54:05 +0000";
layers = (
{
layerId = "364DB8B9-29FE-4011-8AFD-DD56313284DA";
paths = (
{
closed = 1;
nodes = (
"0 0 LINE",
"40 0 LINE",
"40 80 LINE",
"80 80 LINE",
"80 120 LINE",
"120 120 LINE",
"120 160 LINE",
"80 160 LINE",
"80 240 LINE",
"40 240 LINE",
"40 120 LINE",
"0 120 LINE"
);
},
{
closed = 1;
nodes = (
"40 -40 LINE",
"80 -40 LINE",
"80 0 LINE",
"40 0 LINE"
);
},
{
closed = 1;
nodes = (
"80 0 LINE",
"120 0 LINE",
"120 80 LINE",
"80 80 LINE"
);
},
{
closed = 1;
nodes = (
"120 80 LINE",
"160 80 LINE",
"160 120 LINE",
"120 120 LINE"
);
},
{
closed = 1;
nodes = (
"160 -40 LINE",
"280 -40 LINE",
"280 160 LINE",
"240 160 LINE",
"240 80 LINE",
"200 80 LINE",
"200 40 LINE",
"240 40 LINE",
"240 0 LINE",
"200 0 LINE",
"200 40 LINE",
"160 40 LINE"
);
},
{
closed = 1;
nodes = (
"160 120 LINE",
"200 120 LINE",
"200 160 LINE",
"240 160 LINE",
"240 200 LINE",
"200 200 LINE",
"200 280 LINE",
"160 280 LINE",
"160 200 LINE",
"120 200 LINE",
"120 160 LINE",
"160 160 LINE"
);
}
);
width = 320;
}
);
note = uni306C;
unicode = 306C;
},
{
glyphname = uni306D;
lastChange = "2017-07-22 05:54:05 +0000";
layers = (
{
layerId = "364DB8B9-29FE-4011-8AFD-DD56313284DA";
paths = (
{
closed = 1;
nodes = (
"80 -40 LINE",
"120 -40 LINE",
"120 120 LINE",
"160 120 LINE",
"160 160 LINE",
"120 160 LINE",
"120 280 LINE",
"80 280 LINE",
"80 200 LINE",
"0 200 LINE",
"0 160 LINE",
"80 160 LINE",
"80 80 LINE",
"40 80 LINE",
"40 40 LINE",
"80 40 LINE"
);
},
{
closed = 1;
nodes = (
"0 0 LINE",
"40 0 LINE",
"40 40 LINE",
"0 40 LINE"
);
},
{
closed = 1;
nodes = (
"160 -40 LINE",
"280 -40 LINE",
"280 160 LINE",
"240 160 LINE",
"240 80 LINE",
"200 80 LINE",
"200 40 LINE",
"240 40 LINE",
"240 0 LINE",
"200 0 LINE",
"200 40 LINE",
"160 40 LINE"
);
},
{
closed = 1;
nodes = (
"160 160 LINE",
"240 160 LINE",
"240 200 LINE",
"160 200 LINE"
);
}
);
width = 320;
}
);
note = uni306D;
unicode = 306D;
},
{
glyphname = uni306E;
lastChange = "2017-07-22 05:54:05 +0000";
layers = (
{
layerId = "364DB8B9-29FE-4011-8AFD-DD56313284DA";
paths = (
{
closed = 1;
nodes = (
"120 0 LINE",
"160 0 LINE",
"160 200 LINE",
"200 200 LINE",
"200 240 LINE",
"80 240 LINE",
"80 200 LINE",
"120 200 LINE"
);
},
{
closed = 1;
nodes = (
"40 -40 LINE",
"120 -40 LINE",
"120 0 LINE",
"40 0 LINE"
);
},
{
closed = 1;
nodes = (
"0 0 LINE",
"40 0 LINE",
"40 160 LINE",
"0 160 LINE"
);
},
{
closed = 1;
nodes = (
"200 -40 LINE",
"240 -40 LINE",
"240 0 LINE",
"200 0 LINE"
);
},
{
closed = 1;
nodes = (
"40 160 LINE",
"80 160 LINE",
"80 200 LINE",
"40 200 LINE"
);
},
{
closed = 1;
nodes = (
"240 0 LINE",
"280 0 LINE",
"280 160 LINE",
"240 160 LINE"
);
},
{
closed = 1;
nodes = (
"200 160 LINE",
"240 160 LINE",
"240 200 LINE",
"200 200 LINE"
);
}
);
width = 320;
}
);
note = uni306E;
unicode = 306E;
},
{
glyphname = uni306F;
lastChange = "2017-07-22 05:54:05 +0000";
layers = (
{
layerId = "364DB8B9-29FE-4011-8AFD-DD56313284DA";
paths = (
{
closed = 1;
nodes = (
"200 0 LINE",
"240 0 LINE",
"240 40 LINE",
"280 40 LINE",
"280 80 LINE",
"240 80 LINE",
"240 200 LINE",
"280 200 LINE",
"280 240 LINE",
"240 240 LINE",
"240 280 LINE",
"200 280 LINE",
"200 240 LINE",
"120 240 LINE",
"120 200 LINE",
"200 200 LINE",
"200 120 LINE",
"120 120 LINE",
"120 80 LINE",
"200 80 LINE"
);
},
{
closed = 1;
nodes = (
"0 -40 LINE",
"40 -40 LINE",
"40 240 LINE",
"0 240 LINE"
);
},
{
closed = 1;
nodes = (
"80 0 LINE",
"120 0 LINE",
"120 80 LINE",
"80 80 LINE"
);
},
{
closed = 1;
nodes = (
"120 -40 LINE",
"200 -40 LINE",
"200 0 LINE",
"120 0 LINE"
);
}
);
width = 320;
}
);
note = uni306F;
unicode = 306F;
},
{
glyphname = uni3070;
lastChange = "2017-07-22 05:54:05 +0000";
layers = (
{
layerId = "364DB8B9-29FE-4011-8AFD-DD56313284DA";
paths = (
{
closed = 1;
nodes = (
"200 0 LINE",
"240 0 LINE",
"240 40 LINE",
"280 40 LINE",
"280 80 LINE",
"240 80 LINE",
"240 200 LINE",
"280 200 LINE",
"280 240 LINE",
"240 240 LINE",
"240 280 LINE",
"200 280 LINE",
"200 240 LINE",
"120 240 LINE",
"120 200 LINE",
"200 200 LINE",
"200 120 LINE",
"120 120 LINE",
"120 80 LINE",
"200 80 LINE"
);
},
{
closed = 1;
nodes = (
"0 -40 LINE",
"40 -40 LINE",
"40 240 LINE",
"0 240 LINE"
);
},
{
closed = 1;
nodes = (
"80 0 LINE",
"120 0 LINE",
"120 80 LINE",
"80 80 LINE"
);
},
{
closed = 1;
nodes = (
"120 -40 LINE",
"200 -40 LINE",
"200 0 LINE",
"120 0 LINE"
);
},
{
closed = 1;
nodes = (
"120 320 LINE",
"160 320 LINE",
"160 360 LINE",
"120 360 LINE"
);
},
{
closed = 1;
nodes = (
"160 280 LINE",
"200 280 LINE",
"200 320 LINE",
"160 320 LINE"
);
},
{
closed = 1;
nodes = (
"200 360 LINE",
"240 360 LINE",
"240 400 LINE",
"200 400 LINE"
);
},
{
closed = 1;
nodes = (
"240 320 LINE",
"280 320 LINE",
"280 360 LINE",
"240 360 LINE"
);
}
);
width = 320;
}
);
note = uni3070;
unicode = 3070;
},
{
glyphname = uni3071;
lastChange = "2017-07-22 05:54:05 +0000";
layers = (
{
layerId = "364DB8B9-29FE-4011-8AFD-DD56313284DA";
paths = (
{
closed = 1;
nodes = (
"200 0 LINE",
"240 0 LINE",
"240 40 LINE",
"280 40 LINE",
"280 80 LINE",
"240 80 LINE",
"240 200 LINE",
"280 200 LINE",
"280 240 LINE",
"240 240 LINE",
"240 280 LINE",
"280 280 LINE",
"280 400 LINE",
"160 400 LINE",
"160 280 LINE",
"200 280 LINE",
"200 240 LINE",
"120 240 LINE",
"120 200 LINE",
"200 200 LINE",
"200 120 LINE",
"120 120 LINE",
"120 80 LINE",
"200 80 LINE"
);
},
{
closed = 1;
nodes = (
"0 -40 LINE",
"40 -40 LINE",
"40 240 LINE",
"0 240 LINE"
);
},
{
closed = 1;
nodes = (
"80 0 LINE",
"120 0 LINE",
"120 80 LINE",
"80 80 LINE"
);
},
{
closed = 1;
nodes = (
"120 -40 LINE",
"200 -40 LINE",
"200 0 LINE",
"120 0 LINE"
);
},
{
closed = 1;
nodes = (
"200 320 LINE",
"200 360 LINE",
"240 360 LINE",
"240 320 LINE"
);
}
);
width = 320;
}
);
note = uni3071;
unicode = 3071;
},
{
glyphname = uni3072;
lastChange = "2017-07-22 05:54:05 +0000";
layers = (
{
layerId = "364DB8B9-29FE-4011-8AFD-DD56313284DA";
paths = (
{
closed = 1;
nodes = (
"160 0 LINE",
"200 0 LINE",
"200 40 LINE",
"240 40 LINE",
"240 120 LINE",
"280 120 LINE",
"280 160 LINE",
"240 160 LINE",
"240 200 LINE",
"200 200 LINE",
"200 80 LINE",
"160 80 LINE"
);
},
{
closed = 1;
nodes = (
"0 0 LINE",
"40 0 LINE",
"40 80 LINE",
"0 80 LINE"
);
},
{
closed = 1;
nodes = (
"40 -40 LINE",
"160 -40 LINE",
"160 0 LINE",
"40 0 LINE"
);
},
{
closed = 1;
nodes = (
"40 80 LINE",
"80 80 LINE",
"80 160 LINE",
"40 160 LINE"
);
},
{
closed = 1;
nodes = (
"80 160 LINE",
"120 160 LINE",
"120 200 LINE",
"160 200 LINE",
"160 240 LINE",
"0 240 LINE",
"0 200 LINE",
"80 200 LINE"
);
}
);
width = 320;
}
);
note = uni3072;
unicode = 3072;
},
{
glyphname = uni3073;
lastChange = "2017-07-22 05:54:05 +0000";
layers = (
{
layerId = "364DB8B9-29FE-4011-8AFD-DD56313284DA";
paths = (
{
closed = 1;
nodes = (
"160 0 LINE",
"200 0 LINE",
"200 40 LINE",
"240 40 LINE",
"240 120 LINE",
"280 120 LINE",
"280 160 LINE",
"240 160 LINE",
"240 200 LINE",
"200 200 LINE",
"200 80 LINE",
"160 80 LINE"
);
},
{
closed = 1;
nodes = (
"0 0 LINE",
"40 0 LINE",
"40 80 LINE",
"0 80 LINE"
);
},
{
closed = 1;
nodes = (
"40 -40 LINE",
"160 -40 LINE",
"160 0 LINE",
"40 0 LINE"
);
},
{
closed = 1;
nodes = (
"40 80 LINE",
"80 80 LINE",
"80 160 LINE",
"40 160 LINE"
);
},
{
closed = 1;
nodes = (
"80 160 LINE",
"120 160 LINE",
"120 200 LINE",
"160 200 LINE",
"160 240 LINE",
"0 240 LINE",
"0 200 LINE",
"80 200 LINE"
);
},
{
closed = 1;
nodes = (
"120 320 LINE",
"160 320 LINE",
"160 360 LINE",
"120 360 LINE"
);
},
{
closed = 1;
nodes = (
"160 280 LINE",
"200 280 LINE",
"200 320 LINE",
"160 320 LINE"
);
},
{
closed = 1;
nodes = (
"200 360 LINE",
"240 360 LINE",
"240 400 LINE",
"200 400 LINE"
);
},
{
closed = 1;
nodes = (
"240 320 LINE",
"280 320 LINE",
"280 360 LINE",
"240 360 LINE"
);
}
);
width = 320;
}
);
note = uni3073;
unicode = 3073;
},
{
glyphname = uni3074;
lastChange = "2017-07-22 05:54:05 +0000";
layers = (
{
layerId = "364DB8B9-29FE-4011-8AFD-DD56313284DA";
paths = (
{
closed = 1;
nodes = (
"160 0 LINE",
"200 0 LINE",
"200 40 LINE",
"240 40 LINE",
"240 120 LINE",
"280 120 LINE",
"280 160 LINE",
"240 160 LINE",
"240 200 LINE",
"200 200 LINE",
"200 80 LINE",
"160 80 LINE"
);
},
{
closed = 1;
nodes = (
"0 0 LINE",
"40 0 LINE",
"40 80 LINE",
"0 80 LINE"
);
},
{
closed = 1;
nodes = (
"40 -40 LINE",
"160 -40 LINE",
"160 0 LINE",
"40 0 LINE"
);
},
{
closed = 1;
nodes = (
"40 80 LINE",
"80 80 LINE",
"80 160 LINE",
"40 160 LINE"
);
},
{
closed = 1;
nodes = (
"80 160 LINE",
"120 160 LINE",
"120 200 LINE",
"160 200 LINE",
"160 240 LINE",
"0 240 LINE",
"0 200 LINE",
"80 200 LINE"
);
},
{
closed = 1;
nodes = (
"160 280 LINE",
"280 280 LINE",
"280 400 LINE",
"160 400 LINE"
);
},
{
closed = 1;
nodes = (
"200 320 LINE",
"200 360 LINE",
"240 360 LINE",
"240 320 LINE"
);
}
);
width = 320;
}
);
note = uni3074;
unicode = 3074;
},
{
glyphname = uni3075;
lastChange = "2017-07-22 05:54:05 +0000";
layers = (
{
layerId = "364DB8B9-29FE-4011-8AFD-DD56313284DA";
paths = (
{
closed = 1;
nodes = (
"160 160 LINE",
"200 160 LINE",
"200 240 LINE",
"80 240 LINE",
"80 200 LINE",
"160 200 LINE"
);
},
{
closed = 1;
nodes = (
"0 0 LINE",
"40 0 LINE",
"40 80 LINE",
"0 80 LINE"
);
},
{
closed = 1;
nodes = (
"80 -40 LINE",
"160 -40 LINE",
"160 0 LINE",
"80 0 LINE"
);
},
{
closed = 1;
nodes = (
"40 80 LINE",
"80 80 LINE",
"80 120 LINE",
"40 120 LINE"
);
},
{
closed = 1;
nodes = (
"160 0 LINE",
"200 0 LINE",
"200 120 LINE",
"160 120 LINE"
);
},
{
closed = 1;
nodes = (
"120 120 LINE",
"160 120 LINE",
"160 160 LINE",
"120 160 LINE"
);
},
{
closed = 1;
nodes = (
"240 0 LINE",
"280 0 LINE",
"280 80 LINE",
"240 80 LINE"
);
}
);
width = 320;
}
);
note = uni3075;
unicode = 3075;
},
{
glyphname = uni3076;
lastChange = "2017-07-22 05:54:05 +0000";
layers = (
{
layerId = "364DB8B9-29FE-4011-8AFD-DD56313284DA";
paths = (
{
closed = 1;
nodes = (
"160 160 LINE",
"200 160 LINE",
"200 240 LINE",
"80 240 LINE",
"80 200 LINE",
"160 200 LINE"
);
},
{
closed = 1;
nodes = (
"0 0 LINE",
"40 0 LINE",
"40 80 LINE",
"0 80 LINE"
);
},
{
closed = 1;
nodes = (
"80 -40 LINE",
"160 -40 LINE",
"160 0 LINE",
"80 0 LINE"
);
},
{
closed = 1;
nodes = (
"40 80 LINE",
"80 80 LINE",
"80 120 LINE",
"40 120 LINE"
);
},
{
closed = 1;
nodes = (
"160 0 LINE",
"200 0 LINE",
"200 120 LINE",
"160 120 LINE"
);
},
{
closed = 1;
nodes = (
"120 120 LINE",
"160 120 LINE",
"160 160 LINE",
"120 160 LINE"
);
},
{
closed = 1;
nodes = (
"240 0 LINE",
"280 0 LINE",
"280 80 LINE",
"240 80 LINE"
);
},
{
closed = 1;
nodes = (
"120 320 LINE",
"160 320 LINE",
"160 360 LINE",
"120 360 LINE"
);
},
{
closed = 1;
nodes = (
"160 280 LINE",
"200 280 LINE",
"200 320 LINE",
"160 320 LINE"
);
},
{
closed = 1;
nodes = (
"200 360 LINE",
"240 360 LINE",
"240 400 LINE",
"200 400 LINE"
);
},
{
closed = 1;
nodes = (
"240 320 LINE",
"280 320 LINE",
"280 360 LINE",
"240 360 LINE"
);
}
);
width = 320;
}
);
note = uni3076;
unicode = 3076;
},
{
glyphname = uni3077;
lastChange = "2017-07-22 05:54:05 +0000";
layers = (
{
layerId = "364DB8B9-29FE-4011-8AFD-DD56313284DA";
paths = (
{
closed = 1;
nodes = (
"160 280 LINE",
"280 280 LINE",
"280 400 LINE",
"160 400 LINE"
);
},
{
closed = 1;
nodes = (
"0 0 LINE",
"40 0 LINE",
"40 80 LINE",
"0 80 LINE"
);
},
{
closed = 1;
nodes = (
"80 -40 LINE",
"160 -40 LINE",
"160 0 LINE",
"80 0 LINE"
);
},
{
closed = 1;
nodes = (
"40 80 LINE",
"80 80 LINE",
"80 120 LINE",
"40 120 LINE"
);
},
{
closed = 1;
nodes = (
"160 0 LINE",
"200 0 LINE",
"200 120 LINE",
"160 120 LINE"
);
},
{
closed = 1;
nodes = (
"120 120 LINE",
"160 120 LINE",
"160 160 LINE",
"120 160 LINE"
);
},
{
closed = 1;
nodes = (
"240 0 LINE",
"280 0 LINE",
"280 80 LINE",
"240 80 LINE"
);
},
{
closed = 1;
nodes = (
"160 160 LINE",
"200 160 LINE",
"200 240 LINE",
"80 240 LINE",
"80 200 LINE",
"160 200 LINE"
);
},
{
closed = 1;
nodes = (
"200 320 LINE",
"200 360 LINE",
"240 360 LINE",
"240 320 LINE"
);
}
);
width = 320;
}
);
note = uni3077;
unicode = 3077;
},
{
glyphname = uni3078;
lastChange = "2017-07-22 05:54:05 +0000";
layers = (
{
layerId = "364DB8B9-29FE-4011-8AFD-DD56313284DA";
paths = (
{
closed = 1;
nodes = (
"200 40 LINE",
"240 40 LINE",
"240 80 LINE",
"200 80 LINE"
);
},
{
closed = 1;
nodes = (
"0 80 LINE",
"40 80 LINE",
"40 120 LINE",
"0 120 LINE"
);
},
{
closed = 1;
nodes = (
"40 120 LINE",
"80 120 LINE",
"80 160 LINE",
"40 160 LINE"
);
},
{
closed = 1;
nodes = (
"240 0 LINE",
"280 0 LINE",
"280 40 LINE",
"240 40 LINE"
);
},
{
closed = 1;
nodes = (
"80 160 LINE",
"120 160 LINE",
"120 200 LINE",
"80 200 LINE"
);
},
{
closed = 1;
nodes = (
"120 120 LINE",
"160 120 LINE",
"160 160 LINE",
"120 160 LINE"
);
},
{
closed = 1;
nodes = (
"160 80 LINE",
"200 80 LINE",
"200 120 LINE",
"160 120 LINE"
);
}
);
width = 320;
}
);
note = uni3078;
unicode = 3078;
},
{
glyphname = uni3079;
lastChange = "2017-07-22 05:54:05 +0000";
layers = (
{
layerId = "364DB8B9-29FE-4011-8AFD-DD56313284DA";
paths = (
{
closed = 1;
nodes = (
"200 360 LINE",
"240 360 LINE",
"240 400 LINE",
"200 400 LINE"
);
},
{
closed = 1;
nodes = (
"0 80 LINE",
"40 80 LINE",
"40 120 LINE",
"0 120 LINE"
);
},
{
closed = 1;
nodes = (
"40 120 LINE",
"80 120 LINE",
"80 160 LINE",
"40 160 LINE"
);
},
{
closed = 1;
nodes = (
"80 160 LINE",
"120 160 LINE",
"120 200 LINE",
"80 200 LINE"
);
},
{
closed = 1;
nodes = (
"120 120 LINE",
"160 120 LINE",
"160 160 LINE",
"120 160 LINE"
);
},
{
closed = 1;
nodes = (
"160 80 LINE",
"200 80 LINE",
"200 120 LINE",
"160 120 LINE"
);
},
{
closed = 1;
nodes = (
"200 40 LINE",
"240 40 LINE",
"240 80 LINE",
"200 80 LINE"
);
},
{
closed = 1;
nodes = (
"240 0 LINE",
"280 0 LINE",
"280 40 LINE",
"240 40 LINE"
);
},
{
closed = 1;
nodes = (
"120 320 LINE",
"160 320 LINE",
"160 360 LINE",
"120 360 LINE"
);
},
{
closed = 1;
nodes = (
"160 280 LINE",
"200 280 LINE",
"200 320 LINE",
"160 320 LINE"
);
},
{
closed = 1;
nodes = (
"240 320 LINE",
"280 320 LINE",
"280 360 LINE",
"240 360 LINE"
);
}
);
width = 320;
}
);
note = uni3079;
unicode = 3079;
},
{
glyphname = uni307A;
lastChange = "2017-07-22 05:54:05 +0000";
layers = (
{
layerId = "364DB8B9-29FE-4011-8AFD-DD56313284DA";
paths = (
{
closed = 1;
nodes = (
"160 280 LINE",
"280 280 LINE",
"280 400 LINE",
"160 400 LINE"
);
},
{
closed = 1;
nodes = (
"0 80 LINE",
"40 80 LINE",
"40 120 LINE",
"0 120 LINE"
);
},
{
closed = 1;
nodes = (
"40 120 LINE",
"80 120 LINE",
"80 160 LINE",
"40 160 LINE"
);
},
{
closed = 1;
nodes = (
"80 160 LINE",
"120 160 LINE",
"120 200 LINE",
"80 200 LINE"
);
},
{
closed = 1;
nodes = (
"120 120 LINE",
"160 120 LINE",
"160 160 LINE",
"120 160 LINE"
);
},
{
closed = 1;
nodes = (
"160 80 LINE",
"200 80 LINE",
"200 120 LINE",
"160 120 LINE"
);
},
{
closed = 1;
nodes = (
"200 40 LINE",
"240 40 LINE",
"240 80 LINE",
"200 80 LINE"
);
},
{
closed = 1;
nodes = (
"240 0 LINE",
"280 0 LINE",
"280 40 LINE",
"240 40 LINE"
);
},
{
closed = 1;
nodes = (
"200 320 LINE",
"200 360 LINE",
"240 360 LINE",
"240 320 LINE"
);
}
);
width = 320;
}
);
note = uni307A;
unicode = 307A;
},
{
glyphname = uni307B;
lastChange = "2017-07-22 05:54:05 +0000";
layers = (
{
layerId = "364DB8B9-29FE-4011-8AFD-DD56313284DA";
paths = (
{
closed = 1;
nodes = (
"200 0 LINE",
"240 0 LINE",
"240 40 LINE",
"280 40 LINE",
"280 80 LINE",
"240 80 LINE",
"240 160 LINE",
"280 160 LINE",
"280 200 LINE",
"240 200 LINE",
"240 240 LINE",
"280 240 LINE",
"280 280 LINE",
"120 280 LINE",
"120 240 LINE",
"200 240 LINE",
"200 200 LINE",
"120 200 LINE",
"120 160 LINE",
"200 160 LINE",
"200 120 LINE",
"120 120 LINE",
"120 80 LINE",
"200 80 LINE"
);
},
{
closed = 1;
nodes = (
"0 -40 LINE",
"40 -40 LINE",
"40 240 LINE",
"0 240 LINE"
);
},
{
closed = 1;
nodes = (
"80 0 LINE",
"120 0 LINE",
"120 80 LINE",
"80 80 LINE"
);
},
{
closed = 1;
nodes = (
"120 -40 LINE",
"200 -40 LINE",
"200 0 LINE",
"120 0 LINE"
);
}
);
width = 320;
}
);
note = uni307B;
unicode = 307B;
},
{
glyphname = uni307C;
lastChange = "2017-07-22 05:54:05 +0000";
layers = (
{
layerId = "364DB8B9-29FE-4011-8AFD-DD56313284DA";
paths = (
{
closed = 1;
nodes = (
"200 0 LINE",
"240 0 LINE",
"240 40 LINE",
"280 40 LINE",
"280 80 LINE",
"240 80 LINE",
"240 160 LINE",
"280 160 LINE",
"280 200 LINE",
"240 200 LINE",
"240 240 LINE",
"280 240 LINE",
"280 280 LINE",
"200 280 LINE",
"200 320 LINE",
"160 320 LINE",
"160 280 LINE",
"120 280 LINE",
"120 240 LINE",
"200 240 LINE",
"200 200 LINE",
"120 200 LINE",
"120 160 LINE",
"200 160 LINE",
"200 120 LINE",
"120 120 LINE",
"120 80 LINE",
"200 80 LINE"
);
},
{
closed = 1;
nodes = (
"0 -40 LINE",
"40 -40 LINE",
"40 240 LINE",
"0 240 LINE"
);
},
{
closed = 1;
nodes = (
"80 0 LINE",
"120 0 LINE",
"120 80 LINE",
"80 80 LINE"
);
},
{
closed = 1;
nodes = (
"120 -40 LINE",
"200 -40 LINE",
"200 0 LINE",
"120 0 LINE"
);
},
{
closed = 1;
nodes = (
"120 320 LINE",
"160 320 LINE",
"160 360 LINE",
"120 360 LINE"
);
},
{
closed = 1;
nodes = (
"200 360 LINE",
"240 360 LINE",
"240 400 LINE",
"200 400 LINE"
);
},
{
closed = 1;
nodes = (
"240 320 LINE",
"280 320 LINE",
"280 360 LINE",
"240 360 LINE"
);
}
);
width = 320;
}
);
note = uni307C;
unicode = 307C;
},
{
glyphname = uni307D;
lastChange = "2017-07-22 05:54:05 +0000";
layers = (
{
layerId = "364DB8B9-29FE-4011-8AFD-DD56313284DA";
paths = (
{
closed = 1;
nodes = (
"200 0 LINE",
"240 0 LINE",
"240 40 LINE",
"280 40 LINE",
"280 80 LINE",
"240 80 LINE",
"240 160 LINE",
"280 160 LINE",
"280 200 LINE",
"240 200 LINE",
"240 240 LINE",
"280 240 LINE",
"280 400 LINE",
"160 400 LINE",
"160 280 LINE",
"120 280 LINE",
"120 240 LINE",
"200 240 LINE",
"200 200 LINE",
"120 200 LINE",
"120 160 LINE",
"200 160 LINE",
"200 120 LINE",
"120 120 LINE",
"120 80 LINE",
"200 80 LINE"
);
},
{
closed = 1;
nodes = (
"0 -40 LINE",
"40 -40 LINE",
"40 240 LINE",
"0 240 LINE"
);
},
{
closed = 1;
nodes = (
"80 0 LINE",
"120 0 LINE",
"120 80 LINE",
"80 80 LINE"
);
},
{
closed = 1;
nodes = (
"120 -40 LINE",
"200 -40 LINE",
"200 0 LINE",
"120 0 LINE"
);
},
{
closed = 1;
nodes = (
"200 320 LINE",
"200 360 LINE",
"240 360 LINE",
"240 320 LINE"
);
}
);
width = 320;
}
);
note = uni307D;
unicode = 307D;
},
{
glyphname = uni307E;
lastChange = "2017-07-22 05:54:05 +0000";
layers = (
{
layerId = "364DB8B9-29FE-4011-8AFD-DD56313284DA";
paths = (
{
closed = 1;
nodes = (
"40 -40 LINE",
"200 -40 LINE",
"200 0 LINE",
"240 0 LINE",
"240 40 LINE",
"200 40 LINE",
"200 120 LINE",
"240 120 LINE",
"240 160 LINE",
"200 160 LINE",
"200 200 LINE",
"240 200 LINE",
"240 240 LINE",
"200 240 LINE",
"200 280 LINE",
"160 280 LINE",
"160 240 LINE",
"40 240 LINE",
"40 200 LINE",
"160 200 LINE",
"160 160 LINE",
"40 160 LINE",
"40 120 LINE",
"160 120 LINE",
"160 80 LINE",
"40 80 LINE",
"40 40 LINE",
"160 40 LINE",
"160 0 LINE",
"40 0 LINE"
);
},
{
closed = 1;
nodes = (
"0 0 LINE",
"40 0 LINE",
"40 40 LINE",
"0 40 LINE"
);
}
);
width = 320;
}
);
note = uni307E;
unicode = 307E;
},
{
glyphname = uni307F;
lastChange = "2017-07-22 05:54:05 +0000";
layers = (
{
layerId = "364DB8B9-29FE-4011-8AFD-DD56313284DA";
paths = (
{
closed = 1;
nodes = (
"200 0 LINE",
"240 0 LINE",
"240 120 LINE",
"280 120 LINE",
"280 160 LINE",
"240 160 LINE",
"240 200 LINE",
"200 200 LINE",
"200 160 LINE",
"160 160 LINE",
"160 280 LINE",
"40 280 LINE",
"40 240 LINE",
"120 240 LINE",
"120 160 LINE",
"40 160 LINE",
"40 120 LINE",
"120 120 LINE",
"120 80 LINE",
"160 80 LINE",
"160 120 LINE",
"200 120 LINE"
);
},
{
closed = 1;
nodes = (
"40 -40 LINE",
"80 -40 LINE",
"80 0 LINE",
"40 0 LINE"
);
},
{
closed = 1;
nodes = (
"0 0 LINE",
"40 0 LINE",
"40 120 LINE",
"0 120 LINE"
);
},
{
closed = 1;
nodes = (
"80 0 LINE",
"120 0 LINE",
"120 80 LINE",
"80 80 LINE"
);
},
{
closed = 1;
nodes = (
"160 -40 LINE",
"200 -40 LINE",
"200 0 LINE",
"160 0 LINE"
);
}
);
width = 320;
}
);
note = uni307F;
unicode = 307F;
},
{
glyphname = uni3080;
lastChange = "2017-07-22 05:54:05 +0000";
layers = (
{
layerId = "364DB8B9-29FE-4011-8AFD-DD56313284DA";
paths = (
{
closed = 1;
nodes = (
"80 -40 LINE",
"240 -40 LINE",
"240 0 LINE",
"120 0 LINE",
"120 200 LINE",
"160 200 LINE",
"160 240 LINE",
"120 240 LINE",
"120 280 LINE",
"80 280 LINE",
"80 240 LINE",
"0 240 LINE",
"0 200 LINE",
"80 200 LINE",
"80 160 LINE",
"40 160 LINE",
"40 120 LINE",
"80 120 LINE",
"80 40 LINE",
"40 40 LINE",
"40 0 LINE",
"80 0 LINE"
);
},
{
closed = 1;
nodes = (
"0 40 LINE",
"40 40 LINE",
"40 120 LINE",
"0 120 LINE"
);
},
{
closed = 1;
nodes = (
"240 0 LINE",
"280 0 LINE",
"280 80 LINE",
"240 80 LINE"
);
},
{
closed = 1;
nodes = (
"240 160 LINE",
"280 160 LINE",
"280 240 LINE",
"240 240 LINE"
);
}
);
width = 320;
}
);
note = uni3080;
unicode = 3080;
},
{
glyphname = uni3081;
lastChange = "2017-07-22 05:54:05 +0000";
layers = (
{
layerId = "364DB8B9-29FE-4011-8AFD-DD56313284DA";
paths = (
{
closed = 1;
nodes = (
"160 80 LINE",
"200 80 LINE",
"200 120 LINE",
"240 120 LINE",
"240 160 LINE",
"200 160 LINE",
"200 280 LINE",
"160 280 LINE",
"160 200 LINE",
"120 200 LINE",
"120 160 LINE",
"160 160 LINE"
);
},
{
closed = 1;
nodes = (
"40 -40 LINE",
"80 -40 LINE",
"80 0 LINE",
"40 0 LINE"
);
},
{
closed = 1;
nodes = (
"0 0 LINE",
"40 0 LINE",
"40 120 LINE",
"0 120 LINE"
);
},
{
closed = 1;
nodes = (
"80 0 LINE",
"160 0 LINE",
"160 80 LINE",
"120 80 LINE",
"120 40 LINE",
"80 40 LINE"
);
},
{
closed = 1;
nodes = (
"200 -40 LINE",
"240 -40 LINE",
"240 0 LINE",
"200 0 LINE"
);
},
{
closed = 1;
nodes = (
"80 80 LINE",
"120 80 LINE",
"120 160 LINE",
"80 160 LINE",
"80 240 LINE",
"40 240 LINE",
"40 120 LINE",
"80 120 LINE"
);
},
{
closed = 1;
nodes = (
"240 0 LINE",
"280 0 LINE",
"280 120 LINE",
"240 120 LINE"
);
}
);
width = 320;
}
);
note = uni3081;
unicode = 3081;
},
{
glyphname = uni3082;
lastChange = "2017-07-22 05:54:05 +0000";
layers = (
{
layerId = "364DB8B9-29FE-4011-8AFD-DD56313284DA";
paths = (
{
closed = 1;
nodes = (
"80 0 LINE",
"120 0 LINE",
"120 80 LINE",
"200 80 LINE",
"200 120 LINE",
"120 120 LINE",
"120 160 LINE",
"200 160 LINE",
"200 200 LINE",
"120 200 LINE",
"120 280 LINE",
"80 280 LINE",
"80 200 LINE",
"0 200 LINE",
"0 160 LINE",
"80 160 LINE",
"80 120 LINE",
"0 120 LINE",
"0 80 LINE",
"80 80 LINE"
);
},
{
closed = 1;
nodes = (
"120 -40 LINE",
"240 -40 LINE",
"240 0 LINE",
"120 0 LINE"
);
},
{
closed = 1;
nodes = (
"240 0 LINE",
"280 0 LINE",
"280 40 LINE",
"240 40 LINE"
);
}
);
width = 320;
}
);
note = uni3082;
unicode = 3082;
},
{
glyphname = uni3084;
lastChange = "2017-07-22 05:54:05 +0000";
layers = (
{
layerId = "364DB8B9-29FE-4011-8AFD-DD56313284DA";
paths = (
{
closed = 1;
nodes = (
"40 40 LINE",
"80 40 LINE",
"80 160 LINE",
"240 160 LINE",
"240 200 LINE",
"200 200 LINE",
"200 280 LINE",
"160 280 LINE",
"160 200 LINE",
"80 200 LINE",
"80 280 LINE",
"40 280 LINE",
"40 200 LINE",
"0 200 LINE",
"0 160 LINE",
"40 160 LINE"
);
},
{
closed = 1;
nodes = (
"80 -40 LINE",
"120 -40 LINE",
"120 40 LINE",
"80 40 LINE"
);
},
{
closed = 1;
nodes = (
"120 80 LINE",
"160 80 LINE",
"160 120 LINE",
"120 120 LINE"
);
},
{
closed = 1;
nodes = (
"160 40 LINE",
"240 40 LINE",
"240 80 LINE",
"160 80 LINE"
);
},
{
closed = 1;
nodes = (
"240 80 LINE",
"280 80 LINE",
"280 160 LINE",
"240 160 LINE"
);
}
);
width = 320;
}
);
note = uni3084;
unicode = 3084;
},
{
glyphname = uni3083;
lastChange = "2017-07-22 05:54:05 +0000";
layers = (
{
layerId = "364DB8B9-29FE-4011-8AFD-DD56313284DA";
paths = (
{
closed = 1;
nodes = (
"80 40 LINE",
"120 40 LINE",
"120 120 LINE",
"160 120 LINE",
"160 80 LINE",
"200 80 LINE",
"200 120 LINE",
"240 120 LINE",
"240 160 LINE",
"200 160 LINE",
"200 200 LINE",
"160 200 LINE",
"160 160 LINE",
"120 160 LINE",
"120 200 LINE",
"80 200 LINE",
"80 120 LINE",
"40 120 LINE",
"40 80 LINE",
"80 80 LINE"
);
},
{
closed = 1;
nodes = (
"120 -40 LINE",
"160 -40 LINE",
"160 40 LINE",
"120 40 LINE"
);
},
{
closed = 1;
nodes = (
"200 0 LINE",
"240 0 LINE",
"240 40 LINE",
"200 40 LINE"
);
},
{
closed = 1;
nodes = (
"240 40 LINE",
"280 40 LINE",
"280 120 LINE",
"240 120 LINE"
);
}
);
width = 320;
}
);
note = uni3083;
unicode = 3083;
},
{
glyphname = uni3086;
lastChange = "2017-07-22 05:54:05 +0000";
layers = (
{
layerId = "364DB8B9-29FE-4011-8AFD-DD56313284DA";
paths = (
{
closed = 1;
nodes = (
"120 0 LINE",
"240 0 LINE",
"240 40 LINE",
"200 40 LINE",
"200 200 LINE",
"240 200 LINE",
"240 240 LINE",
"200 240 LINE",
"200 280 LINE",
"160 280 LINE",
"160 240 LINE",
"80 240 LINE",
"80 200 LINE",
"160 200 LINE",
"160 40 LINE",
"120 40 LINE"
);
},
{
closed = 1;
nodes = (
"80 -40 LINE",
"120 -40 LINE",
"120 0 LINE",
"80 0 LINE"
);
},
{
closed = 1;
nodes = (
"80 40 LINE",
"120 40 LINE",
"120 80 LINE",
"80 80 LINE"
);
},
{
closed = 1;
nodes = (
"0 40 LINE",
"40 40 LINE",
"40 160 LINE",
"80 160 LINE",
"80 200 LINE",
"40 200 LINE",
"40 240 LINE",
"0 240 LINE"
);
},
{
closed = 1;
nodes = (
"240 40 LINE",
"280 40 LINE",
"280 200 LINE",
"240 200 LINE"
);
}
);
width = 320;
}
);
note = uni3086;
unicode = 3086;
},
{
glyphname = uni3085;
lastChange = "2017-07-22 05:54:05 +0000";
layers = (
{
layerId = "364DB8B9-29FE-4011-8AFD-DD56313284DA";
paths = (
{
closed = 1;
nodes = (
"160 -40 LINE",
"200 -40 LINE",
"200 0 LINE",
"240 0 LINE",
"240 40 LINE",
"200 40 LINE",
"200 120 LINE",
"240 120 LINE",
"240 160 LINE",
"200 160 LINE",
"200 200 LINE",
"160 200 LINE",
"160 160 LINE",
"120 160 LINE",
"120 120 LINE",
"160 120 LINE",
"160 40 LINE",
"120 40 LINE",
"120 0 LINE",
"160 0 LINE"
);
},
{
closed = 1;
nodes = (
"40 40 LINE",
"80 40 LINE",
"80 80 LINE",
"120 80 LINE",
"120 120 LINE",
"80 120 LINE",
"80 160 LINE",
"40 160 LINE"
);
},
{
closed = 1;
nodes = (
"240 40 LINE",
"280 40 LINE",
"280 120 LINE",
"240 120 LINE"
);
}
);
width = 320;
}
);
note = uni3085;
unicode = 3085;
},
{
glyphname = uni3088;
lastChange = "2017-07-22 05:54:05 +0000";
layers = (
{
layerId = "364DB8B9-29FE-4011-8AFD-DD56313284DA";
paths = (
{
closed = 1;
nodes = (
"0 0 LINE",
"40 0 LINE",
"40 40 LINE",
"160 40 LINE",
"160 0 LINE",
"200 0 LINE",
"200 40 LINE",
"240 40 LINE",
"240 80 LINE",
"200 80 LINE",
"200 160 LINE",
"280 160 LINE",
"280 200 LINE",
"200 200 LINE",
"200 280 LINE",
"160 280 LINE",
"160 80 LINE",
"0 80 LINE"
);
},
{
closed = 1;
nodes = (
"40 -40 LINE",
"160 -40 LINE",
"160 0 LINE",
"40 0 LINE"
);
},
{
closed = 1;
nodes = (
"240 0 LINE",
"280 0 LINE",
"280 40 LINE",
"240 40 LINE"
);
}
);
width = 320;
}
);
note = uni3088;
unicode = 3088;
},
{
glyphname = uni3087;
lastChange = "2017-07-22 05:54:05 +0000";
layers = (
{
layerId = "364DB8B9-29FE-4011-8AFD-DD56313284DA";
paths = (
{
closed = 1;
nodes = (
"80 -40 LINE",
"200 -40 LINE",
"200 0 LINE",
"240 0 LINE",
"240 40 LINE",
"200 40 LINE",
"200 120 LINE",
"240 120 LINE",
"240 160 LINE",
"200 160 LINE",
"200 200 LINE",
"160 200 LINE",
"160 80 LINE",
"80 80 LINE",
"80 40 LINE",
"160 40 LINE",
"160 0 LINE",
"80 0 LINE"
);
},
{
closed = 1;
nodes = (
"40 0 LINE",
"80 0 LINE",
"80 40 LINE",
"40 40 LINE"
);
}
);
width = 320;
}
);
note = uni3087;
unicode = 3087;
},
{
glyphname = uni3089;
lastChange = "2017-07-22 05:54:05 +0000";
layers = (
{
layerId = "364DB8B9-29FE-4011-8AFD-DD56313284DA";
paths = (
{
closed = 1;
nodes = (
"40 80 LINE",
"120 80 LINE",
"120 120 LINE",
"80 120 LINE",
"80 200 LINE",
"40 200 LINE"
);
},
{
closed = 1;
nodes = (
"80 -40 LINE",
"240 -40 LINE",
"240 0 LINE",
"80 0 LINE"
);
},
{
closed = 1;
nodes = (
"120 120 LINE",
"240 120 LINE",
"240 160 LINE",
"120 160 LINE"
);
},
{
closed = 1;
nodes = (
"240 0 LINE",
"280 0 LINE",
"280 120 LINE",
"240 120 LINE"
);
},
{
closed = 1;
nodes = (
"80 240 LINE",
"160 240 LINE",
"160 280 LINE",
"80 280 LINE"
);
},
{
closed = 1;
nodes = (
"160 200 LINE",
"240 200 LINE",
"240 240 LINE",
"160 240 LINE"
);
}
);
width = 320;
}
);
note = uni3089;
unicode = 3089;
},
{
glyphname = uni308A;
lastChange = "2017-07-22 05:54:05 +0000";
layers = (
{
layerId = "364DB8B9-29FE-4011-8AFD-DD56313284DA";
paths = (
{
closed = 1;
nodes = (
"200 40 LINE",
"240 40 LINE",
"240 280 LINE",
"200 280 LINE"
);
},
{
closed = 1;
nodes = (
"80 -40 LINE",
"160 -40 LINE",
"160 0 LINE",
"80 0 LINE"
);
},
{
closed = 1;
nodes = (
"160 0 LINE",
"200 0 LINE",
"200 40 LINE",
"160 40 LINE"
);
},
{
closed = 1;
nodes = (
"40 80 LINE",
"80 80 LINE",
"80 280 LINE",
"40 280 LINE"
);
}
);
width = 320;
}
);
note = uni308A;
unicode = 308A;
},
{
glyphname = uni308B;
lastChange = "2017-07-22 05:54:05 +0000";
layers = (
{
layerId = "364DB8B9-29FE-4011-8AFD-DD56313284DA";
paths = (
{
closed = 1;
nodes = (
"160 200 LINE",
"200 200 LINE",
"200 240 LINE",
"240 240 LINE",
"240 280 LINE",
"40 280 LINE",
"40 240 LINE",
"160 240 LINE"
);
},
{
closed = 1;
nodes = (
"40 0 LINE",
"80 0 LINE",
"80 40 LINE",
"40 40 LINE"
);
},
{
closed = 1;
nodes = (
"0 80 LINE",
"40 80 LINE",
"40 120 LINE",
"0 120 LINE"
);
},
{
closed = 1;
nodes = (
"80 -40 LINE",
"240 -40 LINE",
"240 0 LINE",
"200 0 LINE",
"200 40 LINE",
"160 40 LINE",
"160 0 LINE",
"80 0 LINE"
);
},
{
closed = 1;
nodes = (
"80 40 LINE",
"160 40 LINE",
"160 80 LINE",
"80 80 LINE"
);
},
{
closed = 1;
nodes = (
"40 120 LINE",
"240 120 LINE",
"240 160 LINE",
"160 160 LINE",
"160 200 LINE",
"80 200 LINE",
"80 160 LINE",
"40 160 LINE"
);
},
{
closed = 1;
nodes = (
"240 0 LINE",
"280 0 LINE",
"280 120 LINE",
"240 120 LINE"
);
}
);
width = 320;
}
);
note = uni308B;
unicode = 308B;
},
{
glyphname = uni308C;
lastChange = "2017-07-22 05:54:05 +0000";
layers = (
{
layerId = "364DB8B9-29FE-4011-8AFD-DD56313284DA";
paths = (
{
closed = 1;
nodes = (
"80 -40 LINE",
"120 -40 LINE",
"120 120 LINE",
"160 120 LINE",
"160 160 LINE",
"120 160 LINE",
"120 280 LINE",
"80 280 LINE",
"80 200 LINE",
"0 200 LINE",
"0 160 LINE",
"80 160 LINE",
"80 80 LINE",
"40 80 LINE",
"40 40 LINE",
"80 40 LINE"
);
},
{
closed = 1;
nodes = (
"0 0 LINE",
"40 0 LINE",
"40 40 LINE",
"0 40 LINE"
);
},
{
closed = 1;
nodes = (
"240 -40 LINE",
"280 -40 LINE",
"280 0 LINE",
"240 0 LINE"
);
},
{
closed = 1;
nodes = (
"200 0 LINE",
"240 0 LINE",
"240 80 LINE",
"200 80 LINE"
);
},
{
closed = 1;
nodes = (
"160 160 LINE",
"240 160 LINE",
"240 200 LINE",
"160 200 LINE"
);
},
{
closed = 1;
nodes = (
"240 80 LINE",
"280 80 LINE",
"280 160 LINE",
"240 160 LINE"
);
}
);
width = 320;
}
);
note = uni308C;
unicode = 308C;
},
{
glyphname = uni308D;
lastChange = "2017-07-22 05:54:05 +0000";
layers = (
{
layerId = "364DB8B9-29FE-4011-8AFD-DD56313284DA";
paths = (
{
closed = 1;
nodes = (
"160 200 LINE",
"200 200 LINE",
"200 240 LINE",
"240 240 LINE",
"240 280 LINE",
"40 280 LINE",
"40 240 LINE",
"160 240 LINE"
);
},
{
closed = 1;
nodes = (
"0 80 LINE",
"40 80 LINE",
"40 120 LINE",
"0 120 LINE"
);
},
{
closed = 1;
nodes = (
"80 -40 LINE",
"240 -40 LINE",
"240 0 LINE",
"80 0 LINE"
);
},
{
closed = 1;
nodes = (
"40 120 LINE",
"240 120 LINE",
"240 160 LINE",
"160 160 LINE",
"160 200 LINE",
"80 200 LINE",
"80 160 LINE",
"40 160 LINE"
);
},
{
closed = 1;
nodes = (
"240 0 LINE",
"280 0 LINE",
"280 120 LINE",
"240 120 LINE"
);
}
);
width = 320;
}
);
note = uni308D;
unicode = 308D;
},
{
glyphname = uni308F;
lastChange = "2017-07-22 05:54:05 +0000";
layers = (
{
layerId = "364DB8B9-29FE-4011-8AFD-DD56313284DA";
paths = (
{
closed = 1;
nodes = (
"80 -40 LINE",
"120 -40 LINE",
"120 120 LINE",
"160 120 LINE",
"160 160 LINE",
"120 160 LINE",
"120 280 LINE",
"80 280 LINE",
"80 200 LINE",
"0 200 LINE",
"0 120 LINE",
"40 120 LINE",
"40 160 LINE",
"80 160 LINE",
"80 80 LINE",
"40 80 LINE",
"40 40 LINE",
"80 40 LINE"
);
},
{
closed = 1;
nodes = (
"0 0 LINE",
"40 0 LINE",
"40 40 LINE",
"0 40 LINE"
);
},
{
closed = 1;
nodes = (
"200 -40 LINE",
"240 -40 LINE",
"240 0 LINE",
"200 0 LINE"
);
},
{
closed = 1;
nodes = (
"240 0 LINE",
"280 0 LINE",
"280 160 LINE",
"240 160 LINE"
);
},
{
closed = 1;
nodes = (
"160 160 LINE",
"240 160 LINE",
"240 200 LINE",
"160 200 LINE"
);
}
);
width = 320;
}
);
note = uni308F;
unicode = 308F;
},
{
glyphname = uni308E;
lastChange = "2017-07-22 05:54:05 +0000";
layers = (
{
layerId = "364DB8B9-29FE-4011-8AFD-DD56313284DA";
paths = (
{
closed = 1;
nodes = (
"40 -40 LINE",
"80 -40 LINE",
"80 80 LINE",
"160 80 LINE",
"160 120 LINE",
"80 120 LINE",
"80 160 LINE",
"40 160 LINE",
"40 120 LINE",
"0 120 LINE",
"0 80 LINE",
"40 80 LINE",
"40 40 LINE",
"0 40 LINE",
"0 0 LINE",
"40 0 LINE"
);
},
{
closed = 1;
nodes = (
"120 -40 LINE",
"160 -40 LINE",
"160 0 LINE",
"120 0 LINE"
);
},
{
closed = 1;
nodes = (
"160 0 LINE",
"200 0 LINE",
"200 80 LINE",
"160 80 LINE"
);
}
);
width = 320;
}
);
note = uni308E;
unicode = 308E;
},
{
glyphname = uni3090;
lastChange = "2017-07-22 05:54:05 +0000";
layers = (
{
layerId = "364DB8B9-29FE-4011-8AFD-DD56313284DA";
paths = (
{
closed = 1;
nodes = (
"80 0 LINE",
"120 0 LINE",
"120 160 LINE",
"200 160 LINE",
"200 200 LINE",
"120 200 LINE",
"120 240 LINE",
"0 240 LINE",
"0 200 LINE",
"80 200 LINE",
"80 160 LINE",
"40 160 LINE",
"40 120 LINE",
"80 120 LINE"
);
},
{
closed = 1;
nodes = (
"40 -40 LINE",
"80 -40 LINE",
"80 0 LINE",
"40 0 LINE"
);
},
{
closed = 1;
nodes = (
"0 0 LINE",
"40 0 LINE",
"40 120 LINE",
"0 120 LINE"
);
},
{
closed = 1;
nodes = (
"160 -40 LINE",
"280 -40 LINE",
"280 120 LINE",
"240 120 LINE",
"240 80 LINE",
"200 80 LINE",
"200 40 LINE",
"240 40 LINE",
"240 0 LINE",
"200 0 LINE",
"200 40 LINE",
"160 40 LINE"
);
},
{
closed = 1;
nodes = (
"200 120 LINE",
"240 120 LINE",
"240 160 LINE",
"200 160 LINE"
);
}
);
width = 320;
}
);
note = uni3090;
unicode = 3090;
},
{
glyphname = uni3091;
lastChange = "2017-07-22 05:54:05 +0000";
layers = (
{
layerId = "364DB8B9-29FE-4011-8AFD-DD56313284DA";
paths = (
{
closed = 1;
nodes = (
"40 160 LINE",
"240 160 LINE",
"240 200 LINE",
"200 200 LINE",
"200 240 LINE",
"240 240 LINE",
"240 280 LINE",
"40 280 LINE",
"40 240 LINE",
"120 240 LINE",
"120 200 LINE",
"40 200 LINE"
);
},
{
closed = 1;
nodes = (
"0 -40 LINE",
"40 -40 LINE",
"40 0 LINE",
"0 0 LINE"
);
},
{
closed = 1;
nodes = (
"120 -40 LINE",
"160 -40 LINE",
"160 0 LINE",
"120 0 LINE"
);
},
{
closed = 1;
nodes = (
"0 120 LINE",
"40 120 LINE",
"40 160 LINE",
"0 160 LINE"
);
},
{
closed = 1;
nodes = (
"40 0 LINE",
"120 0 LINE",
"120 40 LINE",
"160 40 LINE",
"160 0 LINE",
"240 0 LINE",
"240 80 LINE",
"160 80 LINE",
"160 120 LINE",
"80 120 LINE",
"80 40 LINE",
"40 40 LINE"
);
},
{
closed = 1;
nodes = (
"240 -40 LINE",
"280 -40 LINE",
"280 0 LINE",
"240 0 LINE"
);
},
{
closed = 1;
nodes = (
"240 80 LINE",
"280 80 LINE",
"280 160 LINE",
"240 160 LINE"
);
}
);
width = 320;
}
);
note = uni3091;
unicode = 3091;
},
{
glyphname = uni3092;
lastChange = "2017-07-22 05:54:05 +0000";
layers = (
{
layerId = "364DB8B9-29FE-4011-8AFD-DD56313284DA";
paths = (
{
closed = 1;
nodes = (
"160 40 LINE",
"200 40 LINE",
"200 120 LINE",
"160 120 LINE",
"160 160 LINE",
"120 160 LINE",
"120 200 LINE",
"200 200 LINE",
"200 240 LINE",
"160 240 LINE",
"160 280 LINE",
"120 280 LINE",
"120 240 LINE",
"40 240 LINE",
"40 200 LINE",
"80 200 LINE",
"80 120 LINE",
"120 120 LINE",
"120 80 LINE",
"160 80 LINE"
);
},
{
closed = 1;
nodes = (
"80 0 LINE",
"120 0 LINE",
"120 80 LINE",
"80 80 LINE"
);
},
{
closed = 1;
nodes = (
"40 80 LINE",
"80 80 LINE",
"80 120 LINE",
"40 120 LINE"
);
},
{
closed = 1;
nodes = (
"120 -40 LINE",
"240 -40 LINE",
"240 0 LINE",
"120 0 LINE"
);
},
{
closed = 1;
nodes = (
"200 120 LINE",
"240 120 LINE",
"240 160 LINE",
"200 160 LINE"
);
}
);
width = 320;
}
);
note = uni3092;
unicode = 3092;
},
{
glyphname = uni3093;
lastChange = "2017-07-22 05:54:05 +0000";
layers = (
{
layerId = "364DB8B9-29FE-4011-8AFD-DD56313284DA";
paths = (
{
closed = 1;
nodes = (
"40 40 LINE",
"80 40 LINE",
"80 80 LINE",
"160 80 LINE",
"160 120 LINE",
"120 120 LINE",
"120 200 LINE",
"80 200 LINE",
"80 120 LINE",
"40 120 LINE"
);
},
{
closed = 1;
nodes = (
"0 -40 LINE",
"40 -40 LINE",
"40 40 LINE",
"0 40 LINE"
);
},
{
closed = 1;
nodes = (
"160 0 LINE",
"200 0 LINE",
"200 80 LINE",
"160 80 LINE"
);
},
{
closed = 1;
nodes = (
"200 -40 LINE",
"280 -40 LINE",
"280 0 LINE",
"200 0 LINE"
);
},
{
closed = 1;
nodes = (
"120 200 LINE",
"160 200 LINE",
"160 280 LINE",
"120 280 LINE"
);
}
);
width = 320;
}
);
note = uni3093;
unicode = 3093;
},
{
glyphname = uni3094;
lastChange = "2017-07-22 05:54:05 +0000";
layers = (
{
layerId = "364DB8B9-29FE-4011-8AFD-DD56313284DA";
paths = (
{
closed = 1;
nodes = (
"40 240 LINE",
"200 240 LINE",
"200 320 LINE",
"160 320 LINE",
"160 280 LINE",
"40 280 LINE"
);
},
{
closed = 1;
nodes = (
"80 -40 LINE",
"160 -40 LINE",
"160 0 LINE",
"80 0 LINE"
);
},
{
closed = 1;
nodes = (
"40 120 LINE",
"80 120 LINE",
"80 160 LINE",
"40 160 LINE"
);
},
{
closed = 1;
nodes = (
"160 0 LINE",
"200 0 LINE",
"200 40 LINE",
"160 40 LINE"
);
},
{
closed = 1;
nodes = (
"80 160 LINE",
"200 160 LINE",
"200 200 LINE",
"80 200 LINE"
);
},
{
closed = 1;
nodes = (
"200 40 LINE",
"240 40 LINE",
"240 160 LINE",
"200 160 LINE"
);
},
{
closed = 1;
nodes = (
"120 320 LINE",
"160 320 LINE",
"160 360 LINE",
"120 360 LINE"
);
},
{
closed = 1;
nodes = (
"200 360 LINE",
"240 360 LINE",
"240 400 LINE",
"200 400 LINE"
);
},
{
closed = 1;
nodes = (
"240 320 LINE",
"280 320 LINE",
"280 360 LINE",
"240 360 LINE"
);
}
);
width = 320;
}
);
note = uni3094;
unicode = 3094;
},
{
glyphname = uni309F;
lastChange = "2017-07-22 05:54:05 +0000";
layers = (
{
layerId = "364DB8B9-29FE-4011-8AFD-DD56313284DA";
paths = (
{
closed = 1;
nodes = (
"40 0 LINE",
"80 0 LINE",
"80 80 LINE",
"240 80 LINE",
"240 120 LINE",
"120 120 LINE",
"120 160 LINE",
"280 160 LINE",
"280 200 LINE",
"120 200 LINE",
"120 280 LINE",
"80 280 LINE",
"80 120 LINE",
"40 120 LINE"
);
},
{
closed = 1;
nodes = (
"0 -40 LINE",
"40 -40 LINE",
"40 0 LINE",
"0 0 LINE"
);
},
{
closed = 1;
nodes = (
"120 -40 LINE",
"240 -40 LINE",
"240 0 LINE",
"120 0 LINE"
);
},
{
closed = 1;
nodes = (
"240 0 LINE",
"280 0 LINE",
"280 80 LINE",
"240 80 LINE"
);
}
);
width = 320;
}
);
note = uni309F;
unicode = 309F;
},
{
glyphname = uni30A2;
lastChange = "2017-07-22 05:54:05 +0000";
layers = (
{
layerId = "364DB8B9-29FE-4011-8AFD-DD56313284DA";
paths = (
{
closed = 1;
nodes = (
"240 120 LINE",
"280 120 LINE",
"280 240 LINE",
"0 240 LINE",
"0 200 LINE",
"240 200 LINE"
);
},
{
closed = 1;
nodes = (
"40 -40 LINE",
"120 -40 LINE",
"120 0 LINE",
"40 0 LINE"
);
},
{
closed = 1;
nodes = (
"120 0 LINE",
"160 0 LINE",
"160 80 LINE",
"240 80 LINE",
"240 120 LINE",
"160 120 LINE",
"160 160 LINE",
"120 160 LINE"
);
}
);
width = 320;
}
);
note = uni30A2;
unicode = 30A2;
},
{
glyphname = uni30A1;
lastChange = "2017-07-22 05:54:05 +0000";
layers = (
{
layerId = "364DB8B9-29FE-4011-8AFD-DD56313284DA";
paths = (
{
closed = 1;
nodes = (
"160 40 LINE",
"200 40 LINE",
"200 160 LINE",
"0 160 LINE",
"0 120 LINE",
"160 120 LINE"
);
},
{
closed = 1;
nodes = (
"40 -40 LINE",
"80 -40 LINE",
"80 0 LINE",
"40 0 LINE"
);
},
{
closed = 1;
nodes = (
"80 0 LINE",
"160 0 LINE",
"160 40 LINE",
"120 40 LINE",
"120 80 LINE",
"80 80 LINE"
);
}
);
width = 320;
}
);
note = uni30A1;
unicode = 30A1;
},
{
glyphname = uni30A4;
lastChange = "2017-07-22 05:54:05 +0000";
layers = (
{
layerId = "364DB8B9-29FE-4011-8AFD-DD56313284DA";
paths = (
{
closed = 1;
nodes = (
"120 -40 LINE",
"160 -40 LINE",
"160 160 LINE",
"80 160 LINE",
"80 120 LINE",
"120 120 LINE"
);
},
{
closed = 1;
nodes = (
"0 80 LINE",
"80 80 LINE",
"80 120 LINE",
"0 120 LINE"
);
},
{
closed = 1;
nodes = (
"160 160 LINE",
"200 160 LINE",
"200 200 LINE",
"160 200 LINE"
);
},
{
closed = 1;
nodes = (
"200 200 LINE",
"240 200 LINE",
"240 280 LINE",
"200 280 LINE"
);
}
);
width = 320;
}
);
note = uni30A4;
unicode = 30A4;
},
{
glyphname = uni30A3;
lastChange = "2017-07-22 05:54:05 +0000";
layers = (
{
layerId = "364DB8B9-29FE-4011-8AFD-DD56313284DA";
paths = (
{
closed = 1;
nodes = (
"80 -40 LINE",
"120 -40 LINE",
"120 120 LINE",
"80 120 LINE",
"80 80 LINE",
"0 80 LINE",
"0 40 LINE",
"80 40 LINE"
);
},
{
closed = 1;
nodes = (
"120 120 LINE",
"160 120 LINE",
"160 160 LINE",
"120 160 LINE"
);
}
);
width = 320;
}
);
note = uni30A3;
unicode = 30A3;
},
{
glyphname = uni30A6;
lastChange = "2017-07-22 05:54:05 +0000";
layers = (
{
layerId = "364DB8B9-29FE-4011-8AFD-DD56313284DA";
paths = (
{
closed = 1;
nodes = (
"240 40 LINE",
"280 40 LINE",
"280 200 LINE",
"160 200 LINE",
"160 280 LINE",
"120 280 LINE",
"120 200 LINE",
"0 200 LINE",
"0 80 LINE",
"40 80 LINE",
"40 160 LINE",
"240 160 LINE"
);
},
{
closed = 1;
nodes = (
"120 -40 LINE",
"200 -40 LINE",
"200 0 LINE",
"120 0 LINE"
);
},
{
closed = 1;
nodes = (
"200 0 LINE",
"240 0 LINE",
"240 40 LINE",
"200 40 LINE"
);
}
);
width = 320;
}
);
note = uni30A6;
unicode = 30A6;
},
{
glyphname = uni30A5;
lastChange = "2017-07-22 05:54:05 +0000";
layers = (
{
layerId = "364DB8B9-29FE-4011-8AFD-DD56313284DA";
paths = (
{
closed = 1;
nodes = (
"0 40 LINE",
"40 40 LINE",
"40 80 LINE",
"160 80 LINE",
"160 40 LINE",
"200 40 LINE",
"200 120 LINE",
"120 120 LINE",
"120 160 LINE",
"80 160 LINE",
"80 120 LINE",
"0 120 LINE"
);
},
{
closed = 1;
nodes = (
"40 -40 LINE",
"120 -40 LINE",
"120 0 LINE",
"40 0 LINE"
);
},
{
closed = 1;
nodes = (
"120 0 LINE",
"160 0 LINE",
"160 40 LINE",
"120 40 LINE"
);
}
);
width = 320;
}
);
note = uni30A5;
unicode = 30A5;
},
{
glyphname = uni30A8;
lastChange = "2017-07-22 05:54:05 +0000";
layers = (
{
layerId = "364DB8B9-29FE-4011-8AFD-DD56313284DA";
paths = (
{
closed = 1;
nodes = (
"0 -40 LINE",
"280 -40 LINE",
"280 0 LINE",
"160 0 LINE",
"160 200 LINE",
"240 200 LINE",
"240 240 LINE",
"40 240 LINE",
"40 200 LINE",
"120 200 LINE",
"120 0 LINE",
"0 0 LINE"
);
}
);
width = 320;
}
);
note = uni30A8;
unicode = 30A8;
},
{
glyphname = uni30A7;
lastChange = "2017-07-22 05:54:05 +0000";
layers = (
{
layerId = "364DB8B9-29FE-4011-8AFD-DD56313284DA";
paths = (
{
closed = 1;
nodes = (
"0 -40 LINE",
"200 -40 LINE",
"200 0 LINE",
"120 0 LINE",
"120 80 LINE",
"160 80 LINE",
"160 120 LINE",
"40 120 LINE",
"40 80 LINE",
"80 80 LINE",
"80 0 LINE",
"0 0 LINE"
);
}
);
width = 320;
}
);
note = uni30A7;
unicode = 30A7;
},
{
glyphname = uni30AA;
lastChange = "2017-07-22 05:54:05 +0000";
layers = (
{
layerId = "364DB8B9-29FE-4011-8AFD-DD56313284DA";
paths = (
{
closed = 1;
nodes = (
"120 -40 LINE",
"200 -40 LINE",
"200 160 LINE",
"280 160 LINE",
"280 200 LINE",
"200 200 LINE",
"200 280 LINE",
"160 280 LINE",
"160 200 LINE",
"0 200 LINE",
"0 160 LINE",
"120 160 LINE",
"120 120 LINE",
"160 120 LINE",
"160 0 LINE",
"120 0 LINE"
);
},
{
closed = 1;
nodes = (
"0 0 LINE",
"40 0 LINE",
"40 40 LINE",
"0 40 LINE"
);
},
{
closed = 1;
nodes = (
"40 40 LINE",
"80 40 LINE",
"80 80 LINE",
"40 80 LINE"
);
},
{
closed = 1;
nodes = (
"80 80 LINE",
"120 80 LINE",
"120 120 LINE",
"80 120 LINE"
);
}
);
width = 320;
}
);
note = uni30AA;
unicode = 30AA;
},
{
glyphname = uni30A9;
lastChange = "2017-07-22 05:54:05 +0000";
layers = (
{
layerId = "364DB8B9-29FE-4011-8AFD-DD56313284DA";
paths = (
{
closed = 1;
nodes = (
"120 -40 LINE",
"160 -40 LINE",
"160 80 LINE",
"200 80 LINE",
"200 120 LINE",
"160 120 LINE",
"160 160 LINE",
"120 160 LINE",
"120 120 LINE",
"0 120 LINE",
"0 80 LINE",
"80 80 LINE",
"80 40 LINE",
"120 40 LINE"
);
},
{
closed = 1;
nodes = (
"0 -40 LINE",
"40 -40 LINE",
"40 0 LINE",
"0 0 LINE"
);
},
{
closed = 1;
nodes = (
"40 0 LINE",
"80 0 LINE",
"80 40 LINE",
"40 40 LINE"
);
}
);
width = 320;
}
);
note = uni30A9;
unicode = 30A9;
},
